G04 #@! TF.GenerationSoftware,KiCad,Pcbnew,6.0.5-a6ca702e91~116~ubuntu20.04.1*
G04 #@! TF.CreationDate,2022-06-20T08:29:12+02:00*
G04 #@! TF.ProjectId,traffic_lights_vehicle,74726166-6669-4635-9f6c-69676874735f,1.0*
G04 #@! TF.SameCoordinates,Original*
G04 #@! TF.FileFunction,Copper,L2,Bot*
G04 #@! TF.FilePolarity,Positive*
%FSLAX46Y46*%
G04 Gerber Fmt 4.6, Leading zero omitted, Abs format (unit mm)*
G04 Created by KiCad (PCBNEW 6.0.5-a6ca702e91~116~ubuntu20.04.1) date 2022-06-20 08:29:12*
%MOMM*%
%LPD*%
G01*
G04 APERTURE LIST*
G04 #@! TA.AperFunction,ComponentPad*
%ADD10R,1.800000X1.800000*%
G04 #@! TD*
G04 #@! TA.AperFunction,ComponentPad*
%ADD11C,1.800000*%
G04 #@! TD*
G04 #@! TA.AperFunction,ComponentPad*
%ADD12R,1.700000X1.700000*%
G04 #@! TD*
G04 #@! TA.AperFunction,ComponentPad*
%ADD13O,1.700000X1.700000*%
G04 #@! TD*
G04 #@! TA.AperFunction,ComponentPad*
%ADD14C,1.600000*%
G04 #@! TD*
G04 #@! TA.AperFunction,ComponentPad*
%ADD15O,1.600000X1.600000*%
G04 #@! TD*
G04 #@! TA.AperFunction,ViaPad*
%ADD16C,3.500000*%
G04 #@! TD*
G04 #@! TA.AperFunction,Conductor*
%ADD17C,0.500000*%
G04 #@! TD*
G04 APERTURE END LIST*
D10*
X111760000Y-50800000D03*
D11*
X109220000Y-50800000D03*
D10*
X111760000Y-60445000D03*
D11*
X109220000Y-60445000D03*
D10*
X111760000Y-69215000D03*
D11*
X109220000Y-69215000D03*
D12*
X114300000Y-98425000D03*
D13*
X111760000Y-98425000D03*
X109220000Y-98425000D03*
X106680000Y-98425000D03*
D14*
X114300000Y-54610000D03*
D15*
X106680000Y-54610000D03*
D14*
X106680000Y-64135000D03*
D15*
X114300000Y-64135000D03*
D14*
X114300000Y-73025000D03*
D15*
X106680000Y-73025000D03*
D16*
X118500000Y-94000000D03*
X102500000Y-94000000D03*
D17*
X105880001Y-55409999D02*
X106680000Y-54610000D01*
X106680000Y-95885000D02*
X110236000Y-92329000D01*
X110236000Y-79121000D02*
X105429999Y-74314999D01*
X105429999Y-74314999D02*
X105429999Y-55860001D01*
X110236000Y-92329000D02*
X110236000Y-79121000D01*
X105429999Y-55860001D02*
X105880001Y-55409999D01*
X106680000Y-98425000D02*
X106680000Y-95885000D01*
G04 #@! TA.AperFunction,Conductor*
G36*
X114487103Y-44756921D02*
G01*
X114500000Y-44759486D01*
X114512172Y-44757065D01*
X114524580Y-44757065D01*
X114524580Y-44757385D01*
X114535456Y-44756645D01*
X114763057Y-44770412D01*
X114778161Y-44772246D01*
X115029885Y-44818376D01*
X115044658Y-44822017D01*
X115288996Y-44898156D01*
X115303214Y-44903549D01*
X115536584Y-45008579D01*
X115550057Y-45015650D01*
X115769069Y-45148049D01*
X115781590Y-45156692D01*
X115983043Y-45314519D01*
X115994432Y-45324609D01*
X116175391Y-45505568D01*
X116185481Y-45516957D01*
X116343308Y-45718410D01*
X116351951Y-45730931D01*
X116484350Y-45949943D01*
X116491421Y-45963416D01*
X116596450Y-46196782D01*
X116601846Y-46211009D01*
X116677983Y-46455342D01*
X116681624Y-46470115D01*
X116727754Y-46721839D01*
X116729588Y-46736943D01*
X116743355Y-46964544D01*
X116742615Y-46975420D01*
X116742935Y-46975420D01*
X116742935Y-46987828D01*
X116740514Y-47000000D01*
X116742935Y-47012170D01*
X116743079Y-47012894D01*
X116745500Y-47037476D01*
X116745500Y-76962524D01*
X116743079Y-76987103D01*
X116740514Y-77000000D01*
X116742935Y-77012172D01*
X116742935Y-77024580D01*
X116742615Y-77024580D01*
X116743355Y-77035456D01*
X116729588Y-77263057D01*
X116727754Y-77278161D01*
X116681624Y-77529885D01*
X116677983Y-77544658D01*
X116601846Y-77788991D01*
X116596450Y-77803218D01*
X116491421Y-78036584D01*
X116484350Y-78050057D01*
X116351951Y-78269069D01*
X116343308Y-78281590D01*
X116185481Y-78483043D01*
X116175391Y-78494432D01*
X115994432Y-78675391D01*
X115983043Y-78685481D01*
X115781590Y-78843308D01*
X115769069Y-78851951D01*
X115550057Y-78984350D01*
X115536586Y-78991420D01*
X115303214Y-79096451D01*
X115288996Y-79101844D01*
X115125098Y-79152917D01*
X115044658Y-79177983D01*
X115029885Y-79181624D01*
X114778161Y-79227754D01*
X114763057Y-79229588D01*
X114535456Y-79243355D01*
X114524580Y-79242615D01*
X114524580Y-79242935D01*
X114512172Y-79242935D01*
X114500000Y-79240514D01*
X114487103Y-79243079D01*
X114462524Y-79245500D01*
X113787476Y-79245500D01*
X113762897Y-79243079D01*
X113750000Y-79240514D01*
X113739688Y-79242565D01*
X113735459Y-79242935D01*
X113734448Y-79242935D01*
X113732850Y-79243163D01*
X113574904Y-79256982D01*
X113569591Y-79258406D01*
X113569589Y-79258406D01*
X113522900Y-79270916D01*
X113405128Y-79302473D01*
X113245832Y-79376755D01*
X113241330Y-79379907D01*
X113241327Y-79379909D01*
X113241326Y-79379910D01*
X113101853Y-79477569D01*
X112977569Y-79601853D01*
X112974416Y-79606356D01*
X112916080Y-79689670D01*
X112876755Y-79745832D01*
X112802473Y-79905128D01*
X112756982Y-80074904D01*
X112743164Y-80232845D01*
X112742935Y-80234448D01*
X112742935Y-80235459D01*
X112742565Y-80239688D01*
X112740514Y-80250000D01*
X112742935Y-80262170D01*
X112743079Y-80262894D01*
X112745500Y-80287476D01*
X112745500Y-90712524D01*
X112743079Y-90737103D01*
X112740514Y-90750000D01*
X112742565Y-90760312D01*
X112742935Y-90764541D01*
X112742935Y-90765552D01*
X112743163Y-90767150D01*
X112756982Y-90925096D01*
X112802473Y-91094872D01*
X112804795Y-91099852D01*
X112804796Y-91099854D01*
X112872713Y-91245500D01*
X112876755Y-91254169D01*
X112977569Y-91398147D01*
X113101853Y-91522431D01*
X113106356Y-91525584D01*
X113241327Y-91620091D01*
X113241330Y-91620093D01*
X113245832Y-91623245D01*
X113405128Y-91697527D01*
X113522900Y-91729084D01*
X113569589Y-91741594D01*
X113569591Y-91741594D01*
X113574904Y-91743018D01*
X113732850Y-91756837D01*
X113734448Y-91757065D01*
X113735459Y-91757065D01*
X113739688Y-91757435D01*
X113750000Y-91759486D01*
X113762897Y-91756921D01*
X113787476Y-91754500D01*
X118240540Y-91754500D01*
X118308661Y-91774502D01*
X118355154Y-91828158D01*
X118365258Y-91898432D01*
X118335764Y-91963012D01*
X118276038Y-92001396D01*
X118256334Y-92005506D01*
X118252568Y-92005982D01*
X118248128Y-92006226D01*
X118243768Y-92007093D01*
X118243762Y-92007094D01*
X118107296Y-92034239D01*
X117969715Y-92061606D01*
X117965505Y-92063084D01*
X117965503Y-92063085D01*
X117914996Y-92080822D01*
X117701884Y-92155662D01*
X117697933Y-92157715D01*
X117697927Y-92157717D01*
X117453926Y-92284465D01*
X117449976Y-92286517D01*
X117446361Y-92289100D01*
X117446355Y-92289104D01*
X117357029Y-92352938D01*
X117219020Y-92451561D01*
X117013623Y-92647501D01*
X117010867Y-92650997D01*
X117010866Y-92650998D01*
X116976291Y-92694856D01*
X116837882Y-92870426D01*
X116835645Y-92874278D01*
X116697540Y-93112042D01*
X116697537Y-93112048D01*
X116695306Y-93115889D01*
X116693636Y-93120012D01*
X116590411Y-93374861D01*
X116590408Y-93374869D01*
X116588738Y-93378993D01*
X116520305Y-93654488D01*
X116491372Y-93936876D01*
X116493852Y-94000000D01*
X116498935Y-94129367D01*
X116502516Y-94220524D01*
X116553516Y-94499772D01*
X116643353Y-94769048D01*
X116645346Y-94773036D01*
X116728954Y-94940361D01*
X116770236Y-95022980D01*
X116931631Y-95256500D01*
X117124320Y-95464950D01*
X117127774Y-95467762D01*
X117341001Y-95641356D01*
X117341005Y-95641359D01*
X117344458Y-95644170D01*
X117587652Y-95790585D01*
X117591747Y-95792319D01*
X117591749Y-95792320D01*
X117776140Y-95870399D01*
X117849049Y-95901272D01*
X117853342Y-95902410D01*
X117853347Y-95902412D01*
X117996898Y-95940473D01*
X118123435Y-95974024D01*
X118405334Y-96007389D01*
X118689122Y-96000701D01*
X118693517Y-95999969D01*
X118693522Y-95999969D01*
X118964734Y-95954827D01*
X118964738Y-95954826D01*
X118969136Y-95954094D01*
X119233776Y-95870399D01*
X119235544Y-95869840D01*
X119235546Y-95869839D01*
X119239790Y-95868497D01*
X119243801Y-95866571D01*
X119243806Y-95866569D01*
X119491665Y-95747549D01*
X119491666Y-95747548D01*
X119495684Y-95745619D01*
X119651724Y-95641356D01*
X119728002Y-95590389D01*
X119728006Y-95590386D01*
X119731710Y-95587911D01*
X119735027Y-95584940D01*
X119735031Y-95584937D01*
X119939845Y-95401490D01*
X119943161Y-95398520D01*
X120125817Y-95181225D01*
X120128174Y-95177446D01*
X120273669Y-94944152D01*
X120273671Y-94944149D01*
X120276033Y-94940361D01*
X120390813Y-94680734D01*
X120467866Y-94407525D01*
X120494621Y-94208328D01*
X120523514Y-94143476D01*
X120582881Y-94104540D01*
X120653874Y-94103881D01*
X120713954Y-94141708D01*
X120744046Y-94206012D01*
X120745500Y-94225101D01*
X120745500Y-97462524D01*
X120743079Y-97487103D01*
X120740514Y-97500000D01*
X120742935Y-97512172D01*
X120742935Y-97524580D01*
X120742615Y-97524580D01*
X120743355Y-97535456D01*
X120729588Y-97763057D01*
X120727754Y-97778161D01*
X120681624Y-98029885D01*
X120677983Y-98044658D01*
X120631329Y-98194378D01*
X120601846Y-98288991D01*
X120596451Y-98303214D01*
X120515513Y-98483053D01*
X120491421Y-98536584D01*
X120484350Y-98550057D01*
X120351951Y-98769069D01*
X120343308Y-98781590D01*
X120328484Y-98800512D01*
X120205265Y-98957791D01*
X120185481Y-98983043D01*
X120175391Y-98994432D01*
X119994432Y-99175391D01*
X119983043Y-99185481D01*
X119781590Y-99343308D01*
X119769069Y-99351951D01*
X119605565Y-99450794D01*
X119555240Y-99481217D01*
X119550057Y-99484350D01*
X119536586Y-99491420D01*
X119303214Y-99596451D01*
X119288996Y-99601844D01*
X119112162Y-99656948D01*
X119044658Y-99677983D01*
X119029885Y-99681624D01*
X118778161Y-99727754D01*
X118763057Y-99729588D01*
X118535456Y-99743355D01*
X118524580Y-99742615D01*
X118524580Y-99742935D01*
X118512172Y-99742935D01*
X118500000Y-99740514D01*
X118487103Y-99743079D01*
X118462524Y-99745500D01*
X115684156Y-99745500D01*
X115616035Y-99725498D01*
X115569542Y-99671842D01*
X115559438Y-99601568D01*
X115583329Y-99543937D01*
X115594784Y-99528652D01*
X115603324Y-99513054D01*
X115648478Y-99392606D01*
X115652105Y-99377351D01*
X115657631Y-99326486D01*
X115658000Y-99319672D01*
X115658000Y-98697115D01*
X115653525Y-98681876D01*
X115652135Y-98680671D01*
X115644452Y-98679000D01*
X114172000Y-98679000D01*
X114103879Y-98658998D01*
X114057386Y-98605342D01*
X114046000Y-98553000D01*
X114046000Y-98152885D01*
X114554000Y-98152885D01*
X114558475Y-98168124D01*
X114559865Y-98169329D01*
X114567548Y-98171000D01*
X115639884Y-98171000D01*
X115655123Y-98166525D01*
X115656328Y-98165135D01*
X115657999Y-98157452D01*
X115657999Y-97530331D01*
X115657629Y-97523510D01*
X115652105Y-97472648D01*
X115648479Y-97457396D01*
X115603324Y-97336946D01*
X115594786Y-97321351D01*
X115518285Y-97219276D01*
X115505724Y-97206715D01*
X115403649Y-97130214D01*
X115388054Y-97121676D01*
X115267606Y-97076522D01*
X115252351Y-97072895D01*
X115201486Y-97067369D01*
X115194672Y-97067000D01*
X114572115Y-97067000D01*
X114556876Y-97071475D01*
X114555671Y-97072865D01*
X114554000Y-97080548D01*
X114554000Y-98152885D01*
X114046000Y-98152885D01*
X114046000Y-97085116D01*
X114041525Y-97069877D01*
X114040135Y-97068672D01*
X114032452Y-97067001D01*
X113405331Y-97067001D01*
X113398510Y-97067371D01*
X113347648Y-97072895D01*
X113332396Y-97076521D01*
X113211946Y-97121676D01*
X113196351Y-97130214D01*
X113094276Y-97206715D01*
X113081715Y-97219276D01*
X113005214Y-97321351D01*
X112996676Y-97336946D01*
X112951522Y-97457394D01*
X112947895Y-97472649D01*
X112942369Y-97523514D01*
X112942000Y-97530328D01*
X112942000Y-97785160D01*
X112921998Y-97853281D01*
X112868342Y-97899774D01*
X112798068Y-97909878D01*
X112733488Y-97880384D01*
X112708567Y-97850994D01*
X112708331Y-97850608D01*
X112705776Y-97845428D01*
X112584320Y-97682779D01*
X112435258Y-97544987D01*
X112430375Y-97541906D01*
X112430371Y-97541903D01*
X112284728Y-97450010D01*
X112263581Y-97436667D01*
X112075039Y-97361446D01*
X112069379Y-97360320D01*
X112069375Y-97360319D01*
X111881613Y-97322971D01*
X111881610Y-97322971D01*
X111875946Y-97321844D01*
X111870171Y-97321768D01*
X111870167Y-97321768D01*
X111768793Y-97320441D01*
X111672971Y-97319187D01*
X111667274Y-97320166D01*
X111667273Y-97320166D01*
X111569620Y-97336946D01*
X111472910Y-97353564D01*
X111282463Y-97423824D01*
X111108010Y-97527612D01*
X111103670Y-97531418D01*
X111103666Y-97531421D01*
X111083723Y-97548911D01*
X110955392Y-97661455D01*
X110829720Y-97820869D01*
X110827031Y-97825980D01*
X110827029Y-97825983D01*
X110814073Y-97850609D01*
X110735203Y-98000515D01*
X110675007Y-98194378D01*
X110651148Y-98395964D01*
X110664424Y-98598522D01*
X110665845Y-98604118D01*
X110665846Y-98604123D01*
X110707738Y-98769069D01*
X110714392Y-98795269D01*
X110716809Y-98800512D01*
X110754010Y-98881208D01*
X110799377Y-98979616D01*
X110916533Y-99145389D01*
X111061938Y-99287035D01*
X111066742Y-99290245D01*
X111120980Y-99326486D01*
X111230720Y-99399812D01*
X111236023Y-99402090D01*
X111236026Y-99402092D01*
X111324707Y-99440192D01*
X111417228Y-99479942D01*
X111490877Y-99496607D01*
X111552903Y-99531150D01*
X111586408Y-99593743D01*
X111580754Y-99664514D01*
X111537735Y-99720994D01*
X111471011Y-99745249D01*
X111463069Y-99745500D01*
X109529453Y-99745500D01*
X109461332Y-99725498D01*
X109414839Y-99671842D01*
X109404735Y-99601568D01*
X109434229Y-99536988D01*
X109488952Y-99500187D01*
X109499499Y-99496607D01*
X109523994Y-99488292D01*
X109665693Y-99440192D01*
X109665698Y-99440190D01*
X109671165Y-99438334D01*
X109848276Y-99339147D01*
X109863495Y-99326490D01*
X109999913Y-99213031D01*
X110004345Y-99209345D01*
X110134147Y-99053276D01*
X110233334Y-98876165D01*
X110235190Y-98870698D01*
X110235192Y-98870693D01*
X110296728Y-98689414D01*
X110296729Y-98689409D01*
X110298584Y-98683945D01*
X110299412Y-98678236D01*
X110299413Y-98678231D01*
X110327179Y-98486727D01*
X110327712Y-98483053D01*
X110329232Y-98425000D01*
X110310658Y-98222859D01*
X110309090Y-98217299D01*
X110257125Y-98033046D01*
X110257124Y-98033044D01*
X110255557Y-98027487D01*
X110244978Y-98006033D01*
X110168331Y-97850609D01*
X110165776Y-97845428D01*
X110044320Y-97682779D01*
X109895258Y-97544987D01*
X109890375Y-97541906D01*
X109890371Y-97541903D01*
X109744728Y-97450010D01*
X109723581Y-97436667D01*
X109535039Y-97361446D01*
X109529379Y-97360320D01*
X109529375Y-97360319D01*
X109341613Y-97322971D01*
X109341610Y-97322971D01*
X109335946Y-97321844D01*
X109330171Y-97321768D01*
X109330167Y-97321768D01*
X109228793Y-97320441D01*
X109132971Y-97319187D01*
X109127274Y-97320166D01*
X109127273Y-97320166D01*
X109029620Y-97336946D01*
X108932910Y-97353564D01*
X108742463Y-97423824D01*
X108568010Y-97527612D01*
X108563670Y-97531418D01*
X108563666Y-97531421D01*
X108543723Y-97548911D01*
X108415392Y-97661455D01*
X108289720Y-97820869D01*
X108287031Y-97825980D01*
X108287029Y-97825983D01*
X108274073Y-97850609D01*
X108195203Y-98000515D01*
X108135007Y-98194378D01*
X108111148Y-98395964D01*
X108124424Y-98598522D01*
X108125845Y-98604118D01*
X108125846Y-98604123D01*
X108167738Y-98769069D01*
X108174392Y-98795269D01*
X108176809Y-98800512D01*
X108214010Y-98881208D01*
X108259377Y-98979616D01*
X108376533Y-99145389D01*
X108521938Y-99287035D01*
X108526742Y-99290245D01*
X108580980Y-99326486D01*
X108690720Y-99399812D01*
X108696023Y-99402090D01*
X108696026Y-99402092D01*
X108784707Y-99440192D01*
X108877228Y-99479942D01*
X108950877Y-99496607D01*
X109012903Y-99531150D01*
X109046408Y-99593743D01*
X109040754Y-99664514D01*
X108997735Y-99720994D01*
X108931011Y-99745249D01*
X108923069Y-99745500D01*
X106989453Y-99745500D01*
X106921332Y-99725498D01*
X106874839Y-99671842D01*
X106864735Y-99601568D01*
X106894229Y-99536988D01*
X106948952Y-99500187D01*
X106959499Y-99496607D01*
X106983994Y-99488292D01*
X107125693Y-99440192D01*
X107125698Y-99440190D01*
X107131165Y-99438334D01*
X107308276Y-99339147D01*
X107323495Y-99326490D01*
X107459913Y-99213031D01*
X107464345Y-99209345D01*
X107594147Y-99053276D01*
X107693334Y-98876165D01*
X107695190Y-98870698D01*
X107695192Y-98870693D01*
X107756728Y-98689414D01*
X107756729Y-98689409D01*
X107758584Y-98683945D01*
X107759412Y-98678236D01*
X107759413Y-98678231D01*
X107787179Y-98486727D01*
X107787712Y-98483053D01*
X107789232Y-98425000D01*
X107770658Y-98222859D01*
X107769090Y-98217299D01*
X107717125Y-98033046D01*
X107717124Y-98033044D01*
X107715557Y-98027487D01*
X107704978Y-98006033D01*
X107628331Y-97850609D01*
X107625776Y-97845428D01*
X107504320Y-97682779D01*
X107355258Y-97544987D01*
X107350375Y-97541906D01*
X107350371Y-97541903D01*
X107243265Y-97474325D01*
X107196326Y-97421058D01*
X107184500Y-97367763D01*
X107184500Y-96146161D01*
X107204502Y-96078040D01*
X107221405Y-96057066D01*
X110542794Y-92735677D01*
X110552234Y-92728135D01*
X110551911Y-92727755D01*
X110558747Y-92721937D01*
X110566339Y-92717147D01*
X110601672Y-92677140D01*
X110607017Y-92671454D01*
X110618351Y-92660120D01*
X110621038Y-92656534D01*
X110621043Y-92656529D01*
X110624557Y-92651841D01*
X110630938Y-92644003D01*
X110656060Y-92615557D01*
X110662001Y-92608830D01*
X110665815Y-92600707D01*
X110667661Y-92597896D01*
X110676072Y-92583897D01*
X110677686Y-92580948D01*
X110683070Y-92573765D01*
X110699542Y-92529826D01*
X110703469Y-92520506D01*
X110719602Y-92486144D01*
X110719602Y-92486143D01*
X110723417Y-92478018D01*
X110724798Y-92469147D01*
X110725783Y-92465925D01*
X110729920Y-92450154D01*
X110730644Y-92446860D01*
X110733798Y-92438448D01*
X110737276Y-92391650D01*
X110738426Y-92381626D01*
X110740500Y-92368303D01*
X110740500Y-92352938D01*
X110740846Y-92343601D01*
X110743842Y-92303282D01*
X110744507Y-92294334D01*
X110742634Y-92285559D01*
X110742041Y-92276863D01*
X110740500Y-92262263D01*
X110740500Y-79191625D01*
X110741841Y-79179620D01*
X110741345Y-79179580D01*
X110742065Y-79170633D01*
X110744046Y-79161877D01*
X110740742Y-79108619D01*
X110740500Y-79100817D01*
X110740500Y-79084774D01*
X110739034Y-79074536D01*
X110738004Y-79064481D01*
X110735654Y-79026601D01*
X110735654Y-79026599D01*
X110735098Y-79017642D01*
X110732051Y-79009201D01*
X110731372Y-79005923D01*
X110727416Y-78990055D01*
X110726473Y-78986831D01*
X110725201Y-78977948D01*
X110721487Y-78969779D01*
X110721485Y-78969773D01*
X110705775Y-78935221D01*
X110701961Y-78925852D01*
X110689077Y-78890163D01*
X110686028Y-78881716D01*
X110680731Y-78874466D01*
X110679154Y-78871499D01*
X110670907Y-78857386D01*
X110669102Y-78854563D01*
X110665388Y-78846395D01*
X110634753Y-78810842D01*
X110628475Y-78802936D01*
X110620527Y-78792056D01*
X110609665Y-78781194D01*
X110603307Y-78774347D01*
X110576915Y-78743718D01*
X110571056Y-78736918D01*
X110563521Y-78732034D01*
X110556949Y-78726301D01*
X110545545Y-78717074D01*
X105971404Y-74142933D01*
X105937378Y-74080621D01*
X105934499Y-74053838D01*
X105934499Y-74031178D01*
X105954501Y-73963057D01*
X106008157Y-73916564D01*
X106078431Y-73906460D01*
X106121968Y-73921189D01*
X106124190Y-73922431D01*
X106250411Y-73992975D01*
X106250417Y-73992977D01*
X106255789Y-73995980D01*
X106452466Y-74059884D01*
X106657809Y-74084370D01*
X106663944Y-74083898D01*
X106663946Y-74083898D01*
X106857856Y-74068977D01*
X106857860Y-74068976D01*
X106863998Y-74068504D01*
X107063178Y-74012892D01*
X107068682Y-74010112D01*
X107068684Y-74010111D01*
X107242262Y-73922431D01*
X107242264Y-73922430D01*
X107247763Y-73919652D01*
X107410722Y-73792334D01*
X107414748Y-73787670D01*
X107414751Y-73787667D01*
X107541819Y-73640457D01*
X107541820Y-73640455D01*
X107545848Y-73635789D01*
X107647995Y-73455979D01*
X107713270Y-73259753D01*
X107739189Y-73054586D01*
X107739602Y-73025000D01*
X107738151Y-73010206D01*
X113240501Y-73010206D01*
X113257806Y-73216278D01*
X113314807Y-73415066D01*
X113317625Y-73420548D01*
X113317626Y-73420552D01*
X113406514Y-73593509D01*
X113406517Y-73593513D01*
X113409334Y-73598995D01*
X113537786Y-73761061D01*
X113695271Y-73895091D01*
X113875789Y-73995980D01*
X114072466Y-74059884D01*
X114277809Y-74084370D01*
X114283944Y-74083898D01*
X114283946Y-74083898D01*
X114477856Y-74068977D01*
X114477860Y-74068976D01*
X114483998Y-74068504D01*
X114683178Y-74012892D01*
X114688682Y-74010112D01*
X114688684Y-74010111D01*
X114862262Y-73922431D01*
X114862264Y-73922430D01*
X114867763Y-73919652D01*
X115030722Y-73792334D01*
X115034748Y-73787670D01*
X115034751Y-73787667D01*
X115161819Y-73640457D01*
X115161820Y-73640455D01*
X115165848Y-73635789D01*
X115267995Y-73455979D01*
X115333270Y-73259753D01*
X115359189Y-73054586D01*
X115359602Y-73025000D01*
X115339422Y-72819189D01*
X115279651Y-72621217D01*
X115182565Y-72438625D01*
X115178674Y-72433855D01*
X115178672Y-72433851D01*
X115055758Y-72283143D01*
X115055755Y-72283140D01*
X115051863Y-72278368D01*
X115047114Y-72274439D01*
X114897271Y-72150478D01*
X114897266Y-72150475D01*
X114892522Y-72146550D01*
X114887103Y-72143620D01*
X114887100Y-72143618D01*
X114716032Y-72051122D01*
X114716027Y-72051120D01*
X114710612Y-72048192D01*
X114513063Y-71987040D01*
X114506938Y-71986396D01*
X114506937Y-71986396D01*
X114313526Y-71966068D01*
X114313524Y-71966068D01*
X114307397Y-71965424D01*
X114181229Y-71976906D01*
X114107591Y-71983607D01*
X114107590Y-71983607D01*
X114101450Y-71984166D01*
X113903066Y-72042554D01*
X113897601Y-72045411D01*
X113725261Y-72135508D01*
X113725257Y-72135511D01*
X113719801Y-72138363D01*
X113558635Y-72267943D01*
X113425708Y-72426360D01*
X113326082Y-72607578D01*
X113263553Y-72804696D01*
X113240501Y-73010206D01*
X107738151Y-73010206D01*
X107719422Y-72819189D01*
X107659651Y-72621217D01*
X107562565Y-72438625D01*
X107558674Y-72433855D01*
X107558672Y-72433851D01*
X107435758Y-72283143D01*
X107435755Y-72283140D01*
X107431863Y-72278368D01*
X107427114Y-72274439D01*
X107277271Y-72150478D01*
X107277266Y-72150475D01*
X107272522Y-72146550D01*
X107267103Y-72143620D01*
X107267100Y-72143618D01*
X107096032Y-72051122D01*
X107096027Y-72051120D01*
X107090612Y-72048192D01*
X106893063Y-71987040D01*
X106886938Y-71986396D01*
X106886937Y-71986396D01*
X106693526Y-71966068D01*
X106693524Y-71966068D01*
X106687397Y-71965424D01*
X106561229Y-71976906D01*
X106487591Y-71983607D01*
X106487590Y-71983607D01*
X106481450Y-71984166D01*
X106283066Y-72042554D01*
X106118873Y-72128392D01*
X106049239Y-72142226D01*
X105983178Y-72116216D01*
X105941666Y-72058620D01*
X105934499Y-72016730D01*
X105934499Y-69184649D01*
X108060951Y-69184649D01*
X108074829Y-69396377D01*
X108127058Y-69602031D01*
X108215890Y-69794723D01*
X108338350Y-69968000D01*
X108490337Y-70116059D01*
X108495133Y-70119264D01*
X108495136Y-70119266D01*
X108637186Y-70214180D01*
X108666760Y-70233941D01*
X108672063Y-70236219D01*
X108672066Y-70236221D01*
X108753908Y-70271383D01*
X108861711Y-70317699D01*
X108937750Y-70334905D01*
X109063025Y-70363252D01*
X109063030Y-70363253D01*
X109068662Y-70364527D01*
X109074433Y-70364754D01*
X109074435Y-70364754D01*
X109139911Y-70367326D01*
X109280681Y-70372857D01*
X109385674Y-70357633D01*
X109484953Y-70343239D01*
X109484958Y-70343238D01*
X109490667Y-70342410D01*
X109496131Y-70340555D01*
X109496136Y-70340554D01*
X109589240Y-70308949D01*
X109691589Y-70274207D01*
X109765873Y-70232606D01*
X109871670Y-70173357D01*
X109871674Y-70173354D01*
X109876717Y-70170530D01*
X110039852Y-70034852D01*
X110129128Y-69927509D01*
X110188065Y-69887927D01*
X110259047Y-69886491D01*
X110319537Y-69923658D01*
X110350330Y-69987629D01*
X110352001Y-70008080D01*
X110352001Y-70159669D01*
X110352371Y-70166490D01*
X110357895Y-70217352D01*
X110361521Y-70232604D01*
X110406676Y-70353054D01*
X110415214Y-70368649D01*
X110491715Y-70470724D01*
X110504276Y-70483285D01*
X110606351Y-70559786D01*
X110621946Y-70568324D01*
X110742394Y-70613478D01*
X110757649Y-70617105D01*
X110808514Y-70622631D01*
X110815328Y-70623000D01*
X111487885Y-70623000D01*
X111503124Y-70618525D01*
X111504329Y-70617135D01*
X111506000Y-70609452D01*
X111506000Y-70604884D01*
X112014000Y-70604884D01*
X112018475Y-70620123D01*
X112019865Y-70621328D01*
X112027548Y-70622999D01*
X112704669Y-70622999D01*
X112711490Y-70622629D01*
X112762352Y-70617105D01*
X112777604Y-70613479D01*
X112898054Y-70568324D01*
X112913649Y-70559786D01*
X113015724Y-70483285D01*
X113028285Y-70470724D01*
X113104786Y-70368649D01*
X113113324Y-70353054D01*
X113158478Y-70232606D01*
X113162105Y-70217351D01*
X113167631Y-70166486D01*
X113168000Y-70159672D01*
X113168000Y-69487115D01*
X113163525Y-69471876D01*
X113162135Y-69470671D01*
X113154452Y-69469000D01*
X112032115Y-69469000D01*
X112016876Y-69473475D01*
X112015671Y-69474865D01*
X112014000Y-69482548D01*
X112014000Y-70604884D01*
X111506000Y-70604884D01*
X111506000Y-68942885D01*
X112014000Y-68942885D01*
X112018475Y-68958124D01*
X112019865Y-68959329D01*
X112027548Y-68961000D01*
X113149884Y-68961000D01*
X113165123Y-68956525D01*
X113166328Y-68955135D01*
X113167999Y-68947452D01*
X113167999Y-68270331D01*
X113167629Y-68263510D01*
X113162105Y-68212648D01*
X113158479Y-68197396D01*
X113113324Y-68076946D01*
X113104786Y-68061351D01*
X113028285Y-67959276D01*
X113015724Y-67946715D01*
X112913649Y-67870214D01*
X112898054Y-67861676D01*
X112777606Y-67816522D01*
X112762351Y-67812895D01*
X112711486Y-67807369D01*
X112704672Y-67807000D01*
X112032115Y-67807000D01*
X112016876Y-67811475D01*
X112015671Y-67812865D01*
X112014000Y-67820548D01*
X112014000Y-68942885D01*
X111506000Y-68942885D01*
X111506000Y-67825116D01*
X111501525Y-67809877D01*
X111500135Y-67808672D01*
X111492452Y-67807001D01*
X110815331Y-67807001D01*
X110808510Y-67807371D01*
X110757648Y-67812895D01*
X110742396Y-67816521D01*
X110621946Y-67861676D01*
X110606351Y-67870214D01*
X110504276Y-67946715D01*
X110491715Y-67959276D01*
X110415214Y-68061351D01*
X110406676Y-68076946D01*
X110361522Y-68197394D01*
X110357895Y-68212649D01*
X110352369Y-68263514D01*
X110352000Y-68270328D01*
X110352000Y-68421918D01*
X110331998Y-68490039D01*
X110278342Y-68536532D01*
X110208068Y-68546636D01*
X110143488Y-68517142D01*
X110125042Y-68497307D01*
X110085089Y-68443803D01*
X110085088Y-68443802D01*
X110081636Y-68439179D01*
X110057524Y-68416890D01*
X109930066Y-68299069D01*
X109930063Y-68299067D01*
X109925826Y-68295150D01*
X109746377Y-68181926D01*
X109549300Y-68103300D01*
X109543643Y-68102175D01*
X109543637Y-68102173D01*
X109346863Y-68063033D01*
X109346859Y-68063033D01*
X109341195Y-68061906D01*
X109335420Y-68061830D01*
X109335416Y-68061830D01*
X109228804Y-68060434D01*
X109129031Y-68059128D01*
X109123334Y-68060107D01*
X109123333Y-68060107D01*
X109106305Y-68063033D01*
X108919913Y-68095061D01*
X108720846Y-68168501D01*
X108715885Y-68171453D01*
X108715884Y-68171453D01*
X108543463Y-68274032D01*
X108543460Y-68274034D01*
X108538495Y-68276988D01*
X108534155Y-68280794D01*
X108534151Y-68280797D01*
X108383309Y-68413083D01*
X108378968Y-68416890D01*
X108247607Y-68583520D01*
X108148812Y-68771299D01*
X108085891Y-68973938D01*
X108060951Y-69184649D01*
X105934499Y-69184649D01*
X105934499Y-65141178D01*
X105954501Y-65073057D01*
X106008157Y-65026564D01*
X106078431Y-65016460D01*
X106121968Y-65031189D01*
X106124190Y-65032431D01*
X106250411Y-65102975D01*
X106250417Y-65102977D01*
X106255789Y-65105980D01*
X106452466Y-65169884D01*
X106657809Y-65194370D01*
X106663944Y-65193898D01*
X106663946Y-65193898D01*
X106857856Y-65178977D01*
X106857860Y-65178976D01*
X106863998Y-65178504D01*
X107063178Y-65122892D01*
X107068682Y-65120112D01*
X107068684Y-65120111D01*
X107242262Y-65032431D01*
X107242264Y-65032430D01*
X107247763Y-65029652D01*
X107410722Y-64902334D01*
X107414748Y-64897670D01*
X107414751Y-64897667D01*
X107541819Y-64750457D01*
X107541820Y-64750455D01*
X107545848Y-64745789D01*
X107647995Y-64565979D01*
X107713270Y-64369753D01*
X107739189Y-64164586D01*
X107739602Y-64135000D01*
X107738151Y-64120206D01*
X113240501Y-64120206D01*
X113257806Y-64326278D01*
X113314807Y-64525066D01*
X113317625Y-64530548D01*
X113317626Y-64530552D01*
X113406514Y-64703509D01*
X113406517Y-64703513D01*
X113409334Y-64708995D01*
X113537786Y-64871061D01*
X113695271Y-65005091D01*
X113875789Y-65105980D01*
X114072466Y-65169884D01*
X114277809Y-65194370D01*
X114283944Y-65193898D01*
X114283946Y-65193898D01*
X114477856Y-65178977D01*
X114477860Y-65178976D01*
X114483998Y-65178504D01*
X114683178Y-65122892D01*
X114688682Y-65120112D01*
X114688684Y-65120111D01*
X114862262Y-65032431D01*
X114862264Y-65032430D01*
X114867763Y-65029652D01*
X115030722Y-64902334D01*
X115034748Y-64897670D01*
X115034751Y-64897667D01*
X115161819Y-64750457D01*
X115161820Y-64750455D01*
X115165848Y-64745789D01*
X115267995Y-64565979D01*
X115333270Y-64369753D01*
X115359189Y-64164586D01*
X115359602Y-64135000D01*
X115339422Y-63929189D01*
X115279651Y-63731217D01*
X115182565Y-63548625D01*
X115178674Y-63543855D01*
X115178672Y-63543851D01*
X115055758Y-63393143D01*
X115055755Y-63393140D01*
X115051863Y-63388368D01*
X115047114Y-63384439D01*
X114897271Y-63260478D01*
X114897266Y-63260475D01*
X114892522Y-63256550D01*
X114887103Y-63253620D01*
X114887100Y-63253618D01*
X114716032Y-63161122D01*
X114716027Y-63161120D01*
X114710612Y-63158192D01*
X114513063Y-63097040D01*
X114506938Y-63096396D01*
X114506937Y-63096396D01*
X114313526Y-63076068D01*
X114313524Y-63076068D01*
X114307397Y-63075424D01*
X114181229Y-63086906D01*
X114107591Y-63093607D01*
X114107590Y-63093607D01*
X114101450Y-63094166D01*
X113903066Y-63152554D01*
X113897601Y-63155411D01*
X113725261Y-63245508D01*
X113725257Y-63245511D01*
X113719801Y-63248363D01*
X113558635Y-63377943D01*
X113425708Y-63536360D01*
X113326082Y-63717578D01*
X113263553Y-63914696D01*
X113240501Y-64120206D01*
X107738151Y-64120206D01*
X107719422Y-63929189D01*
X107659651Y-63731217D01*
X107562565Y-63548625D01*
X107558674Y-63543855D01*
X107558672Y-63543851D01*
X107435758Y-63393143D01*
X107435755Y-63393140D01*
X107431863Y-63388368D01*
X107427114Y-63384439D01*
X107277271Y-63260478D01*
X107277266Y-63260475D01*
X107272522Y-63256550D01*
X107267103Y-63253620D01*
X107267100Y-63253618D01*
X107096032Y-63161122D01*
X107096027Y-63161120D01*
X107090612Y-63158192D01*
X106893063Y-63097040D01*
X106886938Y-63096396D01*
X106886937Y-63096396D01*
X106693526Y-63076068D01*
X106693524Y-63076068D01*
X106687397Y-63075424D01*
X106561229Y-63086906D01*
X106487591Y-63093607D01*
X106487590Y-63093607D01*
X106481450Y-63094166D01*
X106283066Y-63152554D01*
X106118873Y-63238392D01*
X106049239Y-63252226D01*
X105983178Y-63226216D01*
X105941666Y-63168620D01*
X105934499Y-63126730D01*
X105934499Y-60414649D01*
X108060951Y-60414649D01*
X108074829Y-60626377D01*
X108127058Y-60832031D01*
X108215890Y-61024723D01*
X108338350Y-61198000D01*
X108490337Y-61346059D01*
X108495133Y-61349264D01*
X108495136Y-61349266D01*
X108637186Y-61444180D01*
X108666760Y-61463941D01*
X108672063Y-61466219D01*
X108672066Y-61466221D01*
X108753908Y-61501383D01*
X108861711Y-61547699D01*
X108937750Y-61564905D01*
X109063025Y-61593252D01*
X109063030Y-61593253D01*
X109068662Y-61594527D01*
X109074433Y-61594754D01*
X109074435Y-61594754D01*
X109139911Y-61597326D01*
X109280681Y-61602857D01*
X109385674Y-61587634D01*
X109484953Y-61573239D01*
X109484958Y-61573238D01*
X109490667Y-61572410D01*
X109496131Y-61570555D01*
X109496136Y-61570554D01*
X109589240Y-61538949D01*
X109691589Y-61504207D01*
X109765873Y-61462606D01*
X109871670Y-61403357D01*
X109871674Y-61403354D01*
X109876717Y-61400530D01*
X110039852Y-61264852D01*
X110129128Y-61157509D01*
X110188065Y-61117927D01*
X110259047Y-61116491D01*
X110319537Y-61153658D01*
X110350330Y-61217629D01*
X110352001Y-61238080D01*
X110352001Y-61389669D01*
X110352371Y-61396490D01*
X110357895Y-61447352D01*
X110361521Y-61462604D01*
X110406676Y-61583054D01*
X110415214Y-61598649D01*
X110491715Y-61700724D01*
X110504276Y-61713285D01*
X110606351Y-61789786D01*
X110621946Y-61798324D01*
X110742394Y-61843478D01*
X110757649Y-61847105D01*
X110808514Y-61852631D01*
X110815328Y-61853000D01*
X111487885Y-61853000D01*
X111503124Y-61848525D01*
X111504329Y-61847135D01*
X111506000Y-61839452D01*
X111506000Y-61834884D01*
X112014000Y-61834884D01*
X112018475Y-61850123D01*
X112019865Y-61851328D01*
X112027548Y-61852999D01*
X112704669Y-61852999D01*
X112711490Y-61852629D01*
X112762352Y-61847105D01*
X112777604Y-61843479D01*
X112898054Y-61798324D01*
X112913649Y-61789786D01*
X113015724Y-61713285D01*
X113028285Y-61700724D01*
X113104786Y-61598649D01*
X113113324Y-61583054D01*
X113158478Y-61462606D01*
X113162105Y-61447351D01*
X113167631Y-61396486D01*
X113168000Y-61389672D01*
X113168000Y-60717115D01*
X113163525Y-60701876D01*
X113162135Y-60700671D01*
X113154452Y-60699000D01*
X112032115Y-60699000D01*
X112016876Y-60703475D01*
X112015671Y-60704865D01*
X112014000Y-60712548D01*
X112014000Y-61834884D01*
X111506000Y-61834884D01*
X111506000Y-60172885D01*
X112014000Y-60172885D01*
X112018475Y-60188124D01*
X112019865Y-60189329D01*
X112027548Y-60191000D01*
X113149884Y-60191000D01*
X113165123Y-60186525D01*
X113166328Y-60185135D01*
X113167999Y-60177452D01*
X113167999Y-59500331D01*
X113167629Y-59493510D01*
X113162105Y-59442648D01*
X113158479Y-59427396D01*
X113113324Y-59306946D01*
X113104786Y-59291351D01*
X113028285Y-59189276D01*
X113015724Y-59176715D01*
X112913649Y-59100214D01*
X112898054Y-59091676D01*
X112777606Y-59046522D01*
X112762351Y-59042895D01*
X112711486Y-59037369D01*
X112704672Y-59037000D01*
X112032115Y-59037000D01*
X112016876Y-59041475D01*
X112015671Y-59042865D01*
X112014000Y-59050548D01*
X112014000Y-60172885D01*
X111506000Y-60172885D01*
X111506000Y-59055116D01*
X111501525Y-59039877D01*
X111500135Y-59038672D01*
X111492452Y-59037001D01*
X110815331Y-59037001D01*
X110808510Y-59037371D01*
X110757648Y-59042895D01*
X110742396Y-59046521D01*
X110621946Y-59091676D01*
X110606351Y-59100214D01*
X110504276Y-59176715D01*
X110491715Y-59189276D01*
X110415214Y-59291351D01*
X110406676Y-59306946D01*
X110361522Y-59427394D01*
X110357895Y-59442649D01*
X110352369Y-59493514D01*
X110352000Y-59500328D01*
X110352000Y-59651918D01*
X110331998Y-59720039D01*
X110278342Y-59766532D01*
X110208068Y-59776636D01*
X110143488Y-59747142D01*
X110125042Y-59727307D01*
X110085089Y-59673803D01*
X110085088Y-59673802D01*
X110081636Y-59669179D01*
X110057524Y-59646890D01*
X109930066Y-59529069D01*
X109930063Y-59529067D01*
X109925826Y-59525150D01*
X109746377Y-59411926D01*
X109549300Y-59333300D01*
X109543643Y-59332175D01*
X109543637Y-59332173D01*
X109346863Y-59293033D01*
X109346859Y-59293033D01*
X109341195Y-59291906D01*
X109335420Y-59291830D01*
X109335416Y-59291830D01*
X109228804Y-59290434D01*
X109129031Y-59289128D01*
X109123334Y-59290107D01*
X109123333Y-59290107D01*
X109106305Y-59293033D01*
X108919913Y-59325061D01*
X108720846Y-59398501D01*
X108715885Y-59401453D01*
X108715884Y-59401453D01*
X108543463Y-59504032D01*
X108543460Y-59504034D01*
X108538495Y-59506988D01*
X108534155Y-59510794D01*
X108534151Y-59510797D01*
X108383309Y-59643083D01*
X108378968Y-59646890D01*
X108247607Y-59813520D01*
X108148812Y-60001299D01*
X108085891Y-60203938D01*
X108060951Y-60414649D01*
X105934499Y-60414649D01*
X105934499Y-56121162D01*
X105954501Y-56053041D01*
X105971404Y-56032067D01*
X106327233Y-55676238D01*
X106389545Y-55642212D01*
X106443383Y-55642272D01*
X106446612Y-55642982D01*
X106452466Y-55644884D01*
X106657809Y-55669370D01*
X106663944Y-55668898D01*
X106663946Y-55668898D01*
X106857856Y-55653977D01*
X106857860Y-55653976D01*
X106863998Y-55653504D01*
X107063178Y-55597892D01*
X107068682Y-55595112D01*
X107068684Y-55595111D01*
X107242262Y-55507431D01*
X107242264Y-55507430D01*
X107247763Y-55504652D01*
X107410722Y-55377334D01*
X107414748Y-55372670D01*
X107414751Y-55372667D01*
X107541819Y-55225457D01*
X107541820Y-55225455D01*
X107545848Y-55220789D01*
X107647995Y-55040979D01*
X107680632Y-54942866D01*
X107711325Y-54850601D01*
X107711326Y-54850598D01*
X107713270Y-54844753D01*
X107739189Y-54639586D01*
X107739602Y-54610000D01*
X107738151Y-54595206D01*
X113240501Y-54595206D01*
X113257806Y-54801278D01*
X113314807Y-55000066D01*
X113317625Y-55005548D01*
X113317626Y-55005552D01*
X113406514Y-55178509D01*
X113406517Y-55178513D01*
X113409334Y-55183995D01*
X113537786Y-55346061D01*
X113542479Y-55350055D01*
X113542480Y-55350056D01*
X113685593Y-55471854D01*
X113695271Y-55480091D01*
X113875789Y-55580980D01*
X114072466Y-55644884D01*
X114277809Y-55669370D01*
X114283944Y-55668898D01*
X114283946Y-55668898D01*
X114477856Y-55653977D01*
X114477860Y-55653976D01*
X114483998Y-55653504D01*
X114683178Y-55597892D01*
X114688682Y-55595112D01*
X114688684Y-55595111D01*
X114862262Y-55507431D01*
X114862264Y-55507430D01*
X114867763Y-55504652D01*
X115030722Y-55377334D01*
X115034748Y-55372670D01*
X115034751Y-55372667D01*
X115161819Y-55225457D01*
X115161820Y-55225455D01*
X115165848Y-55220789D01*
X115267995Y-55040979D01*
X115300632Y-54942866D01*
X115331325Y-54850601D01*
X115331326Y-54850598D01*
X115333270Y-54844753D01*
X115359189Y-54639586D01*
X115359602Y-54610000D01*
X115339422Y-54404189D01*
X115279651Y-54206217D01*
X115182565Y-54023625D01*
X115178674Y-54018855D01*
X115178672Y-54018851D01*
X115055758Y-53868143D01*
X115055755Y-53868140D01*
X115051863Y-53863368D01*
X115044966Y-53857662D01*
X114897271Y-53735478D01*
X114897266Y-53735475D01*
X114892522Y-53731550D01*
X114887103Y-53728620D01*
X114887100Y-53728618D01*
X114716032Y-53636122D01*
X114716027Y-53636120D01*
X114710612Y-53633192D01*
X114513063Y-53572040D01*
X114506938Y-53571396D01*
X114506937Y-53571396D01*
X114313526Y-53551068D01*
X114313524Y-53551068D01*
X114307397Y-53550424D01*
X114181229Y-53561906D01*
X114107591Y-53568607D01*
X114107590Y-53568607D01*
X114101450Y-53569166D01*
X113903066Y-53627554D01*
X113897601Y-53630411D01*
X113725261Y-53720508D01*
X113725257Y-53720511D01*
X113719801Y-53723363D01*
X113558635Y-53852943D01*
X113425708Y-54011360D01*
X113326082Y-54192578D01*
X113263553Y-54389696D01*
X113240501Y-54595206D01*
X107738151Y-54595206D01*
X107719422Y-54404189D01*
X107659651Y-54206217D01*
X107562565Y-54023625D01*
X107558674Y-54018855D01*
X107558672Y-54018851D01*
X107435758Y-53868143D01*
X107435755Y-53868140D01*
X107431863Y-53863368D01*
X107424966Y-53857662D01*
X107277271Y-53735478D01*
X107277266Y-53735475D01*
X107272522Y-53731550D01*
X107267103Y-53728620D01*
X107267100Y-53728618D01*
X107096032Y-53636122D01*
X107096027Y-53636120D01*
X107090612Y-53633192D01*
X106893063Y-53572040D01*
X106886938Y-53571396D01*
X106886937Y-53571396D01*
X106693526Y-53551068D01*
X106693524Y-53551068D01*
X106687397Y-53550424D01*
X106561229Y-53561906D01*
X106487591Y-53568607D01*
X106487590Y-53568607D01*
X106481450Y-53569166D01*
X106283066Y-53627554D01*
X106277601Y-53630411D01*
X106105261Y-53720508D01*
X106105257Y-53720511D01*
X106099801Y-53723363D01*
X105938635Y-53852943D01*
X105805708Y-54011360D01*
X105706082Y-54192578D01*
X105643553Y-54389696D01*
X105620501Y-54595206D01*
X105637806Y-54801278D01*
X105639505Y-54807203D01*
X105639506Y-54807206D01*
X105647977Y-54836748D01*
X105647528Y-54907743D01*
X105615954Y-54960575D01*
X105123205Y-55453324D01*
X105113765Y-55460866D01*
X105114088Y-55461246D01*
X105107252Y-55467064D01*
X105099660Y-55471854D01*
X105093718Y-55478582D01*
X105064328Y-55511860D01*
X105058982Y-55517547D01*
X105047648Y-55528881D01*
X105044963Y-55532464D01*
X105044961Y-55532466D01*
X105041446Y-55537156D01*
X105035061Y-55544999D01*
X105003998Y-55580171D01*
X105000185Y-55588293D01*
X104998345Y-55591094D01*
X104989936Y-55605089D01*
X104988314Y-55608052D01*
X104982929Y-55615237D01*
X104979776Y-55623647D01*
X104979775Y-55623649D01*
X104966453Y-55659183D01*
X104962529Y-55668496D01*
X104942582Y-55710983D01*
X104941200Y-55719857D01*
X104940214Y-55723084D01*
X104936074Y-55738867D01*
X104935353Y-55742145D01*
X104932201Y-55750553D01*
X104931536Y-55759504D01*
X104928723Y-55797358D01*
X104927569Y-55807405D01*
X104925499Y-55820698D01*
X104925499Y-55836063D01*
X104925153Y-55845400D01*
X104921492Y-55894668D01*
X104923365Y-55903443D01*
X104923958Y-55912139D01*
X104925499Y-55926739D01*
X104925499Y-74244375D01*
X104924158Y-74256380D01*
X104924654Y-74256420D01*
X104923934Y-74265367D01*
X104921953Y-74274123D01*
X104922509Y-74283083D01*
X104925257Y-74327381D01*
X104925499Y-74335183D01*
X104925499Y-74351225D01*
X104926134Y-74355656D01*
X104926134Y-74355661D01*
X104926964Y-74361452D01*
X104927995Y-74371513D01*
X104930901Y-74418358D01*
X104933948Y-74426798D01*
X104934629Y-74430088D01*
X104938581Y-74445937D01*
X104939526Y-74449167D01*
X104940798Y-74458051D01*
X104944513Y-74466222D01*
X104960217Y-74500762D01*
X104964029Y-74510127D01*
X104976921Y-74545836D01*
X104976923Y-74545839D01*
X104979971Y-74554283D01*
X104985267Y-74561532D01*
X104986839Y-74564489D01*
X104995092Y-74578613D01*
X104996897Y-74581436D01*
X105000611Y-74589604D01*
X105006468Y-74596401D01*
X105006469Y-74596403D01*
X105031242Y-74625152D01*
X105037524Y-74633063D01*
X105045472Y-74643943D01*
X105056334Y-74654805D01*
X105062692Y-74661651D01*
X105094943Y-74699081D01*
X105102478Y-74703965D01*
X105109050Y-74709698D01*
X105120454Y-74718925D01*
X109694595Y-79293066D01*
X109728621Y-79355378D01*
X109731500Y-79382161D01*
X109731500Y-92067840D01*
X109711498Y-92135961D01*
X109694595Y-92156935D01*
X106373206Y-95478323D01*
X106363766Y-95485865D01*
X106364089Y-95486245D01*
X106357253Y-95492063D01*
X106349661Y-95496853D01*
X106343719Y-95503581D01*
X106314329Y-95536859D01*
X106308983Y-95542546D01*
X106297649Y-95553880D01*
X106294964Y-95557463D01*
X106294962Y-95557465D01*
X106291447Y-95562155D01*
X106285062Y-95569998D01*
X106253999Y-95605170D01*
X106250186Y-95613292D01*
X106248346Y-95616093D01*
X106239937Y-95630088D01*
X106238315Y-95633051D01*
X106232930Y-95640236D01*
X106229777Y-95648646D01*
X106229776Y-95648648D01*
X106216454Y-95684182D01*
X106212530Y-95693495D01*
X106192583Y-95735982D01*
X106191201Y-95744856D01*
X106190215Y-95748083D01*
X106186075Y-95763866D01*
X106185354Y-95767144D01*
X106182202Y-95775552D01*
X106181537Y-95784503D01*
X106178724Y-95822357D01*
X106177570Y-95832404D01*
X106175500Y-95845697D01*
X106175500Y-95861062D01*
X106175154Y-95870399D01*
X106171493Y-95919667D01*
X106173366Y-95928442D01*
X106173959Y-95937138D01*
X106175500Y-95951738D01*
X106175500Y-97368214D01*
X106155498Y-97436335D01*
X106113923Y-97476499D01*
X106032978Y-97524656D01*
X106032977Y-97524657D01*
X106028010Y-97527612D01*
X106023670Y-97531418D01*
X106023666Y-97531421D01*
X106003723Y-97548911D01*
X105875392Y-97661455D01*
X105749720Y-97820869D01*
X105747031Y-97825980D01*
X105747029Y-97825983D01*
X105734073Y-97850609D01*
X105655203Y-98000515D01*
X105595007Y-98194378D01*
X105571148Y-98395964D01*
X105584424Y-98598522D01*
X105585845Y-98604118D01*
X105585846Y-98604123D01*
X105627738Y-98769069D01*
X105634392Y-98795269D01*
X105636809Y-98800512D01*
X105674010Y-98881208D01*
X105719377Y-98979616D01*
X105836533Y-99145389D01*
X105981938Y-99287035D01*
X105986742Y-99290245D01*
X106040980Y-99326486D01*
X106150720Y-99399812D01*
X106156023Y-99402090D01*
X106156026Y-99402092D01*
X106244707Y-99440192D01*
X106337228Y-99479942D01*
X106410877Y-99496607D01*
X106472903Y-99531150D01*
X106506408Y-99593743D01*
X106500754Y-99664514D01*
X106457735Y-99720994D01*
X106391011Y-99745249D01*
X106383069Y-99745500D01*
X102537476Y-99745500D01*
X102512897Y-99743079D01*
X102500000Y-99740514D01*
X102487828Y-99742935D01*
X102475420Y-99742935D01*
X102475420Y-99742615D01*
X102464544Y-99743355D01*
X102236943Y-99729588D01*
X102221839Y-99727754D01*
X101970115Y-99681624D01*
X101955342Y-99677983D01*
X101887838Y-99656948D01*
X101711004Y-99601844D01*
X101696786Y-99596451D01*
X101463414Y-99491420D01*
X101449943Y-99484350D01*
X101444761Y-99481217D01*
X101394435Y-99450794D01*
X101230931Y-99351951D01*
X101218410Y-99343308D01*
X101016957Y-99185481D01*
X101005568Y-99175391D01*
X100824609Y-98994432D01*
X100814519Y-98983043D01*
X100794736Y-98957791D01*
X100671516Y-98800512D01*
X100656692Y-98781590D01*
X100648049Y-98769069D01*
X100515650Y-98550057D01*
X100508579Y-98536584D01*
X100484487Y-98483053D01*
X100403549Y-98303214D01*
X100398154Y-98288991D01*
X100368672Y-98194378D01*
X100322017Y-98044658D01*
X100318376Y-98029885D01*
X100272246Y-97778161D01*
X100270412Y-97763057D01*
X100256645Y-97535456D01*
X100257385Y-97524580D01*
X100257065Y-97524580D01*
X100257065Y-97512172D01*
X100259486Y-97500000D01*
X100256921Y-97487103D01*
X100254500Y-97462524D01*
X100254500Y-94253751D01*
X100274502Y-94185630D01*
X100328158Y-94139137D01*
X100398432Y-94129033D01*
X100463012Y-94158527D01*
X100501396Y-94218253D01*
X100504450Y-94231114D01*
X100553516Y-94499772D01*
X100643353Y-94769048D01*
X100645346Y-94773036D01*
X100728954Y-94940361D01*
X100770236Y-95022980D01*
X100931631Y-95256500D01*
X101124320Y-95464950D01*
X101127774Y-95467762D01*
X101341001Y-95641356D01*
X101341005Y-95641359D01*
X101344458Y-95644170D01*
X101587652Y-95790585D01*
X101591747Y-95792319D01*
X101591749Y-95792320D01*
X101776140Y-95870399D01*
X101849049Y-95901272D01*
X101853342Y-95902410D01*
X101853347Y-95902412D01*
X101996898Y-95940473D01*
X102123435Y-95974024D01*
X102405334Y-96007389D01*
X102689122Y-96000701D01*
X102693517Y-95999969D01*
X102693522Y-95999969D01*
X102964734Y-95954827D01*
X102964738Y-95954826D01*
X102969136Y-95954094D01*
X103233776Y-95870399D01*
X103235544Y-95869840D01*
X103235546Y-95869839D01*
X103239790Y-95868497D01*
X103243801Y-95866571D01*
X103243806Y-95866569D01*
X103491665Y-95747549D01*
X103491666Y-95747548D01*
X103495684Y-95745619D01*
X103651724Y-95641356D01*
X103728002Y-95590389D01*
X103728006Y-95590386D01*
X103731710Y-95587911D01*
X103735027Y-95584940D01*
X103735031Y-95584937D01*
X103939845Y-95401490D01*
X103943161Y-95398520D01*
X104125817Y-95181225D01*
X104128174Y-95177446D01*
X104273669Y-94944152D01*
X104273671Y-94944149D01*
X104276033Y-94940361D01*
X104390813Y-94680734D01*
X104467866Y-94407525D01*
X104493288Y-94218253D01*
X104505227Y-94129367D01*
X104505228Y-94129359D01*
X104505654Y-94126185D01*
X104509620Y-94000000D01*
X104489571Y-93716842D01*
X104429825Y-93439334D01*
X104331574Y-93173013D01*
X104196778Y-92923192D01*
X104028127Y-92694856D01*
X103993933Y-92660120D01*
X103832117Y-92495743D01*
X103828986Y-92492562D01*
X103696759Y-92391650D01*
X103606872Y-92323050D01*
X103606868Y-92323047D01*
X103603327Y-92320345D01*
X103355655Y-92181641D01*
X103351506Y-92180036D01*
X103351502Y-92180034D01*
X103191830Y-92118262D01*
X103090909Y-92079219D01*
X103086588Y-92078217D01*
X103086580Y-92078215D01*
X102904110Y-92035922D01*
X102814374Y-92015122D01*
X102709398Y-92006030D01*
X102643257Y-91980225D01*
X102601567Y-91922757D01*
X102597565Y-91851874D01*
X102632520Y-91790079D01*
X102695336Y-91756992D01*
X102720270Y-91754500D01*
X107212524Y-91754500D01*
X107237103Y-91756921D01*
X107250000Y-91759486D01*
X107260312Y-91757435D01*
X107264541Y-91757065D01*
X107265552Y-91757065D01*
X107267150Y-91756837D01*
X107425096Y-91743018D01*
X107430409Y-91741594D01*
X107430411Y-91741594D01*
X107589562Y-91698950D01*
X107589564Y-91698949D01*
X107594872Y-91697527D01*
X107666721Y-91664023D01*
X107749188Y-91625568D01*
X107749191Y-91625566D01*
X107754169Y-91623245D01*
X107898147Y-91522431D01*
X108022431Y-91398147D01*
X108123245Y-91254169D01*
X108127288Y-91245500D01*
X108195204Y-91099854D01*
X108195205Y-91099852D01*
X108197527Y-91094872D01*
X108243018Y-90925096D01*
X108256837Y-90767150D01*
X108257065Y-90765552D01*
X108257065Y-90764541D01*
X108257435Y-90760312D01*
X108259486Y-90750000D01*
X108256921Y-90737103D01*
X108254500Y-90712524D01*
X108254500Y-80287476D01*
X108256921Y-80262894D01*
X108257065Y-80262170D01*
X108259486Y-80250000D01*
X108257435Y-80239688D01*
X108257065Y-80235459D01*
X108257065Y-80234448D01*
X108256836Y-80232845D01*
X108243018Y-80074904D01*
X108197527Y-79905128D01*
X108123245Y-79745832D01*
X108083921Y-79689670D01*
X108025584Y-79606356D01*
X108022431Y-79601853D01*
X107898147Y-79477569D01*
X107754169Y-79376755D01*
X107749191Y-79374434D01*
X107749188Y-79374432D01*
X107599854Y-79304796D01*
X107599852Y-79304795D01*
X107594872Y-79302473D01*
X107589564Y-79301051D01*
X107589562Y-79301050D01*
X107430411Y-79258406D01*
X107430409Y-79258406D01*
X107425096Y-79256982D01*
X107267150Y-79243163D01*
X107265552Y-79242935D01*
X107264541Y-79242935D01*
X107260312Y-79242565D01*
X107250000Y-79240514D01*
X107237103Y-79243079D01*
X107212524Y-79245500D01*
X106537476Y-79245500D01*
X106512897Y-79243079D01*
X106500000Y-79240514D01*
X106487828Y-79242935D01*
X106475420Y-79242935D01*
X106475420Y-79242615D01*
X106464544Y-79243355D01*
X106236943Y-79229588D01*
X106221839Y-79227754D01*
X105970115Y-79181624D01*
X105955342Y-79177983D01*
X105874902Y-79152917D01*
X105711004Y-79101844D01*
X105696786Y-79096451D01*
X105463414Y-78991420D01*
X105449943Y-78984350D01*
X105230931Y-78851951D01*
X105218410Y-78843308D01*
X105016957Y-78685481D01*
X105005568Y-78675391D01*
X104824609Y-78494432D01*
X104814519Y-78483043D01*
X104656692Y-78281590D01*
X104648049Y-78269069D01*
X104515650Y-78050057D01*
X104508579Y-78036584D01*
X104403550Y-77803218D01*
X104398154Y-77788991D01*
X104322017Y-77544658D01*
X104318376Y-77529885D01*
X104272246Y-77278161D01*
X104270412Y-77263057D01*
X104256645Y-77035456D01*
X104257385Y-77024580D01*
X104257065Y-77024580D01*
X104257065Y-77012172D01*
X104259486Y-77000000D01*
X104256921Y-76987103D01*
X104254500Y-76962524D01*
X104254500Y-50769649D01*
X108060951Y-50769649D01*
X108074829Y-50981377D01*
X108127058Y-51187031D01*
X108215890Y-51379723D01*
X108338350Y-51553000D01*
X108490337Y-51701059D01*
X108495133Y-51704264D01*
X108495136Y-51704266D01*
X108637186Y-51799180D01*
X108666760Y-51818941D01*
X108672063Y-51821219D01*
X108672066Y-51821221D01*
X108753908Y-51856383D01*
X108861711Y-51902699D01*
X108937750Y-51919905D01*
X109063025Y-51948252D01*
X109063030Y-51948253D01*
X109068662Y-51949527D01*
X109074433Y-51949754D01*
X109074435Y-51949754D01*
X109139911Y-51952326D01*
X109280681Y-51957857D01*
X109385674Y-51942634D01*
X109484953Y-51928239D01*
X109484958Y-51928238D01*
X109490667Y-51927410D01*
X109496131Y-51925555D01*
X109496136Y-51925554D01*
X109589240Y-51893949D01*
X109691589Y-51859207D01*
X109765873Y-51817606D01*
X109871670Y-51758357D01*
X109871674Y-51758354D01*
X109876717Y-51755530D01*
X110039852Y-51619852D01*
X110129128Y-51512509D01*
X110188065Y-51472927D01*
X110259047Y-51471491D01*
X110319537Y-51508658D01*
X110350330Y-51572629D01*
X110352001Y-51593080D01*
X110352001Y-51744669D01*
X110352371Y-51751490D01*
X110357895Y-51802352D01*
X110361521Y-51817604D01*
X110406676Y-51938054D01*
X110415214Y-51953649D01*
X110491715Y-52055724D01*
X110504276Y-52068285D01*
X110606351Y-52144786D01*
X110621946Y-52153324D01*
X110742394Y-52198478D01*
X110757649Y-52202105D01*
X110808514Y-52207631D01*
X110815328Y-52208000D01*
X111487885Y-52208000D01*
X111503124Y-52203525D01*
X111504329Y-52202135D01*
X111506000Y-52194452D01*
X111506000Y-52189884D01*
X112014000Y-52189884D01*
X112018475Y-52205123D01*
X112019865Y-52206328D01*
X112027548Y-52207999D01*
X112704669Y-52207999D01*
X112711490Y-52207629D01*
X112762352Y-52202105D01*
X112777604Y-52198479D01*
X112898054Y-52153324D01*
X112913649Y-52144786D01*
X113015724Y-52068285D01*
X113028285Y-52055724D01*
X113104786Y-51953649D01*
X113113324Y-51938054D01*
X113158478Y-51817606D01*
X113162105Y-51802351D01*
X113167631Y-51751486D01*
X113168000Y-51744672D01*
X113168000Y-51072115D01*
X113163525Y-51056876D01*
X113162135Y-51055671D01*
X113154452Y-51054000D01*
X112032115Y-51054000D01*
X112016876Y-51058475D01*
X112015671Y-51059865D01*
X112014000Y-51067548D01*
X112014000Y-52189884D01*
X111506000Y-52189884D01*
X111506000Y-50527885D01*
X112014000Y-50527885D01*
X112018475Y-50543124D01*
X112019865Y-50544329D01*
X112027548Y-50546000D01*
X113149884Y-50546000D01*
X113165123Y-50541525D01*
X113166328Y-50540135D01*
X113167999Y-50532452D01*
X113167999Y-49855331D01*
X113167629Y-49848510D01*
X113162105Y-49797648D01*
X113158479Y-49782396D01*
X113113324Y-49661946D01*
X113104786Y-49646351D01*
X113028285Y-49544276D01*
X113015724Y-49531715D01*
X112913649Y-49455214D01*
X112898054Y-49446676D01*
X112777606Y-49401522D01*
X112762351Y-49397895D01*
X112711486Y-49392369D01*
X112704672Y-49392000D01*
X112032115Y-49392000D01*
X112016876Y-49396475D01*
X112015671Y-49397865D01*
X112014000Y-49405548D01*
X112014000Y-50527885D01*
X111506000Y-50527885D01*
X111506000Y-49410116D01*
X111501525Y-49394877D01*
X111500135Y-49393672D01*
X111492452Y-49392001D01*
X110815331Y-49392001D01*
X110808510Y-49392371D01*
X110757648Y-49397895D01*
X110742396Y-49401521D01*
X110621946Y-49446676D01*
X110606351Y-49455214D01*
X110504276Y-49531715D01*
X110491715Y-49544276D01*
X110415214Y-49646351D01*
X110406676Y-49661946D01*
X110361522Y-49782394D01*
X110357895Y-49797649D01*
X110352369Y-49848514D01*
X110352000Y-49855328D01*
X110352000Y-50006918D01*
X110331998Y-50075039D01*
X110278342Y-50121532D01*
X110208068Y-50131636D01*
X110143488Y-50102142D01*
X110125042Y-50082307D01*
X110085089Y-50028803D01*
X110085088Y-50028802D01*
X110081636Y-50024179D01*
X110057524Y-50001890D01*
X109930066Y-49884069D01*
X109930063Y-49884067D01*
X109925826Y-49880150D01*
X109746377Y-49766926D01*
X109549300Y-49688300D01*
X109543643Y-49687175D01*
X109543637Y-49687173D01*
X109346863Y-49648033D01*
X109346859Y-49648033D01*
X109341195Y-49646906D01*
X109335420Y-49646830D01*
X109335416Y-49646830D01*
X109228804Y-49645434D01*
X109129031Y-49644128D01*
X109123334Y-49645107D01*
X109123333Y-49645107D01*
X109106305Y-49648033D01*
X108919913Y-49680061D01*
X108720846Y-49753501D01*
X108715885Y-49756453D01*
X108715884Y-49756453D01*
X108543463Y-49859032D01*
X108543460Y-49859034D01*
X108538495Y-49861988D01*
X108534155Y-49865794D01*
X108534151Y-49865797D01*
X108383309Y-49998083D01*
X108378968Y-50001890D01*
X108247607Y-50168520D01*
X108148812Y-50356299D01*
X108085891Y-50558938D01*
X108060951Y-50769649D01*
X104254500Y-50769649D01*
X104254500Y-47037476D01*
X104256921Y-47012894D01*
X104257065Y-47012170D01*
X104259486Y-47000000D01*
X104257065Y-46987828D01*
X104257065Y-46975420D01*
X104257385Y-46975420D01*
X104256645Y-46964544D01*
X104270412Y-46736943D01*
X104272246Y-46721839D01*
X104318376Y-46470115D01*
X104322017Y-46455342D01*
X104398154Y-46211009D01*
X104403550Y-46196782D01*
X104508579Y-45963416D01*
X104515650Y-45949943D01*
X104648049Y-45730931D01*
X104656692Y-45718410D01*
X104814519Y-45516957D01*
X104824609Y-45505568D01*
X105005568Y-45324609D01*
X105016957Y-45314519D01*
X105218410Y-45156692D01*
X105230931Y-45148049D01*
X105449943Y-45015650D01*
X105463416Y-45008579D01*
X105696786Y-44903549D01*
X105711004Y-44898156D01*
X105955342Y-44822017D01*
X105970115Y-44818376D01*
X106221839Y-44772246D01*
X106236943Y-44770412D01*
X106464544Y-44756645D01*
X106475420Y-44757385D01*
X106475420Y-44757065D01*
X106487828Y-44757065D01*
X106500000Y-44759486D01*
X106512897Y-44756921D01*
X106537476Y-44754500D01*
X114462524Y-44754500D01*
X114487103Y-44756921D01*
G37*
G04 #@! TD.AperFunction*
M02*
