G04 #@! TF.GenerationSoftware,KiCad,Pcbnew,6.0.5-a6ca702e91~116~ubuntu20.04.1*
G04 #@! TF.CreationDate,2022-06-20T08:29:12+02:00*
G04 #@! TF.ProjectId,traffic_lights_vehicle,74726166-6669-4635-9f6c-69676874735f,1.0*
G04 #@! TF.SameCoordinates,Original*
G04 #@! TF.FileFunction,Copper,L1,Top*
G04 #@! TF.FilePolarity,Positive*
%FSLAX46Y46*%
G04 Gerber Fmt 4.6, Leading zero omitted, Abs format (unit mm)*
G04 Created by KiCad (PCBNEW 6.0.5-a6ca702e91~116~ubuntu20.04.1) date 2022-06-20 08:29:12*
%MOMM*%
%LPD*%
G01*
G04 APERTURE LIST*
G04 #@! TA.AperFunction,ComponentPad*
%ADD10R,1.800000X1.800000*%
G04 #@! TD*
G04 #@! TA.AperFunction,ComponentPad*
%ADD11C,1.800000*%
G04 #@! TD*
G04 #@! TA.AperFunction,ComponentPad*
%ADD12R,1.700000X1.700000*%
G04 #@! TD*
G04 #@! TA.AperFunction,ComponentPad*
%ADD13O,1.700000X1.700000*%
G04 #@! TD*
G04 #@! TA.AperFunction,ComponentPad*
%ADD14C,1.600000*%
G04 #@! TD*
G04 #@! TA.AperFunction,ComponentPad*
%ADD15O,1.600000X1.600000*%
G04 #@! TD*
G04 #@! TA.AperFunction,ViaPad*
%ADD16C,3.500000*%
G04 #@! TD*
G04 #@! TA.AperFunction,Conductor*
%ADD17C,0.500000*%
G04 #@! TD*
G04 #@! TA.AperFunction,Conductor*
%ADD18C,0.250000*%
G04 #@! TD*
G04 APERTURE END LIST*
D10*
X111760000Y-50800000D03*
D11*
X109220000Y-50800000D03*
D10*
X111760000Y-60445000D03*
D11*
X109220000Y-60445000D03*
D10*
X111760000Y-69215000D03*
D11*
X109220000Y-69215000D03*
D12*
X114300000Y-98425000D03*
D13*
X111760000Y-98425000D03*
X109220000Y-98425000D03*
X106680000Y-98425000D03*
D14*
X114300000Y-54610000D03*
D15*
X106680000Y-54610000D03*
D14*
X106680000Y-64135000D03*
D15*
X114300000Y-64135000D03*
D14*
X114300000Y-73025000D03*
D15*
X106680000Y-73025000D03*
D16*
X118500000Y-94000000D03*
X102500000Y-94000000D03*
D17*
X111757208Y-54610000D02*
X109220000Y-52072792D01*
X114300000Y-54610000D02*
X111757208Y-54610000D01*
X109220000Y-52072792D02*
X109220000Y-50800000D01*
D18*
X111760000Y-54610000D02*
X109220000Y-52070000D01*
D17*
X109220000Y-60445000D02*
X109220000Y-61976000D01*
X109220000Y-61976000D02*
X111379000Y-64135000D01*
X111379000Y-64135000D02*
X114300000Y-64135000D01*
X109855000Y-78561814D02*
X105429999Y-74136813D01*
X109220000Y-94682919D02*
X109855000Y-94047919D01*
X109855000Y-94047919D02*
X109855000Y-78561814D01*
D18*
X105410000Y-74295000D02*
X105410000Y-65405000D01*
X105411410Y-74295000D02*
X105410000Y-74295000D01*
D17*
X105429999Y-74136813D02*
X105429999Y-65385001D01*
X109220000Y-95250000D02*
X109220000Y-94682919D01*
X105429999Y-65385001D02*
X106680000Y-64135000D01*
X109220000Y-98425000D02*
X109220000Y-95250000D01*
X111760000Y-73025000D02*
X114300000Y-73025000D01*
X109220000Y-69215000D02*
X109220000Y-70612000D01*
X109220000Y-70612000D02*
X111633000Y-73025000D01*
X111633000Y-73025000D02*
X111760000Y-73025000D01*
X111760000Y-94682919D02*
X110744000Y-93666919D01*
X110744000Y-78359000D02*
X106680000Y-74295000D01*
X111760000Y-98425000D02*
X111760000Y-95250000D01*
X110744000Y-93666919D02*
X110744000Y-78359000D01*
X106680000Y-74295000D02*
X106680000Y-73025000D01*
X111760000Y-95250000D02*
X111760000Y-94682919D01*
X115550001Y-53190001D02*
X113160000Y-50800000D01*
X113160000Y-60445000D02*
X115550001Y-58054999D01*
X113160000Y-69215000D02*
X115550001Y-66824999D01*
X115550001Y-71605001D02*
X113160000Y-69215000D01*
D18*
X115425001Y-62960001D02*
X115425001Y-66699999D01*
X115425001Y-66699999D02*
X112910000Y-69215000D01*
D17*
X111760000Y-69215000D02*
X113160000Y-69215000D01*
X115550001Y-62835001D02*
X113160000Y-60445000D01*
D18*
X112910000Y-69215000D02*
X111760000Y-69215000D01*
D17*
X111760000Y-60445000D02*
X113160000Y-60445000D01*
X111760000Y-78740000D02*
X115550001Y-74949999D01*
D18*
X112910000Y-69215000D02*
X115570000Y-71875000D01*
D17*
X111760000Y-91995000D02*
X111760000Y-78740000D01*
D18*
X112910000Y-50800000D02*
X111760000Y-50800000D01*
X115570000Y-71875000D02*
X115570000Y-74930000D01*
D17*
X114300000Y-98425000D02*
X114300000Y-95250000D01*
X115550001Y-74949999D02*
X115550001Y-71605001D01*
X115550001Y-58054999D02*
X115550001Y-53190001D01*
X114300000Y-95250000D02*
X114300000Y-94535000D01*
X114300000Y-94535000D02*
X111760000Y-91995000D01*
X115550001Y-66824999D02*
X115550001Y-62835001D01*
X113160000Y-50800000D02*
X111760000Y-50800000D01*
G04 #@! TA.AperFunction,Conductor*
G36*
X114487103Y-44756921D02*
G01*
X114500000Y-44759486D01*
X114512172Y-44757065D01*
X114524580Y-44757065D01*
X114524580Y-44757385D01*
X114535456Y-44756645D01*
X114763057Y-44770412D01*
X114778161Y-44772246D01*
X115029885Y-44818376D01*
X115044658Y-44822017D01*
X115288996Y-44898156D01*
X115303214Y-44903549D01*
X115536584Y-45008579D01*
X115550057Y-45015650D01*
X115769069Y-45148049D01*
X115781590Y-45156692D01*
X115983043Y-45314519D01*
X115994432Y-45324609D01*
X116175391Y-45505568D01*
X116185481Y-45516957D01*
X116343308Y-45718410D01*
X116351951Y-45730931D01*
X116484350Y-45949943D01*
X116491421Y-45963416D01*
X116596450Y-46196782D01*
X116601846Y-46211009D01*
X116677983Y-46455342D01*
X116681624Y-46470115D01*
X116727754Y-46721839D01*
X116729588Y-46736943D01*
X116743355Y-46964544D01*
X116742615Y-46975420D01*
X116742935Y-46975420D01*
X116742935Y-46987828D01*
X116740514Y-47000000D01*
X116742935Y-47012170D01*
X116743079Y-47012894D01*
X116745500Y-47037476D01*
X116745500Y-76962524D01*
X116743079Y-76987103D01*
X116740514Y-77000000D01*
X116742935Y-77012172D01*
X116742935Y-77024580D01*
X116742615Y-77024580D01*
X116743355Y-77035456D01*
X116729588Y-77263057D01*
X116727754Y-77278161D01*
X116681624Y-77529885D01*
X116677983Y-77544658D01*
X116601846Y-77788991D01*
X116596451Y-77803214D01*
X116491421Y-78036584D01*
X116484350Y-78050057D01*
X116351951Y-78269069D01*
X116343308Y-78281590D01*
X116185481Y-78483043D01*
X116175391Y-78494432D01*
X115994432Y-78675391D01*
X115983043Y-78685481D01*
X115781590Y-78843308D01*
X115769069Y-78851951D01*
X115550057Y-78984350D01*
X115536586Y-78991420D01*
X115303214Y-79096451D01*
X115288996Y-79101844D01*
X115112162Y-79156948D01*
X115044658Y-79177983D01*
X115029885Y-79181624D01*
X114778161Y-79227754D01*
X114763057Y-79229588D01*
X114535456Y-79243355D01*
X114524580Y-79242615D01*
X114524580Y-79242935D01*
X114512172Y-79242935D01*
X114500000Y-79240514D01*
X114487103Y-79243079D01*
X114462524Y-79245500D01*
X113787476Y-79245500D01*
X113762897Y-79243079D01*
X113750000Y-79240514D01*
X113739688Y-79242565D01*
X113735459Y-79242935D01*
X113734448Y-79242935D01*
X113732850Y-79243163D01*
X113574904Y-79256982D01*
X113569591Y-79258406D01*
X113569589Y-79258406D01*
X113522900Y-79270916D01*
X113405128Y-79302473D01*
X113245832Y-79376755D01*
X113241330Y-79379907D01*
X113241327Y-79379909D01*
X113241326Y-79379910D01*
X113101853Y-79477569D01*
X112977569Y-79601853D01*
X112974416Y-79606356D01*
X112916080Y-79689670D01*
X112876755Y-79745832D01*
X112802473Y-79905128D01*
X112756982Y-80074904D01*
X112743164Y-80232845D01*
X112742935Y-80234448D01*
X112742935Y-80235459D01*
X112742565Y-80239688D01*
X112740514Y-80250000D01*
X112742935Y-80262170D01*
X112743079Y-80262894D01*
X112745500Y-80287476D01*
X112745500Y-90712524D01*
X112743079Y-90737103D01*
X112740514Y-90750000D01*
X112742565Y-90760312D01*
X112742935Y-90764541D01*
X112742935Y-90765552D01*
X112743163Y-90767150D01*
X112756982Y-90925096D01*
X112802473Y-91094872D01*
X112804795Y-91099852D01*
X112804796Y-91099854D01*
X112872713Y-91245500D01*
X112876755Y-91254169D01*
X112977569Y-91398147D01*
X113101853Y-91522431D01*
X113106356Y-91525584D01*
X113241327Y-91620091D01*
X113241330Y-91620093D01*
X113245832Y-91623245D01*
X113405128Y-91697527D01*
X113522900Y-91729084D01*
X113569589Y-91741594D01*
X113569591Y-91741594D01*
X113574904Y-91743018D01*
X113732850Y-91756837D01*
X113734448Y-91757065D01*
X113735459Y-91757065D01*
X113739688Y-91757435D01*
X113750000Y-91759486D01*
X113762897Y-91756921D01*
X113787476Y-91754500D01*
X118240540Y-91754500D01*
X118308661Y-91774502D01*
X118355154Y-91828158D01*
X118365258Y-91898432D01*
X118335764Y-91963012D01*
X118276038Y-92001396D01*
X118256334Y-92005506D01*
X118252568Y-92005982D01*
X118248128Y-92006226D01*
X118243768Y-92007093D01*
X118243762Y-92007094D01*
X118107296Y-92034239D01*
X117969715Y-92061606D01*
X117965505Y-92063084D01*
X117965503Y-92063085D01*
X117914996Y-92080822D01*
X117701884Y-92155662D01*
X117697933Y-92157715D01*
X117697927Y-92157717D01*
X117453926Y-92284465D01*
X117449976Y-92286517D01*
X117446361Y-92289100D01*
X117446355Y-92289104D01*
X117404214Y-92319219D01*
X117219020Y-92451561D01*
X117013623Y-92647501D01*
X117010867Y-92650997D01*
X117010866Y-92650998D01*
X116976291Y-92694856D01*
X116837882Y-92870426D01*
X116835645Y-92874278D01*
X116697540Y-93112042D01*
X116697537Y-93112048D01*
X116695306Y-93115889D01*
X116693636Y-93120012D01*
X116590411Y-93374861D01*
X116590408Y-93374869D01*
X116588738Y-93378993D01*
X116520305Y-93654488D01*
X116491372Y-93936876D01*
X116493852Y-94000000D01*
X116500743Y-94175386D01*
X116502516Y-94220524D01*
X116553516Y-94499772D01*
X116593719Y-94620276D01*
X116628256Y-94723795D01*
X116643353Y-94769048D01*
X116686294Y-94854986D01*
X116728954Y-94940361D01*
X116770236Y-95022980D01*
X116931631Y-95256500D01*
X117124320Y-95464950D01*
X117127774Y-95467762D01*
X117341001Y-95641356D01*
X117341005Y-95641359D01*
X117344458Y-95644170D01*
X117587652Y-95790585D01*
X117591747Y-95792319D01*
X117591749Y-95792320D01*
X117774820Y-95869840D01*
X117849049Y-95901272D01*
X117853342Y-95902410D01*
X117853347Y-95902412D01*
X117996898Y-95940473D01*
X118123435Y-95974024D01*
X118405334Y-96007389D01*
X118689122Y-96000701D01*
X118693517Y-95999969D01*
X118693522Y-95999969D01*
X118964734Y-95954827D01*
X118964738Y-95954826D01*
X118969136Y-95954094D01*
X119146887Y-95897878D01*
X119235544Y-95869840D01*
X119235546Y-95869839D01*
X119239790Y-95868497D01*
X119243801Y-95866571D01*
X119243806Y-95866569D01*
X119491665Y-95747549D01*
X119491666Y-95747548D01*
X119495684Y-95745619D01*
X119651724Y-95641356D01*
X119728002Y-95590389D01*
X119728006Y-95590386D01*
X119731710Y-95587911D01*
X119735027Y-95584940D01*
X119735031Y-95584937D01*
X119939845Y-95401490D01*
X119943161Y-95398520D01*
X120125817Y-95181225D01*
X120128174Y-95177446D01*
X120273669Y-94944152D01*
X120273671Y-94944149D01*
X120276033Y-94940361D01*
X120286230Y-94917297D01*
X120313777Y-94854985D01*
X120390813Y-94680734D01*
X120399151Y-94651172D01*
X120424360Y-94561785D01*
X120467866Y-94407525D01*
X120494621Y-94208328D01*
X120523514Y-94143476D01*
X120582881Y-94104540D01*
X120653874Y-94103881D01*
X120713954Y-94141708D01*
X120744046Y-94206012D01*
X120745500Y-94225101D01*
X120745500Y-97462524D01*
X120743079Y-97487103D01*
X120740514Y-97500000D01*
X120742935Y-97512172D01*
X120742935Y-97524580D01*
X120742615Y-97524580D01*
X120743355Y-97535456D01*
X120729588Y-97763057D01*
X120727754Y-97778161D01*
X120681624Y-98029885D01*
X120677983Y-98044658D01*
X120631329Y-98194378D01*
X120601846Y-98288991D01*
X120596451Y-98303214D01*
X120515513Y-98483053D01*
X120491421Y-98536584D01*
X120484350Y-98550057D01*
X120351951Y-98769069D01*
X120343308Y-98781590D01*
X120328484Y-98800512D01*
X120205265Y-98957791D01*
X120185481Y-98983043D01*
X120175391Y-98994432D01*
X119994432Y-99175391D01*
X119983043Y-99185481D01*
X119781590Y-99343308D01*
X119769069Y-99351951D01*
X119605565Y-99450794D01*
X119555240Y-99481217D01*
X119550057Y-99484350D01*
X119536586Y-99491420D01*
X119303214Y-99596451D01*
X119288996Y-99601844D01*
X119112162Y-99656948D01*
X119044658Y-99677983D01*
X119029885Y-99681624D01*
X118778161Y-99727754D01*
X118763057Y-99729588D01*
X118535456Y-99743355D01*
X118524580Y-99742615D01*
X118524580Y-99742935D01*
X118512172Y-99742935D01*
X118500000Y-99740514D01*
X118487103Y-99743079D01*
X118462524Y-99745500D01*
X115684156Y-99745500D01*
X115616035Y-99725498D01*
X115569542Y-99671842D01*
X115559438Y-99601568D01*
X115583329Y-99543937D01*
X115594784Y-99528652D01*
X115603324Y-99513054D01*
X115648478Y-99392606D01*
X115652105Y-99377351D01*
X115657631Y-99326486D01*
X115658000Y-99319672D01*
X115658000Y-98697115D01*
X115653525Y-98681876D01*
X115652135Y-98680671D01*
X115644452Y-98679000D01*
X114172000Y-98679000D01*
X114103879Y-98658998D01*
X114057386Y-98605342D01*
X114046000Y-98553000D01*
X114046000Y-98152885D01*
X114554000Y-98152885D01*
X114558475Y-98168124D01*
X114559865Y-98169329D01*
X114567548Y-98171000D01*
X115639884Y-98171000D01*
X115655123Y-98166525D01*
X115656328Y-98165135D01*
X115657999Y-98157452D01*
X115657999Y-97530331D01*
X115657629Y-97523510D01*
X115652105Y-97472648D01*
X115648479Y-97457396D01*
X115603324Y-97336946D01*
X115594786Y-97321351D01*
X115518285Y-97219276D01*
X115505724Y-97206715D01*
X115403649Y-97130214D01*
X115388054Y-97121676D01*
X115267606Y-97076522D01*
X115252351Y-97072895D01*
X115201486Y-97067369D01*
X115194672Y-97067000D01*
X114572115Y-97067000D01*
X114556876Y-97071475D01*
X114555671Y-97072865D01*
X114554000Y-97080548D01*
X114554000Y-98152885D01*
X114046000Y-98152885D01*
X114046000Y-97085116D01*
X114041525Y-97069877D01*
X114040135Y-97068672D01*
X114032452Y-97067001D01*
X113405331Y-97067001D01*
X113398510Y-97067371D01*
X113347648Y-97072895D01*
X113332396Y-97076521D01*
X113211946Y-97121676D01*
X113196351Y-97130214D01*
X113094276Y-97206715D01*
X113081715Y-97219276D01*
X113005214Y-97321351D01*
X112996676Y-97336946D01*
X112951522Y-97457394D01*
X112947895Y-97472649D01*
X112942369Y-97523514D01*
X112942000Y-97530328D01*
X112942000Y-97785160D01*
X112921998Y-97853281D01*
X112868342Y-97899774D01*
X112798068Y-97909878D01*
X112733488Y-97880384D01*
X112708567Y-97850994D01*
X112708331Y-97850608D01*
X112705776Y-97845428D01*
X112584320Y-97682779D01*
X112435258Y-97544987D01*
X112430375Y-97541906D01*
X112430371Y-97541903D01*
X112323265Y-97474325D01*
X112276326Y-97421058D01*
X112264500Y-97367763D01*
X112264500Y-94753543D01*
X112265841Y-94741538D01*
X112265345Y-94741498D01*
X112266065Y-94732551D01*
X112268046Y-94723795D01*
X112264742Y-94670538D01*
X112264500Y-94662736D01*
X112264500Y-94646693D01*
X112263371Y-94638805D01*
X112263034Y-94636455D01*
X112262004Y-94626400D01*
X112259654Y-94588520D01*
X112259654Y-94588518D01*
X112259098Y-94579561D01*
X112256051Y-94571120D01*
X112255372Y-94567842D01*
X112251416Y-94551974D01*
X112250473Y-94548750D01*
X112249201Y-94539867D01*
X112245487Y-94531698D01*
X112245485Y-94531692D01*
X112229775Y-94497140D01*
X112225961Y-94487771D01*
X112223914Y-94482101D01*
X112210028Y-94443635D01*
X112204731Y-94436385D01*
X112203154Y-94433418D01*
X112194907Y-94419305D01*
X112193102Y-94416482D01*
X112189388Y-94408314D01*
X112179090Y-94396362D01*
X112164162Y-94379038D01*
X112158753Y-94372761D01*
X112152475Y-94364855D01*
X112144527Y-94353975D01*
X112133665Y-94343113D01*
X112127307Y-94336266D01*
X112100915Y-94305637D01*
X112095056Y-94298837D01*
X112087521Y-94293953D01*
X112080949Y-94288220D01*
X112069545Y-94278993D01*
X111285405Y-93494853D01*
X111251379Y-93432541D01*
X111248500Y-93405758D01*
X111248500Y-78429624D01*
X111249841Y-78417619D01*
X111249345Y-78417579D01*
X111250065Y-78408632D01*
X111252046Y-78399876D01*
X111248742Y-78346619D01*
X111248500Y-78338817D01*
X111248500Y-78322774D01*
X111247034Y-78312536D01*
X111246004Y-78302481D01*
X111243654Y-78264601D01*
X111243654Y-78264599D01*
X111243098Y-78255642D01*
X111240051Y-78247201D01*
X111239372Y-78243923D01*
X111235416Y-78228055D01*
X111234473Y-78224831D01*
X111233201Y-78215948D01*
X111229487Y-78207779D01*
X111229485Y-78207773D01*
X111213775Y-78173221D01*
X111209961Y-78163852D01*
X111197077Y-78128163D01*
X111194028Y-78119716D01*
X111188731Y-78112466D01*
X111187154Y-78109499D01*
X111178907Y-78095386D01*
X111177102Y-78092563D01*
X111173388Y-78084395D01*
X111142753Y-78048842D01*
X111136475Y-78040936D01*
X111128527Y-78030056D01*
X111117665Y-78019194D01*
X111111307Y-78012347D01*
X111084915Y-77981718D01*
X111079056Y-77974918D01*
X111071521Y-77970034D01*
X111064949Y-77964301D01*
X111053545Y-77955074D01*
X107221405Y-74122934D01*
X107187379Y-74060622D01*
X107184500Y-74033839D01*
X107184500Y-74028357D01*
X107204502Y-73960236D01*
X107242794Y-73922162D01*
X107247763Y-73919652D01*
X107252615Y-73915861D01*
X107252620Y-73915858D01*
X107329242Y-73855993D01*
X107410722Y-73792334D01*
X107414748Y-73787670D01*
X107414751Y-73787667D01*
X107541819Y-73640457D01*
X107541820Y-73640455D01*
X107545848Y-73635789D01*
X107603953Y-73533507D01*
X107644950Y-73461340D01*
X107644952Y-73461336D01*
X107647995Y-73455979D01*
X107686273Y-73340911D01*
X107711325Y-73265601D01*
X107711326Y-73265598D01*
X107713270Y-73259753D01*
X107739189Y-73054586D01*
X107739602Y-73025000D01*
X107719422Y-72819189D01*
X107659651Y-72621217D01*
X107606099Y-72520500D01*
X107565459Y-72444067D01*
X107565457Y-72444064D01*
X107562565Y-72438625D01*
X107558674Y-72433855D01*
X107558672Y-72433851D01*
X107435758Y-72283143D01*
X107435755Y-72283140D01*
X107431863Y-72278368D01*
X107427114Y-72274439D01*
X107277271Y-72150478D01*
X107277266Y-72150475D01*
X107272522Y-72146550D01*
X107267103Y-72143620D01*
X107267100Y-72143618D01*
X107096032Y-72051122D01*
X107096027Y-72051120D01*
X107090612Y-72048192D01*
X106893063Y-71987040D01*
X106886938Y-71986396D01*
X106886937Y-71986396D01*
X106693526Y-71966068D01*
X106693524Y-71966068D01*
X106687397Y-71965424D01*
X106561229Y-71976906D01*
X106487591Y-71983607D01*
X106487590Y-71983607D01*
X106481450Y-71984166D01*
X106283066Y-72042554D01*
X106118873Y-72128392D01*
X106049239Y-72142226D01*
X105983178Y-72116216D01*
X105941666Y-72058620D01*
X105934499Y-72016730D01*
X105934499Y-69184649D01*
X108060951Y-69184649D01*
X108074829Y-69396377D01*
X108127058Y-69602031D01*
X108215890Y-69794723D01*
X108338350Y-69968000D01*
X108490337Y-70116059D01*
X108495133Y-70119264D01*
X108495136Y-70119266D01*
X108565806Y-70166486D01*
X108659503Y-70229092D01*
X108705030Y-70283568D01*
X108715500Y-70333856D01*
X108715500Y-70541376D01*
X108714159Y-70553381D01*
X108714655Y-70553421D01*
X108713935Y-70562368D01*
X108711954Y-70571124D01*
X108712510Y-70580084D01*
X108715258Y-70624382D01*
X108715500Y-70632184D01*
X108715500Y-70648226D01*
X108716135Y-70652657D01*
X108716135Y-70652662D01*
X108716965Y-70658453D01*
X108717996Y-70668514D01*
X108720902Y-70715359D01*
X108723949Y-70723799D01*
X108724630Y-70727089D01*
X108728582Y-70742938D01*
X108729527Y-70746168D01*
X108730799Y-70755052D01*
X108734514Y-70763223D01*
X108750218Y-70797763D01*
X108754030Y-70807128D01*
X108766922Y-70842837D01*
X108766924Y-70842840D01*
X108769972Y-70851284D01*
X108775268Y-70858533D01*
X108776840Y-70861490D01*
X108785093Y-70875614D01*
X108786898Y-70878437D01*
X108790612Y-70886605D01*
X108796469Y-70893402D01*
X108796470Y-70893404D01*
X108821243Y-70922153D01*
X108827525Y-70930064D01*
X108835473Y-70940944D01*
X108846335Y-70951806D01*
X108852693Y-70958652D01*
X108884944Y-70996082D01*
X108892479Y-71000966D01*
X108899051Y-71006699D01*
X108910455Y-71015926D01*
X111226323Y-73331794D01*
X111233865Y-73341234D01*
X111234245Y-73340911D01*
X111240063Y-73347747D01*
X111244853Y-73355339D01*
X111251581Y-73361281D01*
X111284859Y-73390671D01*
X111290546Y-73396017D01*
X111301880Y-73407351D01*
X111305466Y-73410038D01*
X111305471Y-73410043D01*
X111310159Y-73413557D01*
X111317997Y-73419938D01*
X111353170Y-73451001D01*
X111361293Y-73454815D01*
X111364104Y-73456661D01*
X111378103Y-73465072D01*
X111381052Y-73466686D01*
X111388235Y-73472070D01*
X111425023Y-73485861D01*
X111432174Y-73488542D01*
X111441494Y-73492469D01*
X111483982Y-73512417D01*
X111492853Y-73513798D01*
X111496075Y-73514783D01*
X111511846Y-73518920D01*
X111515140Y-73519644D01*
X111523552Y-73522798D01*
X111532510Y-73523464D01*
X111532511Y-73523464D01*
X111570350Y-73526276D01*
X111580374Y-73527426D01*
X111593697Y-73529500D01*
X111609062Y-73529500D01*
X111618399Y-73529846D01*
X111667666Y-73533507D01*
X111676441Y-73531634D01*
X111685137Y-73531041D01*
X111699737Y-73529500D01*
X113296708Y-73529500D01*
X113364829Y-73549502D01*
X113401223Y-73589594D01*
X113403179Y-73588334D01*
X113406516Y-73593512D01*
X113409334Y-73598995D01*
X113413163Y-73603826D01*
X113438497Y-73635789D01*
X113537786Y-73761061D01*
X113695271Y-73895091D01*
X113875789Y-73995980D01*
X114072466Y-74059884D01*
X114277809Y-74084370D01*
X114283944Y-74083898D01*
X114283946Y-74083898D01*
X114477856Y-74068977D01*
X114477860Y-74068976D01*
X114483998Y-74068504D01*
X114683178Y-74012892D01*
X114688682Y-74010112D01*
X114688684Y-74010111D01*
X114862262Y-73922431D01*
X114862264Y-73922430D01*
X114867763Y-73919652D01*
X115030722Y-73792334D01*
X115034748Y-73787670D01*
X115034751Y-73787667D01*
X115161819Y-73640457D01*
X115161820Y-73640455D01*
X115165848Y-73635789D01*
X115223953Y-73533507D01*
X115264950Y-73461340D01*
X115264952Y-73461336D01*
X115267995Y-73455979D01*
X115306273Y-73340911D01*
X115331325Y-73265601D01*
X115331326Y-73265598D01*
X115333270Y-73259753D01*
X115359189Y-73054586D01*
X115359602Y-73025000D01*
X115339422Y-72819189D01*
X115279651Y-72621217D01*
X115226099Y-72520500D01*
X115185459Y-72444067D01*
X115185457Y-72444064D01*
X115182565Y-72438625D01*
X115178674Y-72433855D01*
X115178672Y-72433851D01*
X115055758Y-72283143D01*
X115055755Y-72283140D01*
X115051863Y-72278368D01*
X115047114Y-72274439D01*
X114897271Y-72150478D01*
X114897266Y-72150475D01*
X114892522Y-72146550D01*
X114887103Y-72143620D01*
X114887100Y-72143618D01*
X114716032Y-72051122D01*
X114716027Y-72051120D01*
X114710612Y-72048192D01*
X114513063Y-71987040D01*
X114506938Y-71986396D01*
X114506937Y-71986396D01*
X114313526Y-71966068D01*
X114313524Y-71966068D01*
X114307397Y-71965424D01*
X114181229Y-71976906D01*
X114107591Y-71983607D01*
X114107590Y-71983607D01*
X114101450Y-71984166D01*
X113903066Y-72042554D01*
X113897601Y-72045411D01*
X113725261Y-72135508D01*
X113725257Y-72135511D01*
X113719801Y-72138363D01*
X113558635Y-72267943D01*
X113425708Y-72426360D01*
X113422744Y-72431752D01*
X113422741Y-72431756D01*
X113409851Y-72455203D01*
X113359505Y-72505260D01*
X113299437Y-72520500D01*
X111894161Y-72520500D01*
X111826040Y-72500498D01*
X111805066Y-72483595D01*
X109761405Y-70439934D01*
X109727379Y-70377622D01*
X109724500Y-70350839D01*
X109724500Y-70329625D01*
X109744502Y-70261504D01*
X109788934Y-70219691D01*
X109871670Y-70173357D01*
X109871674Y-70173354D01*
X109876717Y-70170530D01*
X110039852Y-70034852D01*
X110129128Y-69927509D01*
X110188065Y-69887927D01*
X110259047Y-69886491D01*
X110319537Y-69923658D01*
X110350330Y-69987629D01*
X110352001Y-70008080D01*
X110352001Y-70159669D01*
X110352371Y-70166490D01*
X110357895Y-70217352D01*
X110361521Y-70232604D01*
X110406676Y-70353054D01*
X110415214Y-70368649D01*
X110491715Y-70470724D01*
X110504276Y-70483285D01*
X110606351Y-70559786D01*
X110621946Y-70568324D01*
X110742394Y-70613478D01*
X110757649Y-70617105D01*
X110808514Y-70622631D01*
X110815328Y-70623000D01*
X111487885Y-70623000D01*
X111503124Y-70618525D01*
X111504329Y-70617135D01*
X111506000Y-70609452D01*
X111506000Y-70604884D01*
X112014000Y-70604884D01*
X112018475Y-70620123D01*
X112019865Y-70621328D01*
X112027548Y-70622999D01*
X112704669Y-70622999D01*
X112711490Y-70622629D01*
X112762352Y-70617105D01*
X112777604Y-70613479D01*
X112898054Y-70568324D01*
X112913649Y-70559786D01*
X113015724Y-70483285D01*
X113028285Y-70470724D01*
X113104786Y-70368649D01*
X113113324Y-70353054D01*
X113158478Y-70232606D01*
X113162105Y-70217351D01*
X113167631Y-70166486D01*
X113168000Y-70159672D01*
X113168000Y-69487115D01*
X113163525Y-69471876D01*
X113162135Y-69470671D01*
X113154452Y-69469000D01*
X112032115Y-69469000D01*
X112016876Y-69473475D01*
X112015671Y-69474865D01*
X112014000Y-69482548D01*
X112014000Y-70604884D01*
X111506000Y-70604884D01*
X111506000Y-68942885D01*
X112014000Y-68942885D01*
X112018475Y-68958124D01*
X112019865Y-68959329D01*
X112027548Y-68961000D01*
X113149884Y-68961000D01*
X113165123Y-68956525D01*
X113166328Y-68955135D01*
X113167999Y-68947452D01*
X113167999Y-68270331D01*
X113167629Y-68263510D01*
X113162105Y-68212648D01*
X113158479Y-68197396D01*
X113113324Y-68076946D01*
X113104786Y-68061351D01*
X113028285Y-67959276D01*
X113015724Y-67946715D01*
X112913649Y-67870214D01*
X112898054Y-67861676D01*
X112777606Y-67816522D01*
X112762351Y-67812895D01*
X112711486Y-67807369D01*
X112704672Y-67807000D01*
X112032115Y-67807000D01*
X112016876Y-67811475D01*
X112015671Y-67812865D01*
X112014000Y-67820548D01*
X112014000Y-68942885D01*
X111506000Y-68942885D01*
X111506000Y-67825116D01*
X111501525Y-67809877D01*
X111500135Y-67808672D01*
X111492452Y-67807001D01*
X110815331Y-67807001D01*
X110808510Y-67807371D01*
X110757648Y-67812895D01*
X110742396Y-67816521D01*
X110621946Y-67861676D01*
X110606351Y-67870214D01*
X110504276Y-67946715D01*
X110491715Y-67959276D01*
X110415214Y-68061351D01*
X110406676Y-68076946D01*
X110361522Y-68197394D01*
X110357895Y-68212649D01*
X110352369Y-68263514D01*
X110352000Y-68270328D01*
X110352000Y-68421918D01*
X110331998Y-68490039D01*
X110278342Y-68536532D01*
X110208068Y-68546636D01*
X110143488Y-68517142D01*
X110125042Y-68497307D01*
X110085089Y-68443803D01*
X110085088Y-68443802D01*
X110081636Y-68439179D01*
X110057524Y-68416890D01*
X109930066Y-68299069D01*
X109930063Y-68299067D01*
X109925826Y-68295150D01*
X109746377Y-68181926D01*
X109549300Y-68103300D01*
X109543643Y-68102175D01*
X109543637Y-68102173D01*
X109346863Y-68063033D01*
X109346859Y-68063033D01*
X109341195Y-68061906D01*
X109335420Y-68061830D01*
X109335416Y-68061830D01*
X109228804Y-68060434D01*
X109129031Y-68059128D01*
X109123334Y-68060107D01*
X109123333Y-68060107D01*
X109106305Y-68063033D01*
X108919913Y-68095061D01*
X108720846Y-68168501D01*
X108715885Y-68171453D01*
X108715884Y-68171453D01*
X108543463Y-68274032D01*
X108543460Y-68274034D01*
X108538495Y-68276988D01*
X108534155Y-68280794D01*
X108534151Y-68280797D01*
X108383309Y-68413083D01*
X108378968Y-68416890D01*
X108247607Y-68583520D01*
X108148812Y-68771299D01*
X108085891Y-68973938D01*
X108060951Y-69184649D01*
X105934499Y-69184649D01*
X105934499Y-65646162D01*
X105954501Y-65578041D01*
X105971404Y-65557067D01*
X106327233Y-65201238D01*
X106389545Y-65167212D01*
X106443383Y-65167272D01*
X106446612Y-65167982D01*
X106452466Y-65169884D01*
X106657809Y-65194370D01*
X106663944Y-65193898D01*
X106663946Y-65193898D01*
X106857856Y-65178977D01*
X106857860Y-65178976D01*
X106863998Y-65178504D01*
X107063178Y-65122892D01*
X107068682Y-65120112D01*
X107068684Y-65120111D01*
X107242262Y-65032431D01*
X107242264Y-65032430D01*
X107247763Y-65029652D01*
X107410722Y-64902334D01*
X107414748Y-64897670D01*
X107414751Y-64897667D01*
X107541819Y-64750457D01*
X107541820Y-64750455D01*
X107545848Y-64745789D01*
X107603953Y-64643507D01*
X107644950Y-64571340D01*
X107644952Y-64571336D01*
X107647995Y-64565979D01*
X107686273Y-64450911D01*
X107711325Y-64375601D01*
X107711326Y-64375598D01*
X107713270Y-64369753D01*
X107739189Y-64164586D01*
X107739602Y-64135000D01*
X107719422Y-63929189D01*
X107659651Y-63731217D01*
X107606099Y-63630500D01*
X107565459Y-63554067D01*
X107565457Y-63554064D01*
X107562565Y-63548625D01*
X107558674Y-63543855D01*
X107558672Y-63543851D01*
X107435758Y-63393143D01*
X107435755Y-63393140D01*
X107431863Y-63388368D01*
X107424966Y-63382662D01*
X107277271Y-63260478D01*
X107277266Y-63260475D01*
X107272522Y-63256550D01*
X107267103Y-63253620D01*
X107267100Y-63253618D01*
X107096032Y-63161122D01*
X107096027Y-63161120D01*
X107090612Y-63158192D01*
X106893063Y-63097040D01*
X106886938Y-63096396D01*
X106886937Y-63096396D01*
X106693526Y-63076068D01*
X106693524Y-63076068D01*
X106687397Y-63075424D01*
X106561229Y-63086906D01*
X106487591Y-63093607D01*
X106487590Y-63093607D01*
X106481450Y-63094166D01*
X106283066Y-63152554D01*
X106277601Y-63155411D01*
X106105261Y-63245508D01*
X106105257Y-63245511D01*
X106099801Y-63248363D01*
X105938635Y-63377943D01*
X105805708Y-63536360D01*
X105706082Y-63717578D01*
X105643553Y-63914696D01*
X105620501Y-64120206D01*
X105637806Y-64326278D01*
X105639506Y-64332206D01*
X105647977Y-64361748D01*
X105647528Y-64432743D01*
X105615954Y-64485575D01*
X105123205Y-64978324D01*
X105113765Y-64985866D01*
X105114088Y-64986246D01*
X105107252Y-64992064D01*
X105099660Y-64996854D01*
X105093718Y-65003582D01*
X105064328Y-65036860D01*
X105058982Y-65042547D01*
X105047648Y-65053881D01*
X105044963Y-65057464D01*
X105044961Y-65057466D01*
X105041446Y-65062156D01*
X105035061Y-65069999D01*
X105003998Y-65105171D01*
X105000185Y-65113293D01*
X104998345Y-65116094D01*
X104989936Y-65130089D01*
X104988314Y-65133052D01*
X104982929Y-65140237D01*
X104979776Y-65148647D01*
X104979775Y-65148649D01*
X104966453Y-65184183D01*
X104962529Y-65193496D01*
X104942582Y-65235983D01*
X104941200Y-65244857D01*
X104940214Y-65248084D01*
X104936074Y-65263867D01*
X104935353Y-65267145D01*
X104932201Y-65275553D01*
X104931536Y-65284504D01*
X104928723Y-65322358D01*
X104927569Y-65332405D01*
X104925499Y-65345698D01*
X104925499Y-65361063D01*
X104925153Y-65370400D01*
X104921492Y-65419668D01*
X104923365Y-65428443D01*
X104923958Y-65437139D01*
X104925499Y-65451739D01*
X104925499Y-74066189D01*
X104924158Y-74078194D01*
X104924654Y-74078234D01*
X104923934Y-74087181D01*
X104921953Y-74095937D01*
X104922509Y-74104897D01*
X104925257Y-74149195D01*
X104925499Y-74156997D01*
X104925499Y-74173039D01*
X104926134Y-74177470D01*
X104926134Y-74177475D01*
X104926964Y-74183266D01*
X104927995Y-74193327D01*
X104930901Y-74240172D01*
X104933948Y-74248612D01*
X104934629Y-74251902D01*
X104938581Y-74267751D01*
X104939526Y-74270981D01*
X104940798Y-74279865D01*
X104944513Y-74288036D01*
X104960217Y-74322576D01*
X104964029Y-74331941D01*
X104976921Y-74367650D01*
X104976923Y-74367653D01*
X104979971Y-74376097D01*
X104985267Y-74383346D01*
X104986839Y-74386303D01*
X104995092Y-74400427D01*
X104996897Y-74403250D01*
X105000611Y-74411418D01*
X105006468Y-74418215D01*
X105006469Y-74418217D01*
X105031242Y-74446966D01*
X105037524Y-74454877D01*
X105045472Y-74465757D01*
X105056334Y-74476619D01*
X105062692Y-74483466D01*
X105089084Y-74514096D01*
X105089086Y-74514098D01*
X105094943Y-74520895D01*
X105100773Y-74524674D01*
X105105218Y-74529383D01*
X105105990Y-74530814D01*
X105110531Y-74535011D01*
X105115461Y-74540234D01*
X105116560Y-74541651D01*
X105119778Y-74545188D01*
X105125429Y-74553940D01*
X105153663Y-74576197D01*
X105158460Y-74579979D01*
X105169550Y-74589835D01*
X109313595Y-78733880D01*
X109347621Y-78796192D01*
X109350500Y-78822975D01*
X109350500Y-93786758D01*
X109330498Y-93854879D01*
X109313595Y-93875853D01*
X108913206Y-94276242D01*
X108903766Y-94283784D01*
X108904089Y-94284164D01*
X108897253Y-94289982D01*
X108889661Y-94294772D01*
X108883719Y-94301500D01*
X108854329Y-94334778D01*
X108848983Y-94340465D01*
X108837649Y-94351799D01*
X108834964Y-94355382D01*
X108834962Y-94355384D01*
X108831447Y-94360074D01*
X108825062Y-94367917D01*
X108793999Y-94403089D01*
X108790186Y-94411211D01*
X108788346Y-94414012D01*
X108779937Y-94428007D01*
X108778315Y-94430970D01*
X108772930Y-94438155D01*
X108769777Y-94446565D01*
X108769776Y-94446567D01*
X108756454Y-94482101D01*
X108752530Y-94491414D01*
X108732583Y-94533901D01*
X108731201Y-94542775D01*
X108730215Y-94546002D01*
X108726075Y-94561785D01*
X108725354Y-94565063D01*
X108722202Y-94573471D01*
X108721537Y-94582422D01*
X108718724Y-94620276D01*
X108717570Y-94630323D01*
X108715500Y-94643616D01*
X108715500Y-94658981D01*
X108715154Y-94668318D01*
X108711493Y-94717586D01*
X108713366Y-94726361D01*
X108713959Y-94735057D01*
X108715500Y-94749657D01*
X108715500Y-97368214D01*
X108695498Y-97436335D01*
X108653923Y-97476499D01*
X108572978Y-97524656D01*
X108572977Y-97524657D01*
X108568010Y-97527612D01*
X108563670Y-97531418D01*
X108563666Y-97531421D01*
X108543723Y-97548911D01*
X108415392Y-97661455D01*
X108289720Y-97820869D01*
X108287031Y-97825980D01*
X108287029Y-97825983D01*
X108274073Y-97850609D01*
X108195203Y-98000515D01*
X108135007Y-98194378D01*
X108111148Y-98395964D01*
X108124424Y-98598522D01*
X108125845Y-98604118D01*
X108125846Y-98604123D01*
X108167738Y-98769069D01*
X108174392Y-98795269D01*
X108176809Y-98800512D01*
X108214010Y-98881208D01*
X108259377Y-98979616D01*
X108376533Y-99145389D01*
X108521938Y-99287035D01*
X108526742Y-99290245D01*
X108580980Y-99326486D01*
X108690720Y-99399812D01*
X108696023Y-99402090D01*
X108696026Y-99402092D01*
X108784707Y-99440192D01*
X108877228Y-99479942D01*
X108950877Y-99496607D01*
X109012903Y-99531150D01*
X109046408Y-99593743D01*
X109040754Y-99664514D01*
X108997735Y-99720994D01*
X108931011Y-99745249D01*
X108923069Y-99745500D01*
X106989453Y-99745500D01*
X106921332Y-99725498D01*
X106874839Y-99671842D01*
X106864735Y-99601568D01*
X106894229Y-99536988D01*
X106948952Y-99500187D01*
X106959499Y-99496607D01*
X106983994Y-99488292D01*
X107125693Y-99440192D01*
X107125698Y-99440190D01*
X107131165Y-99438334D01*
X107308276Y-99339147D01*
X107323495Y-99326490D01*
X107459913Y-99213031D01*
X107464345Y-99209345D01*
X107594147Y-99053276D01*
X107693334Y-98876165D01*
X107695190Y-98870698D01*
X107695192Y-98870693D01*
X107756728Y-98689414D01*
X107756729Y-98689409D01*
X107758584Y-98683945D01*
X107759412Y-98678236D01*
X107759413Y-98678231D01*
X107787179Y-98486727D01*
X107787712Y-98483053D01*
X107789232Y-98425000D01*
X107770658Y-98222859D01*
X107769090Y-98217299D01*
X107717125Y-98033046D01*
X107717124Y-98033044D01*
X107715557Y-98027487D01*
X107704978Y-98006033D01*
X107628331Y-97850609D01*
X107625776Y-97845428D01*
X107504320Y-97682779D01*
X107355258Y-97544987D01*
X107350375Y-97541906D01*
X107350371Y-97541903D01*
X107204728Y-97450010D01*
X107183581Y-97436667D01*
X106995039Y-97361446D01*
X106989379Y-97360320D01*
X106989375Y-97360319D01*
X106801613Y-97322971D01*
X106801610Y-97322971D01*
X106795946Y-97321844D01*
X106790171Y-97321768D01*
X106790167Y-97321768D01*
X106688793Y-97320441D01*
X106592971Y-97319187D01*
X106587274Y-97320166D01*
X106587273Y-97320166D01*
X106489620Y-97336946D01*
X106392910Y-97353564D01*
X106202463Y-97423824D01*
X106028010Y-97527612D01*
X106023670Y-97531418D01*
X106023666Y-97531421D01*
X106003723Y-97548911D01*
X105875392Y-97661455D01*
X105749720Y-97820869D01*
X105747031Y-97825980D01*
X105747029Y-97825983D01*
X105734073Y-97850609D01*
X105655203Y-98000515D01*
X105595007Y-98194378D01*
X105571148Y-98395964D01*
X105584424Y-98598522D01*
X105585845Y-98604118D01*
X105585846Y-98604123D01*
X105627738Y-98769069D01*
X105634392Y-98795269D01*
X105636809Y-98800512D01*
X105674010Y-98881208D01*
X105719377Y-98979616D01*
X105836533Y-99145389D01*
X105981938Y-99287035D01*
X105986742Y-99290245D01*
X106040980Y-99326486D01*
X106150720Y-99399812D01*
X106156023Y-99402090D01*
X106156026Y-99402092D01*
X106244707Y-99440192D01*
X106337228Y-99479942D01*
X106410877Y-99496607D01*
X106472903Y-99531150D01*
X106506408Y-99593743D01*
X106500754Y-99664514D01*
X106457735Y-99720994D01*
X106391011Y-99745249D01*
X106383069Y-99745500D01*
X102537476Y-99745500D01*
X102512897Y-99743079D01*
X102500000Y-99740514D01*
X102487828Y-99742935D01*
X102475420Y-99742935D01*
X102475420Y-99742615D01*
X102464544Y-99743355D01*
X102236943Y-99729588D01*
X102221839Y-99727754D01*
X101970115Y-99681624D01*
X101955342Y-99677983D01*
X101887838Y-99656948D01*
X101711004Y-99601844D01*
X101696786Y-99596451D01*
X101463414Y-99491420D01*
X101449943Y-99484350D01*
X101444761Y-99481217D01*
X101394435Y-99450794D01*
X101230931Y-99351951D01*
X101218410Y-99343308D01*
X101016957Y-99185481D01*
X101005568Y-99175391D01*
X100824609Y-98994432D01*
X100814519Y-98983043D01*
X100794736Y-98957791D01*
X100671516Y-98800512D01*
X100656692Y-98781590D01*
X100648049Y-98769069D01*
X100515650Y-98550057D01*
X100508579Y-98536584D01*
X100484487Y-98483053D01*
X100403549Y-98303214D01*
X100398154Y-98288991D01*
X100368672Y-98194378D01*
X100322017Y-98044658D01*
X100318376Y-98029885D01*
X100272246Y-97778161D01*
X100270412Y-97763057D01*
X100256645Y-97535456D01*
X100257385Y-97524580D01*
X100257065Y-97524580D01*
X100257065Y-97512172D01*
X100259486Y-97500000D01*
X100256921Y-97487103D01*
X100254500Y-97462524D01*
X100254500Y-94253751D01*
X100274502Y-94185630D01*
X100328158Y-94139137D01*
X100398432Y-94129033D01*
X100463012Y-94158527D01*
X100501396Y-94218253D01*
X100504450Y-94231114D01*
X100553516Y-94499772D01*
X100593719Y-94620276D01*
X100628256Y-94723795D01*
X100643353Y-94769048D01*
X100686294Y-94854986D01*
X100728954Y-94940361D01*
X100770236Y-95022980D01*
X100931631Y-95256500D01*
X101124320Y-95464950D01*
X101127774Y-95467762D01*
X101341001Y-95641356D01*
X101341005Y-95641359D01*
X101344458Y-95644170D01*
X101587652Y-95790585D01*
X101591747Y-95792319D01*
X101591749Y-95792320D01*
X101774820Y-95869840D01*
X101849049Y-95901272D01*
X101853342Y-95902410D01*
X101853347Y-95902412D01*
X101996898Y-95940473D01*
X102123435Y-95974024D01*
X102405334Y-96007389D01*
X102689122Y-96000701D01*
X102693517Y-95999969D01*
X102693522Y-95999969D01*
X102964734Y-95954827D01*
X102964738Y-95954826D01*
X102969136Y-95954094D01*
X103146887Y-95897878D01*
X103235544Y-95869840D01*
X103235546Y-95869839D01*
X103239790Y-95868497D01*
X103243801Y-95866571D01*
X103243806Y-95866569D01*
X103491665Y-95747549D01*
X103491666Y-95747548D01*
X103495684Y-95745619D01*
X103651724Y-95641356D01*
X103728002Y-95590389D01*
X103728006Y-95590386D01*
X103731710Y-95587911D01*
X103735027Y-95584940D01*
X103735031Y-95584937D01*
X103939845Y-95401490D01*
X103943161Y-95398520D01*
X104125817Y-95181225D01*
X104128174Y-95177446D01*
X104273669Y-94944152D01*
X104273671Y-94944149D01*
X104276033Y-94940361D01*
X104286230Y-94917297D01*
X104313777Y-94854985D01*
X104390813Y-94680734D01*
X104399151Y-94651172D01*
X104424360Y-94561785D01*
X104467866Y-94407525D01*
X104483867Y-94288397D01*
X104505227Y-94129367D01*
X104505228Y-94129359D01*
X104505654Y-94126185D01*
X104506879Y-94087222D01*
X104509519Y-94003222D01*
X104509519Y-94003217D01*
X104509620Y-94000000D01*
X104489571Y-93716842D01*
X104433833Y-93457948D01*
X104430761Y-93443681D01*
X104430761Y-93443679D01*
X104429825Y-93439334D01*
X104331574Y-93173013D01*
X104196778Y-92923192D01*
X104028127Y-92694856D01*
X103828986Y-92492562D01*
X103755118Y-92436188D01*
X103606872Y-92323050D01*
X103606868Y-92323047D01*
X103603327Y-92320345D01*
X103355655Y-92181641D01*
X103351506Y-92180036D01*
X103351502Y-92180034D01*
X103191830Y-92118262D01*
X103090909Y-92079219D01*
X103086588Y-92078217D01*
X103086580Y-92078215D01*
X102904110Y-92035922D01*
X102814374Y-92015122D01*
X102709398Y-92006030D01*
X102643257Y-91980225D01*
X102601567Y-91922757D01*
X102597565Y-91851874D01*
X102632520Y-91790079D01*
X102695336Y-91756992D01*
X102720270Y-91754500D01*
X107212524Y-91754500D01*
X107237103Y-91756921D01*
X107250000Y-91759486D01*
X107260312Y-91757435D01*
X107264541Y-91757065D01*
X107265552Y-91757065D01*
X107267150Y-91756837D01*
X107425096Y-91743018D01*
X107430409Y-91741594D01*
X107430411Y-91741594D01*
X107589562Y-91698950D01*
X107589564Y-91698949D01*
X107594872Y-91697527D01*
X107666721Y-91664023D01*
X107749188Y-91625568D01*
X107749191Y-91625566D01*
X107754169Y-91623245D01*
X107898147Y-91522431D01*
X108022431Y-91398147D01*
X108123245Y-91254169D01*
X108127288Y-91245500D01*
X108195204Y-91099854D01*
X108195205Y-91099852D01*
X108197527Y-91094872D01*
X108243018Y-90925096D01*
X108256837Y-90767150D01*
X108257065Y-90765552D01*
X108257065Y-90764541D01*
X108257435Y-90760312D01*
X108259486Y-90750000D01*
X108256921Y-90737103D01*
X108254500Y-90712524D01*
X108254500Y-80287476D01*
X108256921Y-80262894D01*
X108257065Y-80262170D01*
X108259486Y-80250000D01*
X108257435Y-80239688D01*
X108257065Y-80235459D01*
X108257065Y-80234448D01*
X108256836Y-80232845D01*
X108243018Y-80074904D01*
X108197527Y-79905128D01*
X108123245Y-79745832D01*
X108083921Y-79689670D01*
X108025584Y-79606356D01*
X108022431Y-79601853D01*
X107898147Y-79477569D01*
X107754169Y-79376755D01*
X107749191Y-79374434D01*
X107749188Y-79374432D01*
X107599854Y-79304796D01*
X107599852Y-79304795D01*
X107594872Y-79302473D01*
X107589564Y-79301051D01*
X107589562Y-79301050D01*
X107430411Y-79258406D01*
X107430409Y-79258406D01*
X107425096Y-79256982D01*
X107267150Y-79243163D01*
X107265552Y-79242935D01*
X107264541Y-79242935D01*
X107260312Y-79242565D01*
X107250000Y-79240514D01*
X107237103Y-79243079D01*
X107212524Y-79245500D01*
X106537476Y-79245500D01*
X106512897Y-79243079D01*
X106500000Y-79240514D01*
X106487828Y-79242935D01*
X106475420Y-79242935D01*
X106475420Y-79242615D01*
X106464544Y-79243355D01*
X106236943Y-79229588D01*
X106221839Y-79227754D01*
X105970115Y-79181624D01*
X105955342Y-79177983D01*
X105887838Y-79156948D01*
X105711004Y-79101844D01*
X105696786Y-79096451D01*
X105463414Y-78991420D01*
X105449943Y-78984350D01*
X105230931Y-78851951D01*
X105218410Y-78843308D01*
X105016957Y-78685481D01*
X105005568Y-78675391D01*
X104824609Y-78494432D01*
X104814519Y-78483043D01*
X104656692Y-78281590D01*
X104648049Y-78269069D01*
X104515650Y-78050057D01*
X104508579Y-78036584D01*
X104403549Y-77803214D01*
X104398154Y-77788991D01*
X104322017Y-77544658D01*
X104318376Y-77529885D01*
X104272246Y-77278161D01*
X104270412Y-77263057D01*
X104256645Y-77035456D01*
X104257385Y-77024580D01*
X104257065Y-77024580D01*
X104257065Y-77012172D01*
X104259486Y-77000000D01*
X104256921Y-76987103D01*
X104254500Y-76962524D01*
X104254500Y-60414649D01*
X108060951Y-60414649D01*
X108074829Y-60626377D01*
X108127058Y-60832031D01*
X108215890Y-61024723D01*
X108338350Y-61198000D01*
X108490337Y-61346059D01*
X108495133Y-61349264D01*
X108495136Y-61349266D01*
X108565806Y-61396486D01*
X108659503Y-61459092D01*
X108705030Y-61513568D01*
X108715500Y-61563856D01*
X108715500Y-61905376D01*
X108714159Y-61917381D01*
X108714655Y-61917421D01*
X108713935Y-61926368D01*
X108711954Y-61935124D01*
X108712510Y-61944084D01*
X108715258Y-61988382D01*
X108715500Y-61996184D01*
X108715500Y-62012226D01*
X108716135Y-62016657D01*
X108716135Y-62016662D01*
X108716965Y-62022453D01*
X108717996Y-62032514D01*
X108720902Y-62079359D01*
X108723949Y-62087799D01*
X108724630Y-62091089D01*
X108728582Y-62106938D01*
X108729527Y-62110168D01*
X108730799Y-62119052D01*
X108734514Y-62127223D01*
X108750218Y-62161763D01*
X108754030Y-62171128D01*
X108766922Y-62206837D01*
X108766924Y-62206840D01*
X108769972Y-62215284D01*
X108775268Y-62222533D01*
X108776840Y-62225490D01*
X108785093Y-62239614D01*
X108786898Y-62242437D01*
X108790612Y-62250605D01*
X108796469Y-62257402D01*
X108796470Y-62257404D01*
X108821243Y-62286153D01*
X108827525Y-62294064D01*
X108835473Y-62304944D01*
X108846335Y-62315806D01*
X108852693Y-62322652D01*
X108884944Y-62360082D01*
X108892479Y-62364966D01*
X108899051Y-62370699D01*
X108910455Y-62379926D01*
X110972323Y-64441794D01*
X110979865Y-64451234D01*
X110980245Y-64450911D01*
X110986063Y-64457747D01*
X110990853Y-64465339D01*
X110997581Y-64471281D01*
X111030859Y-64500671D01*
X111036546Y-64506017D01*
X111047880Y-64517351D01*
X111051463Y-64520036D01*
X111051465Y-64520038D01*
X111056155Y-64523553D01*
X111063998Y-64529938D01*
X111099170Y-64561001D01*
X111107292Y-64564814D01*
X111110093Y-64566654D01*
X111124088Y-64575063D01*
X111127051Y-64576685D01*
X111134236Y-64582070D01*
X111142646Y-64585223D01*
X111142648Y-64585224D01*
X111178182Y-64598546D01*
X111187495Y-64602470D01*
X111229982Y-64622417D01*
X111238856Y-64623799D01*
X111242083Y-64624785D01*
X111257866Y-64628925D01*
X111261144Y-64629646D01*
X111269552Y-64632798D01*
X111283309Y-64633820D01*
X111316357Y-64636276D01*
X111326404Y-64637430D01*
X111334886Y-64638751D01*
X111334889Y-64638751D01*
X111339697Y-64639500D01*
X111355062Y-64639500D01*
X111364400Y-64639846D01*
X111413667Y-64643507D01*
X111422442Y-64641634D01*
X111431138Y-64641041D01*
X111445738Y-64639500D01*
X113296708Y-64639500D01*
X113364829Y-64659502D01*
X113401223Y-64699594D01*
X113403179Y-64698334D01*
X113406516Y-64703512D01*
X113409334Y-64708995D01*
X113413163Y-64713826D01*
X113438497Y-64745789D01*
X113537786Y-64871061D01*
X113542479Y-64875055D01*
X113542480Y-64875056D01*
X113685593Y-64996854D01*
X113695271Y-65005091D01*
X113875789Y-65105980D01*
X114072466Y-65169884D01*
X114277809Y-65194370D01*
X114283944Y-65193898D01*
X114283946Y-65193898D01*
X114477856Y-65178977D01*
X114477860Y-65178976D01*
X114483998Y-65178504D01*
X114683178Y-65122892D01*
X114688682Y-65120112D01*
X114688684Y-65120111D01*
X114862262Y-65032431D01*
X114862264Y-65032430D01*
X114867763Y-65029652D01*
X115030722Y-64902334D01*
X115034748Y-64897670D01*
X115034751Y-64897667D01*
X115161819Y-64750457D01*
X115161820Y-64750455D01*
X115165848Y-64745789D01*
X115223953Y-64643507D01*
X115264950Y-64571340D01*
X115264952Y-64571336D01*
X115267995Y-64565979D01*
X115306273Y-64450911D01*
X115331325Y-64375601D01*
X115331326Y-64375598D01*
X115333270Y-64369753D01*
X115359189Y-64164586D01*
X115359602Y-64135000D01*
X115339422Y-63929189D01*
X115279651Y-63731217D01*
X115226099Y-63630500D01*
X115185459Y-63554067D01*
X115185457Y-63554064D01*
X115182565Y-63548625D01*
X115178674Y-63543855D01*
X115178672Y-63543851D01*
X115055758Y-63393143D01*
X115055755Y-63393140D01*
X115051863Y-63388368D01*
X115044966Y-63382662D01*
X114897271Y-63260478D01*
X114897266Y-63260475D01*
X114892522Y-63256550D01*
X114887103Y-63253620D01*
X114887100Y-63253618D01*
X114716032Y-63161122D01*
X114716027Y-63161120D01*
X114710612Y-63158192D01*
X114513063Y-63097040D01*
X114506938Y-63096396D01*
X114506937Y-63096396D01*
X114313526Y-63076068D01*
X114313524Y-63076068D01*
X114307397Y-63075424D01*
X114181229Y-63086906D01*
X114107591Y-63093607D01*
X114107590Y-63093607D01*
X114101450Y-63094166D01*
X113903066Y-63152554D01*
X113897601Y-63155411D01*
X113725261Y-63245508D01*
X113725257Y-63245511D01*
X113719801Y-63248363D01*
X113558635Y-63377943D01*
X113425708Y-63536360D01*
X113422744Y-63541752D01*
X113422741Y-63541756D01*
X113409851Y-63565203D01*
X113359505Y-63615260D01*
X113299437Y-63630500D01*
X111640161Y-63630500D01*
X111572040Y-63610498D01*
X111551066Y-63593595D01*
X109761405Y-61803934D01*
X109727379Y-61741622D01*
X109724500Y-61714839D01*
X109724500Y-61559625D01*
X109744502Y-61491504D01*
X109788934Y-61449691D01*
X109871670Y-61403357D01*
X109871674Y-61403354D01*
X109876717Y-61400530D01*
X110039852Y-61264852D01*
X110129128Y-61157509D01*
X110188065Y-61117927D01*
X110259047Y-61116491D01*
X110319537Y-61153658D01*
X110350330Y-61217629D01*
X110352001Y-61238080D01*
X110352001Y-61389669D01*
X110352371Y-61396490D01*
X110357895Y-61447352D01*
X110361521Y-61462604D01*
X110406676Y-61583054D01*
X110415214Y-61598649D01*
X110491715Y-61700724D01*
X110504276Y-61713285D01*
X110606351Y-61789786D01*
X110621946Y-61798324D01*
X110742394Y-61843478D01*
X110757649Y-61847105D01*
X110808514Y-61852631D01*
X110815328Y-61853000D01*
X111487885Y-61853000D01*
X111503124Y-61848525D01*
X111504329Y-61847135D01*
X111506000Y-61839452D01*
X111506000Y-61834884D01*
X112014000Y-61834884D01*
X112018475Y-61850123D01*
X112019865Y-61851328D01*
X112027548Y-61852999D01*
X112704669Y-61852999D01*
X112711490Y-61852629D01*
X112762352Y-61847105D01*
X112777604Y-61843479D01*
X112898054Y-61798324D01*
X112913649Y-61789786D01*
X113015724Y-61713285D01*
X113028285Y-61700724D01*
X113104786Y-61598649D01*
X113113324Y-61583054D01*
X113158478Y-61462606D01*
X113162105Y-61447351D01*
X113167631Y-61396486D01*
X113168000Y-61389672D01*
X113168000Y-60717115D01*
X113163525Y-60701876D01*
X113162135Y-60700671D01*
X113154452Y-60699000D01*
X112032115Y-60699000D01*
X112016876Y-60703475D01*
X112015671Y-60704865D01*
X112014000Y-60712548D01*
X112014000Y-61834884D01*
X111506000Y-61834884D01*
X111506000Y-60172885D01*
X112014000Y-60172885D01*
X112018475Y-60188124D01*
X112019865Y-60189329D01*
X112027548Y-60191000D01*
X113149884Y-60191000D01*
X113165123Y-60186525D01*
X113166328Y-60185135D01*
X113167999Y-60177452D01*
X113167999Y-59500331D01*
X113167629Y-59493510D01*
X113162105Y-59442648D01*
X113158479Y-59427396D01*
X113113324Y-59306946D01*
X113104786Y-59291351D01*
X113028285Y-59189276D01*
X113015724Y-59176715D01*
X112913649Y-59100214D01*
X112898054Y-59091676D01*
X112777606Y-59046522D01*
X112762351Y-59042895D01*
X112711486Y-59037369D01*
X112704672Y-59037000D01*
X112032115Y-59037000D01*
X112016876Y-59041475D01*
X112015671Y-59042865D01*
X112014000Y-59050548D01*
X112014000Y-60172885D01*
X111506000Y-60172885D01*
X111506000Y-59055116D01*
X111501525Y-59039877D01*
X111500135Y-59038672D01*
X111492452Y-59037001D01*
X110815331Y-59037001D01*
X110808510Y-59037371D01*
X110757648Y-59042895D01*
X110742396Y-59046521D01*
X110621946Y-59091676D01*
X110606351Y-59100214D01*
X110504276Y-59176715D01*
X110491715Y-59189276D01*
X110415214Y-59291351D01*
X110406676Y-59306946D01*
X110361522Y-59427394D01*
X110357895Y-59442649D01*
X110352369Y-59493514D01*
X110352000Y-59500328D01*
X110352000Y-59651918D01*
X110331998Y-59720039D01*
X110278342Y-59766532D01*
X110208068Y-59776636D01*
X110143488Y-59747142D01*
X110125042Y-59727307D01*
X110085089Y-59673803D01*
X110085088Y-59673802D01*
X110081636Y-59669179D01*
X110057524Y-59646890D01*
X109930066Y-59529069D01*
X109930063Y-59529067D01*
X109925826Y-59525150D01*
X109746377Y-59411926D01*
X109549300Y-59333300D01*
X109543643Y-59332175D01*
X109543637Y-59332173D01*
X109346863Y-59293033D01*
X109346859Y-59293033D01*
X109341195Y-59291906D01*
X109335420Y-59291830D01*
X109335416Y-59291830D01*
X109228804Y-59290434D01*
X109129031Y-59289128D01*
X109123334Y-59290107D01*
X109123333Y-59290107D01*
X109106305Y-59293033D01*
X108919913Y-59325061D01*
X108720846Y-59398501D01*
X108715885Y-59401453D01*
X108715884Y-59401453D01*
X108543463Y-59504032D01*
X108543460Y-59504034D01*
X108538495Y-59506988D01*
X108534155Y-59510794D01*
X108534151Y-59510797D01*
X108383309Y-59643083D01*
X108378968Y-59646890D01*
X108247607Y-59813520D01*
X108148812Y-60001299D01*
X108085891Y-60203938D01*
X108060951Y-60414649D01*
X104254500Y-60414649D01*
X104254500Y-54595206D01*
X105620501Y-54595206D01*
X105637806Y-54801278D01*
X105694807Y-55000066D01*
X105697625Y-55005548D01*
X105697626Y-55005552D01*
X105786514Y-55178509D01*
X105786517Y-55178513D01*
X105789334Y-55183995D01*
X105917786Y-55346061D01*
X106075271Y-55480091D01*
X106255789Y-55580980D01*
X106452466Y-55644884D01*
X106657809Y-55669370D01*
X106663944Y-55668898D01*
X106663946Y-55668898D01*
X106857856Y-55653977D01*
X106857860Y-55653976D01*
X106863998Y-55653504D01*
X107063178Y-55597892D01*
X107068682Y-55595112D01*
X107068684Y-55595111D01*
X107242262Y-55507431D01*
X107242264Y-55507430D01*
X107247763Y-55504652D01*
X107410722Y-55377334D01*
X107414748Y-55372670D01*
X107414751Y-55372667D01*
X107541819Y-55225457D01*
X107541820Y-55225455D01*
X107545848Y-55220789D01*
X107603953Y-55118507D01*
X107644950Y-55046340D01*
X107644952Y-55046336D01*
X107647995Y-55040979D01*
X107686273Y-54925911D01*
X107711325Y-54850601D01*
X107711326Y-54850598D01*
X107713270Y-54844753D01*
X107739189Y-54639586D01*
X107739602Y-54610000D01*
X107719422Y-54404189D01*
X107659651Y-54206217D01*
X107606099Y-54105500D01*
X107565459Y-54029067D01*
X107565457Y-54029064D01*
X107562565Y-54023625D01*
X107558674Y-54018855D01*
X107558672Y-54018851D01*
X107435758Y-53868143D01*
X107435755Y-53868140D01*
X107431863Y-53863368D01*
X107424966Y-53857662D01*
X107277271Y-53735478D01*
X107277266Y-53735475D01*
X107272522Y-53731550D01*
X107267103Y-53728620D01*
X107267100Y-53728618D01*
X107096032Y-53636122D01*
X107096027Y-53636120D01*
X107090612Y-53633192D01*
X106893063Y-53572040D01*
X106886938Y-53571396D01*
X106886937Y-53571396D01*
X106693526Y-53551068D01*
X106693524Y-53551068D01*
X106687397Y-53550424D01*
X106561229Y-53561906D01*
X106487591Y-53568607D01*
X106487590Y-53568607D01*
X106481450Y-53569166D01*
X106283066Y-53627554D01*
X106277601Y-53630411D01*
X106105261Y-53720508D01*
X106105257Y-53720511D01*
X106099801Y-53723363D01*
X105938635Y-53852943D01*
X105805708Y-54011360D01*
X105706082Y-54192578D01*
X105643553Y-54389696D01*
X105620501Y-54595206D01*
X104254500Y-54595206D01*
X104254500Y-50769649D01*
X108060951Y-50769649D01*
X108074829Y-50981377D01*
X108127058Y-51187031D01*
X108215890Y-51379723D01*
X108338350Y-51553000D01*
X108490337Y-51701059D01*
X108495133Y-51704264D01*
X108495136Y-51704266D01*
X108565806Y-51751486D01*
X108659503Y-51814092D01*
X108705030Y-51868568D01*
X108715500Y-51918856D01*
X108715500Y-52002168D01*
X108714159Y-52014173D01*
X108714655Y-52014213D01*
X108713935Y-52023160D01*
X108711954Y-52031916D01*
X108712510Y-52040876D01*
X108715258Y-52085174D01*
X108715500Y-52092976D01*
X108715500Y-52109018D01*
X108716135Y-52113449D01*
X108716135Y-52113454D01*
X108716965Y-52119245D01*
X108717996Y-52129306D01*
X108720902Y-52176151D01*
X108723949Y-52184591D01*
X108724630Y-52187881D01*
X108728582Y-52203730D01*
X108729527Y-52206960D01*
X108730799Y-52215844D01*
X108734514Y-52224015D01*
X108750218Y-52258555D01*
X108754030Y-52267920D01*
X108766922Y-52303629D01*
X108766924Y-52303632D01*
X108769972Y-52312076D01*
X108775268Y-52319325D01*
X108776840Y-52322282D01*
X108785093Y-52336406D01*
X108786898Y-52339229D01*
X108790612Y-52347397D01*
X108796469Y-52354194D01*
X108796470Y-52354196D01*
X108821243Y-52382945D01*
X108827525Y-52390856D01*
X108835473Y-52401736D01*
X108846335Y-52412598D01*
X108852693Y-52419444D01*
X108884944Y-52456874D01*
X108892479Y-52461758D01*
X108899051Y-52467491D01*
X108910455Y-52476718D01*
X111350531Y-54916794D01*
X111358073Y-54926234D01*
X111358453Y-54925911D01*
X111364271Y-54932747D01*
X111369061Y-54940339D01*
X111375789Y-54946281D01*
X111409067Y-54975671D01*
X111414754Y-54981017D01*
X111426088Y-54992351D01*
X111429671Y-54995036D01*
X111429673Y-54995038D01*
X111434363Y-54998553D01*
X111442206Y-55004938D01*
X111477378Y-55036001D01*
X111485500Y-55039814D01*
X111488301Y-55041654D01*
X111502296Y-55050063D01*
X111505259Y-55051685D01*
X111512444Y-55057070D01*
X111520854Y-55060223D01*
X111520856Y-55060224D01*
X111556390Y-55073546D01*
X111565703Y-55077470D01*
X111608190Y-55097417D01*
X111617064Y-55098799D01*
X111620291Y-55099785D01*
X111636074Y-55103925D01*
X111639352Y-55104646D01*
X111647760Y-55107798D01*
X111661517Y-55108820D01*
X111694565Y-55111276D01*
X111704612Y-55112430D01*
X111713094Y-55113751D01*
X111713097Y-55113751D01*
X111717905Y-55114500D01*
X111733270Y-55114500D01*
X111742608Y-55114846D01*
X111791875Y-55118507D01*
X111800650Y-55116634D01*
X111809346Y-55116041D01*
X111823946Y-55114500D01*
X113296708Y-55114500D01*
X113364829Y-55134502D01*
X113401223Y-55174594D01*
X113403179Y-55173334D01*
X113406516Y-55178512D01*
X113409334Y-55183995D01*
X113413163Y-55188826D01*
X113438497Y-55220789D01*
X113537786Y-55346061D01*
X113695271Y-55480091D01*
X113875789Y-55580980D01*
X114072466Y-55644884D01*
X114277809Y-55669370D01*
X114283944Y-55668898D01*
X114283946Y-55668898D01*
X114477856Y-55653977D01*
X114477860Y-55653976D01*
X114483998Y-55653504D01*
X114683178Y-55597892D01*
X114688682Y-55595112D01*
X114688684Y-55595111D01*
X114862262Y-55507431D01*
X114862264Y-55507430D01*
X114867763Y-55504652D01*
X115030722Y-55377334D01*
X115034748Y-55372670D01*
X115034751Y-55372667D01*
X115161819Y-55225457D01*
X115161820Y-55225455D01*
X115165848Y-55220789D01*
X115223953Y-55118507D01*
X115264950Y-55046340D01*
X115264952Y-55046336D01*
X115267995Y-55040979D01*
X115306273Y-54925911D01*
X115331325Y-54850601D01*
X115331326Y-54850598D01*
X115333270Y-54844753D01*
X115359189Y-54639586D01*
X115359602Y-54610000D01*
X115339422Y-54404189D01*
X115279651Y-54206217D01*
X115226099Y-54105500D01*
X115185459Y-54029067D01*
X115185457Y-54029064D01*
X115182565Y-54023625D01*
X115178674Y-54018855D01*
X115178672Y-54018851D01*
X115055758Y-53868143D01*
X115055755Y-53868140D01*
X115051863Y-53863368D01*
X115044966Y-53857662D01*
X114897271Y-53735478D01*
X114897266Y-53735475D01*
X114892522Y-53731550D01*
X114887103Y-53728620D01*
X114887100Y-53728618D01*
X114716032Y-53636122D01*
X114716027Y-53636120D01*
X114710612Y-53633192D01*
X114513063Y-53572040D01*
X114506938Y-53571396D01*
X114506937Y-53571396D01*
X114313526Y-53551068D01*
X114313524Y-53551068D01*
X114307397Y-53550424D01*
X114181229Y-53561906D01*
X114107591Y-53568607D01*
X114107590Y-53568607D01*
X114101450Y-53569166D01*
X113903066Y-53627554D01*
X113897601Y-53630411D01*
X113725261Y-53720508D01*
X113725257Y-53720511D01*
X113719801Y-53723363D01*
X113558635Y-53852943D01*
X113425708Y-54011360D01*
X113422744Y-54016752D01*
X113422741Y-54016756D01*
X113409851Y-54040203D01*
X113359505Y-54090260D01*
X113299437Y-54105500D01*
X112018369Y-54105500D01*
X111950248Y-54085498D01*
X111929274Y-54068595D01*
X109827426Y-51966747D01*
X109793400Y-51904435D01*
X109798465Y-51833620D01*
X109841012Y-51776784D01*
X109854952Y-51767719D01*
X109871674Y-51758354D01*
X109876717Y-51755530D01*
X110039852Y-51619852D01*
X110129128Y-51512509D01*
X110188065Y-51472927D01*
X110259047Y-51471491D01*
X110319537Y-51508658D01*
X110350330Y-51572629D01*
X110352001Y-51593080D01*
X110352001Y-51744669D01*
X110352371Y-51751490D01*
X110357895Y-51802352D01*
X110361521Y-51817604D01*
X110406676Y-51938054D01*
X110415214Y-51953649D01*
X110491715Y-52055724D01*
X110504276Y-52068285D01*
X110606351Y-52144786D01*
X110621946Y-52153324D01*
X110742394Y-52198478D01*
X110757649Y-52202105D01*
X110808514Y-52207631D01*
X110815328Y-52208000D01*
X111487885Y-52208000D01*
X111503124Y-52203525D01*
X111504329Y-52202135D01*
X111506000Y-52194452D01*
X111506000Y-52189884D01*
X112014000Y-52189884D01*
X112018475Y-52205123D01*
X112019865Y-52206328D01*
X112027548Y-52207999D01*
X112704669Y-52207999D01*
X112711490Y-52207629D01*
X112762352Y-52202105D01*
X112777604Y-52198479D01*
X112898054Y-52153324D01*
X112913649Y-52144786D01*
X113015724Y-52068285D01*
X113028285Y-52055724D01*
X113104786Y-51953649D01*
X113113324Y-51938054D01*
X113158478Y-51817606D01*
X113162105Y-51802351D01*
X113167631Y-51751486D01*
X113168000Y-51744672D01*
X113168000Y-51072115D01*
X113163525Y-51056876D01*
X113162135Y-51055671D01*
X113154452Y-51054000D01*
X112032115Y-51054000D01*
X112016876Y-51058475D01*
X112015671Y-51059865D01*
X112014000Y-51067548D01*
X112014000Y-52189884D01*
X111506000Y-52189884D01*
X111506000Y-50527885D01*
X112014000Y-50527885D01*
X112018475Y-50543124D01*
X112019865Y-50544329D01*
X112027548Y-50546000D01*
X113149884Y-50546000D01*
X113165123Y-50541525D01*
X113166328Y-50540135D01*
X113167999Y-50532452D01*
X113167999Y-49855331D01*
X113167629Y-49848510D01*
X113162105Y-49797648D01*
X113158479Y-49782396D01*
X113113324Y-49661946D01*
X113104786Y-49646351D01*
X113028285Y-49544276D01*
X113015724Y-49531715D01*
X112913649Y-49455214D01*
X112898054Y-49446676D01*
X112777606Y-49401522D01*
X112762351Y-49397895D01*
X112711486Y-49392369D01*
X112704672Y-49392000D01*
X112032115Y-49392000D01*
X112016876Y-49396475D01*
X112015671Y-49397865D01*
X112014000Y-49405548D01*
X112014000Y-50527885D01*
X111506000Y-50527885D01*
X111506000Y-49410116D01*
X111501525Y-49394877D01*
X111500135Y-49393672D01*
X111492452Y-49392001D01*
X110815331Y-49392001D01*
X110808510Y-49392371D01*
X110757648Y-49397895D01*
X110742396Y-49401521D01*
X110621946Y-49446676D01*
X110606351Y-49455214D01*
X110504276Y-49531715D01*
X110491715Y-49544276D01*
X110415214Y-49646351D01*
X110406676Y-49661946D01*
X110361522Y-49782394D01*
X110357895Y-49797649D01*
X110352369Y-49848514D01*
X110352000Y-49855328D01*
X110352000Y-50006918D01*
X110331998Y-50075039D01*
X110278342Y-50121532D01*
X110208068Y-50131636D01*
X110143488Y-50102142D01*
X110125042Y-50082307D01*
X110085089Y-50028803D01*
X110085088Y-50028802D01*
X110081636Y-50024179D01*
X110057524Y-50001890D01*
X109930066Y-49884069D01*
X109930063Y-49884067D01*
X109925826Y-49880150D01*
X109746377Y-49766926D01*
X109549300Y-49688300D01*
X109543643Y-49687175D01*
X109543637Y-49687173D01*
X109346863Y-49648033D01*
X109346859Y-49648033D01*
X109341195Y-49646906D01*
X109335420Y-49646830D01*
X109335416Y-49646830D01*
X109228804Y-49645434D01*
X109129031Y-49644128D01*
X109123334Y-49645107D01*
X109123333Y-49645107D01*
X109106305Y-49648033D01*
X108919913Y-49680061D01*
X108720846Y-49753501D01*
X108715885Y-49756453D01*
X108715884Y-49756453D01*
X108543463Y-49859032D01*
X108543460Y-49859034D01*
X108538495Y-49861988D01*
X108534155Y-49865794D01*
X108534151Y-49865797D01*
X108383309Y-49998083D01*
X108378968Y-50001890D01*
X108247607Y-50168520D01*
X108148812Y-50356299D01*
X108085891Y-50558938D01*
X108060951Y-50769649D01*
X104254500Y-50769649D01*
X104254500Y-47037476D01*
X104256921Y-47012894D01*
X104257065Y-47012170D01*
X104259486Y-47000000D01*
X104257065Y-46987828D01*
X104257065Y-46975420D01*
X104257385Y-46975420D01*
X104256645Y-46964544D01*
X104270412Y-46736943D01*
X104272246Y-46721839D01*
X104318376Y-46470115D01*
X104322017Y-46455342D01*
X104398154Y-46211009D01*
X104403550Y-46196782D01*
X104508579Y-45963416D01*
X104515650Y-45949943D01*
X104648049Y-45730931D01*
X104656692Y-45718410D01*
X104814519Y-45516957D01*
X104824609Y-45505568D01*
X105005568Y-45324609D01*
X105016957Y-45314519D01*
X105218410Y-45156692D01*
X105230931Y-45148049D01*
X105449943Y-45015650D01*
X105463416Y-45008579D01*
X105696786Y-44903549D01*
X105711004Y-44898156D01*
X105955342Y-44822017D01*
X105970115Y-44818376D01*
X106221839Y-44772246D01*
X106236943Y-44770412D01*
X106464544Y-44756645D01*
X106475420Y-44757385D01*
X106475420Y-44757065D01*
X106487828Y-44757065D01*
X106500000Y-44759486D01*
X106512897Y-44756921D01*
X106537476Y-44754500D01*
X114462524Y-44754500D01*
X114487103Y-44756921D01*
G37*
G04 #@! TD.AperFunction*
M02*
