%FSLAX45Y45*%
G04 Gerber Fmt 4.5, Leading zero omitted, Abs format (unit mm)*
G04 Created by KiCad (PCBNEW 6.0.5-a6ca702e91~116~ubuntu20.04.1) date 2022-06-20 08:29:19*
%MOMM*%
%LPD*%
G01*
G04 APERTURE LIST*
%TA.AperFunction,Profile*%
%ADD10C,0.150000*%
%TD*%
%ADD11C,0.200000*%
%ADD12C,0.080000*%
%ADD13C,0.090000*%
%ADD14C,0.100000*%
%ADD15C,0.300000*%
G04 APERTURE END LIST*
D10*
X10250000Y-9150000D02*
X10725000Y-9150000D01*
X12100000Y-9750000D02*
X12100000Y-9400000D01*
X10650000Y-4450000D02*
X11450000Y-4450000D01*
X10400000Y-7700000D02*
X10400000Y-4700000D01*
X11375000Y-9150000D02*
X11850000Y-9150000D01*
X11300000Y-9075000D02*
G75*
G03*
X11375000Y-9150000I75000J0D01*
G01*
X10725000Y-9150000D02*
G75*
G03*
X10800000Y-9075000I0J75000D01*
G01*
X10800000Y-8025000D02*
X10800000Y-9075000D01*
X11300000Y-8025000D02*
X11300000Y-9075000D01*
X11375000Y-7950000D02*
G75*
G03*
X11300000Y-8025000I0J-75000D01*
G01*
X10800000Y-8025000D02*
G75*
G03*
X10725000Y-7950000I-75000J0D01*
G01*
X10650000Y-7950000D02*
X10725000Y-7950000D01*
X11375000Y-7950000D02*
X11450000Y-7950000D01*
X10400000Y-7700000D02*
G75*
G03*
X10650000Y-7950000I250000J0D01*
G01*
X11450000Y-7950000D02*
G75*
G03*
X11700000Y-7700000I0J250000D01*
G01*
X11700000Y-7700000D02*
X11700000Y-4700000D01*
X10650000Y-4450000D02*
G75*
G03*
X10400000Y-4700000I0J-250000D01*
G01*
X11700000Y-4700000D02*
G75*
G03*
X11450000Y-4450000I-250000J0D01*
G01*
X12100000Y-9400000D02*
G75*
G03*
X11850000Y-9150000I-250000J0D01*
G01*
X10250000Y-9150000D02*
G75*
G03*
X10000000Y-9400000I0J-250000D01*
G01*
X10000000Y-9750000D02*
X10000000Y-9400000D01*
X10000000Y-9750000D02*
G75*
G03*
X10250000Y-10000000I250000J0D01*
G01*
X10250000Y-10000000D02*
X11850000Y-10000000D01*
X11850000Y-10000000D02*
G75*
G03*
X12100000Y-9750000I0J250000D01*
G01*
D11*
D12*
X10628000Y-5421000D02*
X10708000Y-5501000D01*
X10708000Y-5421000D02*
X10628000Y-5501000D01*
X10628000Y-6373500D02*
X10708000Y-6453500D01*
X10708000Y-6373500D02*
X10628000Y-6453500D01*
X10628000Y-7262500D02*
X10708000Y-7342500D01*
X10708000Y-7262500D02*
X10628000Y-7342500D01*
X11390000Y-5421000D02*
X11470000Y-5501000D01*
X11470000Y-5421000D02*
X11390000Y-5501000D01*
X11390000Y-6373500D02*
X11470000Y-6453500D01*
X11470000Y-6373500D02*
X11390000Y-6453500D01*
X11390000Y-7262500D02*
X11470000Y-7342500D01*
X11470000Y-7262500D02*
X11390000Y-7342500D01*
D13*
X10967000Y-5080000D02*
G75*
G03*
X10967000Y-5080000I-45000J0D01*
G01*
X10967000Y-6044500D02*
G75*
G03*
X10967000Y-6044500I-45000J0D01*
G01*
X10967000Y-6921500D02*
G75*
G03*
X10967000Y-6921500I-45000J0D01*
G01*
X11221000Y-5080000D02*
G75*
G03*
X11221000Y-5080000I-45000J0D01*
G01*
X11221000Y-6044500D02*
G75*
G03*
X11221000Y-6044500I-45000J0D01*
G01*
X11221000Y-6921500D02*
G75*
G03*
X11221000Y-6921500I-45000J0D01*
G01*
D14*
X10668000Y-9792500D02*
X10668000Y-9892500D01*
X10618000Y-9842500D02*
X10718000Y-9842500D01*
X10922000Y-9792500D02*
X10922000Y-9892500D01*
X10872000Y-9842500D02*
X10972000Y-9842500D01*
X11176000Y-9792500D02*
X11176000Y-9892500D01*
X11126000Y-9842500D02*
X11226000Y-9842500D01*
X11430000Y-9792500D02*
X11430000Y-9892500D01*
X11380000Y-9842500D02*
X11480000Y-9842500D01*
D15*
X10356067Y-9506067D02*
X10356067Y-9293933D01*
X10143933Y-9293933D01*
X10143933Y-9506067D01*
X10356067Y-9506067D01*
X11956067Y-9506067D02*
X11956067Y-9293933D01*
X11743933Y-9293933D01*
X11743933Y-9506067D01*
X11956067Y-9506067D01*
D11*
X10250119Y-10317976D02*
X10250119Y-10117976D01*
X10297738Y-10117976D01*
X10326310Y-10127500D01*
X10345357Y-10146548D01*
X10354881Y-10165595D01*
X10364405Y-10203690D01*
X10364405Y-10232262D01*
X10354881Y-10270357D01*
X10345357Y-10289405D01*
X10326310Y-10308452D01*
X10297738Y-10317976D01*
X10250119Y-10317976D01*
X10450119Y-10317976D02*
X10450119Y-10184643D01*
X10450119Y-10222738D02*
X10459643Y-10203690D01*
X10469167Y-10194167D01*
X10488214Y-10184643D01*
X10507262Y-10184643D01*
X10573929Y-10317976D02*
X10573929Y-10184643D01*
X10573929Y-10117976D02*
X10564405Y-10127500D01*
X10573929Y-10137024D01*
X10583452Y-10127500D01*
X10573929Y-10117976D01*
X10573929Y-10137024D01*
X10697738Y-10317976D02*
X10678690Y-10308452D01*
X10669167Y-10289405D01*
X10669167Y-10117976D01*
X10802500Y-10317976D02*
X10783452Y-10308452D01*
X10773929Y-10289405D01*
X10773929Y-10117976D01*
X11031071Y-10317976D02*
X11031071Y-10117976D01*
X11097738Y-10260833D01*
X11164405Y-10117976D01*
X11164405Y-10317976D01*
X11345357Y-10317976D02*
X11345357Y-10213214D01*
X11335833Y-10194167D01*
X11316786Y-10184643D01*
X11278690Y-10184643D01*
X11259643Y-10194167D01*
X11345357Y-10308452D02*
X11326309Y-10317976D01*
X11278690Y-10317976D01*
X11259643Y-10308452D01*
X11250119Y-10289405D01*
X11250119Y-10270357D01*
X11259643Y-10251310D01*
X11278690Y-10241786D01*
X11326309Y-10241786D01*
X11345357Y-10232262D01*
X11440595Y-10184643D02*
X11440595Y-10384643D01*
X11440595Y-10194167D02*
X11459643Y-10184643D01*
X11497738Y-10184643D01*
X11516786Y-10194167D01*
X11526309Y-10203690D01*
X11535833Y-10222738D01*
X11535833Y-10279881D01*
X11526309Y-10298929D01*
X11516786Y-10308452D01*
X11497738Y-10317976D01*
X11459643Y-10317976D01*
X11440595Y-10308452D01*
X11621548Y-10298929D02*
X11631071Y-10308452D01*
X11621548Y-10317976D01*
X11612024Y-10308452D01*
X11621548Y-10298929D01*
X11621548Y-10317976D01*
X11621548Y-10194167D02*
X11631071Y-10203690D01*
X11621548Y-10213214D01*
X11612024Y-10203690D01*
X11621548Y-10194167D01*
X11621548Y-10213214D01*
D12*
X9912500Y-10607500D02*
X9992500Y-10687500D01*
X9992500Y-10607500D02*
X9912500Y-10687500D01*
D11*
X10288214Y-10537976D02*
X10307262Y-10537976D01*
X10326310Y-10547500D01*
X10335833Y-10557024D01*
X10345357Y-10576071D01*
X10354881Y-10614167D01*
X10354881Y-10661786D01*
X10345357Y-10699881D01*
X10335833Y-10718929D01*
X10326310Y-10728452D01*
X10307262Y-10737976D01*
X10288214Y-10737976D01*
X10269167Y-10728452D01*
X10259643Y-10718929D01*
X10250119Y-10699881D01*
X10240595Y-10661786D01*
X10240595Y-10614167D01*
X10250119Y-10576071D01*
X10259643Y-10557024D01*
X10269167Y-10547500D01*
X10288214Y-10537976D01*
X10440595Y-10718929D02*
X10450119Y-10728452D01*
X10440595Y-10737976D01*
X10431071Y-10728452D01*
X10440595Y-10718929D01*
X10440595Y-10737976D01*
X10564405Y-10623690D02*
X10545357Y-10614167D01*
X10535833Y-10604643D01*
X10526310Y-10585595D01*
X10526310Y-10576071D01*
X10535833Y-10557024D01*
X10545357Y-10547500D01*
X10564405Y-10537976D01*
X10602500Y-10537976D01*
X10621548Y-10547500D01*
X10631071Y-10557024D01*
X10640595Y-10576071D01*
X10640595Y-10585595D01*
X10631071Y-10604643D01*
X10621548Y-10614167D01*
X10602500Y-10623690D01*
X10564405Y-10623690D01*
X10545357Y-10633214D01*
X10535833Y-10642738D01*
X10526310Y-10661786D01*
X10526310Y-10699881D01*
X10535833Y-10718929D01*
X10545357Y-10728452D01*
X10564405Y-10737976D01*
X10602500Y-10737976D01*
X10621548Y-10728452D01*
X10631071Y-10718929D01*
X10640595Y-10699881D01*
X10640595Y-10661786D01*
X10631071Y-10642738D01*
X10621548Y-10633214D01*
X10602500Y-10623690D01*
X10764405Y-10537976D02*
X10783452Y-10537976D01*
X10802500Y-10547500D01*
X10812024Y-10557024D01*
X10821548Y-10576071D01*
X10831071Y-10614167D01*
X10831071Y-10661786D01*
X10821548Y-10699881D01*
X10812024Y-10718929D01*
X10802500Y-10728452D01*
X10783452Y-10737976D01*
X10764405Y-10737976D01*
X10745357Y-10728452D01*
X10735833Y-10718929D01*
X10726310Y-10699881D01*
X10716786Y-10661786D01*
X10716786Y-10614167D01*
X10726310Y-10576071D01*
X10735833Y-10557024D01*
X10745357Y-10547500D01*
X10764405Y-10537976D01*
X10954881Y-10537976D02*
X10973929Y-10537976D01*
X10992976Y-10547500D01*
X11002500Y-10557024D01*
X11012024Y-10576071D01*
X11021548Y-10614167D01*
X11021548Y-10661786D01*
X11012024Y-10699881D01*
X11002500Y-10718929D01*
X10992976Y-10728452D01*
X10973929Y-10737976D01*
X10954881Y-10737976D01*
X10935833Y-10728452D01*
X10926310Y-10718929D01*
X10916786Y-10699881D01*
X10907262Y-10661786D01*
X10907262Y-10614167D01*
X10916786Y-10576071D01*
X10926310Y-10557024D01*
X10935833Y-10547500D01*
X10954881Y-10537976D01*
X11107262Y-10737976D02*
X11107262Y-10604643D01*
X11107262Y-10623690D02*
X11116786Y-10614167D01*
X11135833Y-10604643D01*
X11164405Y-10604643D01*
X11183452Y-10614167D01*
X11192976Y-10633214D01*
X11192976Y-10737976D01*
X11192976Y-10633214D02*
X11202500Y-10614167D01*
X11221548Y-10604643D01*
X11250119Y-10604643D01*
X11269167Y-10614167D01*
X11278690Y-10633214D01*
X11278690Y-10737976D01*
X11373928Y-10737976D02*
X11373928Y-10604643D01*
X11373928Y-10623690D02*
X11383452Y-10614167D01*
X11402500Y-10604643D01*
X11431071Y-10604643D01*
X11450119Y-10614167D01*
X11459643Y-10633214D01*
X11459643Y-10737976D01*
X11459643Y-10633214D02*
X11469167Y-10614167D01*
X11488214Y-10604643D01*
X11516786Y-10604643D01*
X11535833Y-10614167D01*
X11545357Y-10633214D01*
X11545357Y-10737976D01*
X11935833Y-10528452D02*
X11764405Y-10785595D01*
X12192976Y-10537976D02*
X12212024Y-10537976D01*
X12231071Y-10547500D01*
X12240595Y-10557024D01*
X12250119Y-10576071D01*
X12259643Y-10614167D01*
X12259643Y-10661786D01*
X12250119Y-10699881D01*
X12240595Y-10718929D01*
X12231071Y-10728452D01*
X12212024Y-10737976D01*
X12192976Y-10737976D01*
X12173928Y-10728452D01*
X12164405Y-10718929D01*
X12154881Y-10699881D01*
X12145357Y-10661786D01*
X12145357Y-10614167D01*
X12154881Y-10576071D01*
X12164405Y-10557024D01*
X12173928Y-10547500D01*
X12192976Y-10537976D01*
X12345357Y-10718929D02*
X12354881Y-10728452D01*
X12345357Y-10737976D01*
X12335833Y-10728452D01*
X12345357Y-10718929D01*
X12345357Y-10737976D01*
X12478690Y-10537976D02*
X12497738Y-10537976D01*
X12516786Y-10547500D01*
X12526309Y-10557024D01*
X12535833Y-10576071D01*
X12545357Y-10614167D01*
X12545357Y-10661786D01*
X12535833Y-10699881D01*
X12526309Y-10718929D01*
X12516786Y-10728452D01*
X12497738Y-10737976D01*
X12478690Y-10737976D01*
X12459643Y-10728452D01*
X12450119Y-10718929D01*
X12440595Y-10699881D01*
X12431071Y-10661786D01*
X12431071Y-10614167D01*
X12440595Y-10576071D01*
X12450119Y-10557024D01*
X12459643Y-10547500D01*
X12478690Y-10537976D01*
X12612024Y-10537976D02*
X12735833Y-10537976D01*
X12669167Y-10614167D01*
X12697738Y-10614167D01*
X12716786Y-10623690D01*
X12726309Y-10633214D01*
X12735833Y-10652262D01*
X12735833Y-10699881D01*
X12726309Y-10718929D01*
X12716786Y-10728452D01*
X12697738Y-10737976D01*
X12640595Y-10737976D01*
X12621548Y-10728452D01*
X12612024Y-10718929D01*
X12926309Y-10737976D02*
X12812024Y-10737976D01*
X12869167Y-10737976D02*
X12869167Y-10537976D01*
X12850119Y-10566548D01*
X12831071Y-10585595D01*
X12812024Y-10595119D01*
X13107262Y-10537976D02*
X13012024Y-10537976D01*
X13002500Y-10633214D01*
X13012024Y-10623690D01*
X13031071Y-10614167D01*
X13078690Y-10614167D01*
X13097738Y-10623690D01*
X13107262Y-10633214D01*
X13116786Y-10652262D01*
X13116786Y-10699881D01*
X13107262Y-10718929D01*
X13097738Y-10728452D01*
X13078690Y-10737976D01*
X13031071Y-10737976D01*
X13012024Y-10728452D01*
X13002500Y-10718929D01*
X13192976Y-10537976D02*
X13192976Y-10576071D01*
X13269167Y-10537976D02*
X13269167Y-10576071D01*
X13564405Y-10814167D02*
X13554881Y-10804643D01*
X13535833Y-10776071D01*
X13526309Y-10757024D01*
X13516786Y-10728452D01*
X13507262Y-10680833D01*
X13507262Y-10642738D01*
X13516786Y-10595119D01*
X13526309Y-10566548D01*
X13535833Y-10547500D01*
X13554881Y-10518929D01*
X13564405Y-10509405D01*
X13726309Y-10537976D02*
X13688214Y-10537976D01*
X13669167Y-10547500D01*
X13659643Y-10557024D01*
X13640595Y-10585595D01*
X13631071Y-10623690D01*
X13631071Y-10699881D01*
X13640595Y-10718929D01*
X13650119Y-10728452D01*
X13669167Y-10737976D01*
X13707262Y-10737976D01*
X13726309Y-10728452D01*
X13735833Y-10718929D01*
X13745357Y-10699881D01*
X13745357Y-10652262D01*
X13735833Y-10633214D01*
X13726309Y-10623690D01*
X13707262Y-10614167D01*
X13669167Y-10614167D01*
X13650119Y-10623690D01*
X13640595Y-10633214D01*
X13631071Y-10652262D01*
X13983452Y-10737976D02*
X13983452Y-10537976D01*
X14069167Y-10737976D02*
X14069167Y-10633214D01*
X14059643Y-10614167D01*
X14040595Y-10604643D01*
X14012024Y-10604643D01*
X13992976Y-10614167D01*
X13983452Y-10623690D01*
X14192976Y-10737976D02*
X14173928Y-10728452D01*
X14164405Y-10718929D01*
X14154881Y-10699881D01*
X14154881Y-10642738D01*
X14164405Y-10623690D01*
X14173928Y-10614167D01*
X14192976Y-10604643D01*
X14221548Y-10604643D01*
X14240595Y-10614167D01*
X14250119Y-10623690D01*
X14259643Y-10642738D01*
X14259643Y-10699881D01*
X14250119Y-10718929D01*
X14240595Y-10728452D01*
X14221548Y-10737976D01*
X14192976Y-10737976D01*
X14373928Y-10737976D02*
X14354881Y-10728452D01*
X14345357Y-10709405D01*
X14345357Y-10537976D01*
X14526309Y-10728452D02*
X14507262Y-10737976D01*
X14469167Y-10737976D01*
X14450119Y-10728452D01*
X14440595Y-10709405D01*
X14440595Y-10633214D01*
X14450119Y-10614167D01*
X14469167Y-10604643D01*
X14507262Y-10604643D01*
X14526309Y-10614167D01*
X14535833Y-10633214D01*
X14535833Y-10652262D01*
X14440595Y-10671310D01*
X14612024Y-10728452D02*
X14631071Y-10737976D01*
X14669167Y-10737976D01*
X14688214Y-10728452D01*
X14697738Y-10709405D01*
X14697738Y-10699881D01*
X14688214Y-10680833D01*
X14669167Y-10671310D01*
X14640595Y-10671310D01*
X14621548Y-10661786D01*
X14612024Y-10642738D01*
X14612024Y-10633214D01*
X14621548Y-10614167D01*
X14640595Y-10604643D01*
X14669167Y-10604643D01*
X14688214Y-10614167D01*
X14764405Y-10814167D02*
X14773928Y-10804643D01*
X14792976Y-10776071D01*
X14802500Y-10757024D01*
X14812024Y-10728452D01*
X14821548Y-10680833D01*
X14821548Y-10642738D01*
X14812024Y-10595119D01*
X14802500Y-10566548D01*
X14792976Y-10547500D01*
X14773928Y-10518929D01*
X14764405Y-10509405D01*
D13*
X9992500Y-10911500D02*
G75*
G03*
X9992500Y-10911500I-45000J0D01*
G01*
D11*
X10288214Y-10801976D02*
X10307262Y-10801976D01*
X10326310Y-10811500D01*
X10335833Y-10821024D01*
X10345357Y-10840071D01*
X10354881Y-10878167D01*
X10354881Y-10925786D01*
X10345357Y-10963881D01*
X10335833Y-10982929D01*
X10326310Y-10992452D01*
X10307262Y-11001976D01*
X10288214Y-11001976D01*
X10269167Y-10992452D01*
X10259643Y-10982929D01*
X10250119Y-10963881D01*
X10240595Y-10925786D01*
X10240595Y-10878167D01*
X10250119Y-10840071D01*
X10259643Y-10821024D01*
X10269167Y-10811500D01*
X10288214Y-10801976D01*
X10440595Y-10982929D02*
X10450119Y-10992452D01*
X10440595Y-11001976D01*
X10431071Y-10992452D01*
X10440595Y-10982929D01*
X10440595Y-11001976D01*
X10545357Y-11001976D02*
X10583452Y-11001976D01*
X10602500Y-10992452D01*
X10612024Y-10982929D01*
X10631071Y-10954357D01*
X10640595Y-10916262D01*
X10640595Y-10840071D01*
X10631071Y-10821024D01*
X10621548Y-10811500D01*
X10602500Y-10801976D01*
X10564405Y-10801976D01*
X10545357Y-10811500D01*
X10535833Y-10821024D01*
X10526310Y-10840071D01*
X10526310Y-10887690D01*
X10535833Y-10906738D01*
X10545357Y-10916262D01*
X10564405Y-10925786D01*
X10602500Y-10925786D01*
X10621548Y-10916262D01*
X10631071Y-10906738D01*
X10640595Y-10887690D01*
X10764405Y-10801976D02*
X10783452Y-10801976D01*
X10802500Y-10811500D01*
X10812024Y-10821024D01*
X10821548Y-10840071D01*
X10831071Y-10878167D01*
X10831071Y-10925786D01*
X10821548Y-10963881D01*
X10812024Y-10982929D01*
X10802500Y-10992452D01*
X10783452Y-11001976D01*
X10764405Y-11001976D01*
X10745357Y-10992452D01*
X10735833Y-10982929D01*
X10726310Y-10963881D01*
X10716786Y-10925786D01*
X10716786Y-10878167D01*
X10726310Y-10840071D01*
X10735833Y-10821024D01*
X10745357Y-10811500D01*
X10764405Y-10801976D01*
X10954881Y-10801976D02*
X10973929Y-10801976D01*
X10992976Y-10811500D01*
X11002500Y-10821024D01*
X11012024Y-10840071D01*
X11021548Y-10878167D01*
X11021548Y-10925786D01*
X11012024Y-10963881D01*
X11002500Y-10982929D01*
X10992976Y-10992452D01*
X10973929Y-11001976D01*
X10954881Y-11001976D01*
X10935833Y-10992452D01*
X10926310Y-10982929D01*
X10916786Y-10963881D01*
X10907262Y-10925786D01*
X10907262Y-10878167D01*
X10916786Y-10840071D01*
X10926310Y-10821024D01*
X10935833Y-10811500D01*
X10954881Y-10801976D01*
X11107262Y-11001976D02*
X11107262Y-10868643D01*
X11107262Y-10887690D02*
X11116786Y-10878167D01*
X11135833Y-10868643D01*
X11164405Y-10868643D01*
X11183452Y-10878167D01*
X11192976Y-10897214D01*
X11192976Y-11001976D01*
X11192976Y-10897214D02*
X11202500Y-10878167D01*
X11221548Y-10868643D01*
X11250119Y-10868643D01*
X11269167Y-10878167D01*
X11278690Y-10897214D01*
X11278690Y-11001976D01*
X11373928Y-11001976D02*
X11373928Y-10868643D01*
X11373928Y-10887690D02*
X11383452Y-10878167D01*
X11402500Y-10868643D01*
X11431071Y-10868643D01*
X11450119Y-10878167D01*
X11459643Y-10897214D01*
X11459643Y-11001976D01*
X11459643Y-10897214D02*
X11469167Y-10878167D01*
X11488214Y-10868643D01*
X11516786Y-10868643D01*
X11535833Y-10878167D01*
X11545357Y-10897214D01*
X11545357Y-11001976D01*
X11935833Y-10792452D02*
X11764405Y-11049595D01*
X12192976Y-10801976D02*
X12212024Y-10801976D01*
X12231071Y-10811500D01*
X12240595Y-10821024D01*
X12250119Y-10840071D01*
X12259643Y-10878167D01*
X12259643Y-10925786D01*
X12250119Y-10963881D01*
X12240595Y-10982929D01*
X12231071Y-10992452D01*
X12212024Y-11001976D01*
X12192976Y-11001976D01*
X12173928Y-10992452D01*
X12164405Y-10982929D01*
X12154881Y-10963881D01*
X12145357Y-10925786D01*
X12145357Y-10878167D01*
X12154881Y-10840071D01*
X12164405Y-10821024D01*
X12173928Y-10811500D01*
X12192976Y-10801976D01*
X12345357Y-10982929D02*
X12354881Y-10992452D01*
X12345357Y-11001976D01*
X12335833Y-10992452D01*
X12345357Y-10982929D01*
X12345357Y-11001976D01*
X12478690Y-10801976D02*
X12497738Y-10801976D01*
X12516786Y-10811500D01*
X12526309Y-10821024D01*
X12535833Y-10840071D01*
X12545357Y-10878167D01*
X12545357Y-10925786D01*
X12535833Y-10963881D01*
X12526309Y-10982929D01*
X12516786Y-10992452D01*
X12497738Y-11001976D01*
X12478690Y-11001976D01*
X12459643Y-10992452D01*
X12450119Y-10982929D01*
X12440595Y-10963881D01*
X12431071Y-10925786D01*
X12431071Y-10878167D01*
X12440595Y-10840071D01*
X12450119Y-10821024D01*
X12459643Y-10811500D01*
X12478690Y-10801976D01*
X12612024Y-10801976D02*
X12735833Y-10801976D01*
X12669167Y-10878167D01*
X12697738Y-10878167D01*
X12716786Y-10887690D01*
X12726309Y-10897214D01*
X12735833Y-10916262D01*
X12735833Y-10963881D01*
X12726309Y-10982929D01*
X12716786Y-10992452D01*
X12697738Y-11001976D01*
X12640595Y-11001976D01*
X12621548Y-10992452D01*
X12612024Y-10982929D01*
X12916786Y-10801976D02*
X12821548Y-10801976D01*
X12812024Y-10897214D01*
X12821548Y-10887690D01*
X12840595Y-10878167D01*
X12888214Y-10878167D01*
X12907262Y-10887690D01*
X12916786Y-10897214D01*
X12926309Y-10916262D01*
X12926309Y-10963881D01*
X12916786Y-10982929D01*
X12907262Y-10992452D01*
X12888214Y-11001976D01*
X12840595Y-11001976D01*
X12821548Y-10992452D01*
X12812024Y-10982929D01*
X13097738Y-10868643D02*
X13097738Y-11001976D01*
X13050119Y-10792452D02*
X13002500Y-10935310D01*
X13126309Y-10935310D01*
X13192976Y-10801976D02*
X13192976Y-10840071D01*
X13269167Y-10801976D02*
X13269167Y-10840071D01*
X13564405Y-11078167D02*
X13554881Y-11068643D01*
X13535833Y-11040071D01*
X13526309Y-11021024D01*
X13516786Y-10992452D01*
X13507262Y-10944833D01*
X13507262Y-10906738D01*
X13516786Y-10859119D01*
X13526309Y-10830548D01*
X13535833Y-10811500D01*
X13554881Y-10782929D01*
X13564405Y-10773405D01*
X13726309Y-10801976D02*
X13688214Y-10801976D01*
X13669167Y-10811500D01*
X13659643Y-10821024D01*
X13640595Y-10849595D01*
X13631071Y-10887690D01*
X13631071Y-10963881D01*
X13640595Y-10982929D01*
X13650119Y-10992452D01*
X13669167Y-11001976D01*
X13707262Y-11001976D01*
X13726309Y-10992452D01*
X13735833Y-10982929D01*
X13745357Y-10963881D01*
X13745357Y-10916262D01*
X13735833Y-10897214D01*
X13726309Y-10887690D01*
X13707262Y-10878167D01*
X13669167Y-10878167D01*
X13650119Y-10887690D01*
X13640595Y-10897214D01*
X13631071Y-10916262D01*
X13983452Y-11001976D02*
X13983452Y-10801976D01*
X14069167Y-11001976D02*
X14069167Y-10897214D01*
X14059643Y-10878167D01*
X14040595Y-10868643D01*
X14012024Y-10868643D01*
X13992976Y-10878167D01*
X13983452Y-10887690D01*
X14192976Y-11001976D02*
X14173928Y-10992452D01*
X14164405Y-10982929D01*
X14154881Y-10963881D01*
X14154881Y-10906738D01*
X14164405Y-10887690D01*
X14173928Y-10878167D01*
X14192976Y-10868643D01*
X14221548Y-10868643D01*
X14240595Y-10878167D01*
X14250119Y-10887690D01*
X14259643Y-10906738D01*
X14259643Y-10963881D01*
X14250119Y-10982929D01*
X14240595Y-10992452D01*
X14221548Y-11001976D01*
X14192976Y-11001976D01*
X14373928Y-11001976D02*
X14354881Y-10992452D01*
X14345357Y-10973405D01*
X14345357Y-10801976D01*
X14526309Y-10992452D02*
X14507262Y-11001976D01*
X14469167Y-11001976D01*
X14450119Y-10992452D01*
X14440595Y-10973405D01*
X14440595Y-10897214D01*
X14450119Y-10878167D01*
X14469167Y-10868643D01*
X14507262Y-10868643D01*
X14526309Y-10878167D01*
X14535833Y-10897214D01*
X14535833Y-10916262D01*
X14440595Y-10935310D01*
X14612024Y-10992452D02*
X14631071Y-11001976D01*
X14669167Y-11001976D01*
X14688214Y-10992452D01*
X14697738Y-10973405D01*
X14697738Y-10963881D01*
X14688214Y-10944833D01*
X14669167Y-10935310D01*
X14640595Y-10935310D01*
X14621548Y-10925786D01*
X14612024Y-10906738D01*
X14612024Y-10897214D01*
X14621548Y-10878167D01*
X14640595Y-10868643D01*
X14669167Y-10868643D01*
X14688214Y-10878167D01*
X14764405Y-11078167D02*
X14773928Y-11068643D01*
X14792976Y-11040071D01*
X14802500Y-11021024D01*
X14812024Y-10992452D01*
X14821548Y-10944833D01*
X14821548Y-10906738D01*
X14812024Y-10859119D01*
X14802500Y-10830548D01*
X14792976Y-10811500D01*
X14773928Y-10782929D01*
X14764405Y-10773405D01*
D14*
X9942500Y-11125500D02*
X9942500Y-11225500D01*
X9892500Y-11175500D02*
X9992500Y-11175500D01*
D11*
X10354881Y-11265976D02*
X10240595Y-11265976D01*
X10297738Y-11265976D02*
X10297738Y-11065976D01*
X10278690Y-11094548D01*
X10259643Y-11113595D01*
X10240595Y-11123119D01*
X10440595Y-11246928D02*
X10450119Y-11256452D01*
X10440595Y-11265976D01*
X10431071Y-11256452D01*
X10440595Y-11246928D01*
X10440595Y-11265976D01*
X10573929Y-11065976D02*
X10592976Y-11065976D01*
X10612024Y-11075500D01*
X10621548Y-11085024D01*
X10631071Y-11104071D01*
X10640595Y-11142167D01*
X10640595Y-11189786D01*
X10631071Y-11227881D01*
X10621548Y-11246928D01*
X10612024Y-11256452D01*
X10592976Y-11265976D01*
X10573929Y-11265976D01*
X10554881Y-11256452D01*
X10545357Y-11246928D01*
X10535833Y-11227881D01*
X10526310Y-11189786D01*
X10526310Y-11142167D01*
X10535833Y-11104071D01*
X10545357Y-11085024D01*
X10554881Y-11075500D01*
X10573929Y-11065976D01*
X10764405Y-11065976D02*
X10783452Y-11065976D01*
X10802500Y-11075500D01*
X10812024Y-11085024D01*
X10821548Y-11104071D01*
X10831071Y-11142167D01*
X10831071Y-11189786D01*
X10821548Y-11227881D01*
X10812024Y-11246928D01*
X10802500Y-11256452D01*
X10783452Y-11265976D01*
X10764405Y-11265976D01*
X10745357Y-11256452D01*
X10735833Y-11246928D01*
X10726310Y-11227881D01*
X10716786Y-11189786D01*
X10716786Y-11142167D01*
X10726310Y-11104071D01*
X10735833Y-11085024D01*
X10745357Y-11075500D01*
X10764405Y-11065976D01*
X10954881Y-11065976D02*
X10973929Y-11065976D01*
X10992976Y-11075500D01*
X11002500Y-11085024D01*
X11012024Y-11104071D01*
X11021548Y-11142167D01*
X11021548Y-11189786D01*
X11012024Y-11227881D01*
X11002500Y-11246928D01*
X10992976Y-11256452D01*
X10973929Y-11265976D01*
X10954881Y-11265976D01*
X10935833Y-11256452D01*
X10926310Y-11246928D01*
X10916786Y-11227881D01*
X10907262Y-11189786D01*
X10907262Y-11142167D01*
X10916786Y-11104071D01*
X10926310Y-11085024D01*
X10935833Y-11075500D01*
X10954881Y-11065976D01*
X11107262Y-11265976D02*
X11107262Y-11132643D01*
X11107262Y-11151690D02*
X11116786Y-11142167D01*
X11135833Y-11132643D01*
X11164405Y-11132643D01*
X11183452Y-11142167D01*
X11192976Y-11161214D01*
X11192976Y-11265976D01*
X11192976Y-11161214D02*
X11202500Y-11142167D01*
X11221548Y-11132643D01*
X11250119Y-11132643D01*
X11269167Y-11142167D01*
X11278690Y-11161214D01*
X11278690Y-11265976D01*
X11373928Y-11265976D02*
X11373928Y-11132643D01*
X11373928Y-11151690D02*
X11383452Y-11142167D01*
X11402500Y-11132643D01*
X11431071Y-11132643D01*
X11450119Y-11142167D01*
X11459643Y-11161214D01*
X11459643Y-11265976D01*
X11459643Y-11161214D02*
X11469167Y-11142167D01*
X11488214Y-11132643D01*
X11516786Y-11132643D01*
X11535833Y-11142167D01*
X11545357Y-11161214D01*
X11545357Y-11265976D01*
X11935833Y-11056452D02*
X11764405Y-11313595D01*
X12192976Y-11065976D02*
X12212024Y-11065976D01*
X12231071Y-11075500D01*
X12240595Y-11085024D01*
X12250119Y-11104071D01*
X12259643Y-11142167D01*
X12259643Y-11189786D01*
X12250119Y-11227881D01*
X12240595Y-11246928D01*
X12231071Y-11256452D01*
X12212024Y-11265976D01*
X12192976Y-11265976D01*
X12173928Y-11256452D01*
X12164405Y-11246928D01*
X12154881Y-11227881D01*
X12145357Y-11189786D01*
X12145357Y-11142167D01*
X12154881Y-11104071D01*
X12164405Y-11085024D01*
X12173928Y-11075500D01*
X12192976Y-11065976D01*
X12345357Y-11246928D02*
X12354881Y-11256452D01*
X12345357Y-11265976D01*
X12335833Y-11256452D01*
X12345357Y-11246928D01*
X12345357Y-11265976D01*
X12478690Y-11065976D02*
X12497738Y-11065976D01*
X12516786Y-11075500D01*
X12526309Y-11085024D01*
X12535833Y-11104071D01*
X12545357Y-11142167D01*
X12545357Y-11189786D01*
X12535833Y-11227881D01*
X12526309Y-11246928D01*
X12516786Y-11256452D01*
X12497738Y-11265976D01*
X12478690Y-11265976D01*
X12459643Y-11256452D01*
X12450119Y-11246928D01*
X12440595Y-11227881D01*
X12431071Y-11189786D01*
X12431071Y-11142167D01*
X12440595Y-11104071D01*
X12450119Y-11085024D01*
X12459643Y-11075500D01*
X12478690Y-11065976D01*
X12612024Y-11065976D02*
X12735833Y-11065976D01*
X12669167Y-11142167D01*
X12697738Y-11142167D01*
X12716786Y-11151690D01*
X12726309Y-11161214D01*
X12735833Y-11180262D01*
X12735833Y-11227881D01*
X12726309Y-11246928D01*
X12716786Y-11256452D01*
X12697738Y-11265976D01*
X12640595Y-11265976D01*
X12621548Y-11256452D01*
X12612024Y-11246928D01*
X12831071Y-11265976D02*
X12869167Y-11265976D01*
X12888214Y-11256452D01*
X12897738Y-11246928D01*
X12916786Y-11218357D01*
X12926309Y-11180262D01*
X12926309Y-11104071D01*
X12916786Y-11085024D01*
X12907262Y-11075500D01*
X12888214Y-11065976D01*
X12850119Y-11065976D01*
X12831071Y-11075500D01*
X12821548Y-11085024D01*
X12812024Y-11104071D01*
X12812024Y-11151690D01*
X12821548Y-11170738D01*
X12831071Y-11180262D01*
X12850119Y-11189786D01*
X12888214Y-11189786D01*
X12907262Y-11180262D01*
X12916786Y-11170738D01*
X12926309Y-11151690D01*
X13097738Y-11132643D02*
X13097738Y-11265976D01*
X13050119Y-11056452D02*
X13002500Y-11199309D01*
X13126309Y-11199309D01*
X13192976Y-11065976D02*
X13192976Y-11104071D01*
X13269167Y-11065976D02*
X13269167Y-11104071D01*
X13564405Y-11342167D02*
X13554881Y-11332643D01*
X13535833Y-11304071D01*
X13526309Y-11285024D01*
X13516786Y-11256452D01*
X13507262Y-11208833D01*
X13507262Y-11170738D01*
X13516786Y-11123119D01*
X13526309Y-11094548D01*
X13535833Y-11075500D01*
X13554881Y-11046929D01*
X13564405Y-11037405D01*
X13726309Y-11132643D02*
X13726309Y-11265976D01*
X13678690Y-11056452D02*
X13631071Y-11199309D01*
X13754881Y-11199309D01*
X13983452Y-11265976D02*
X13983452Y-11065976D01*
X14069167Y-11265976D02*
X14069167Y-11161214D01*
X14059643Y-11142167D01*
X14040595Y-11132643D01*
X14012024Y-11132643D01*
X13992976Y-11142167D01*
X13983452Y-11151690D01*
X14192976Y-11265976D02*
X14173928Y-11256452D01*
X14164405Y-11246928D01*
X14154881Y-11227881D01*
X14154881Y-11170738D01*
X14164405Y-11151690D01*
X14173928Y-11142167D01*
X14192976Y-11132643D01*
X14221548Y-11132643D01*
X14240595Y-11142167D01*
X14250119Y-11151690D01*
X14259643Y-11170738D01*
X14259643Y-11227881D01*
X14250119Y-11246928D01*
X14240595Y-11256452D01*
X14221548Y-11265976D01*
X14192976Y-11265976D01*
X14373928Y-11265976D02*
X14354881Y-11256452D01*
X14345357Y-11237405D01*
X14345357Y-11065976D01*
X14526309Y-11256452D02*
X14507262Y-11265976D01*
X14469167Y-11265976D01*
X14450119Y-11256452D01*
X14440595Y-11237405D01*
X14440595Y-11161214D01*
X14450119Y-11142167D01*
X14469167Y-11132643D01*
X14507262Y-11132643D01*
X14526309Y-11142167D01*
X14535833Y-11161214D01*
X14535833Y-11180262D01*
X14440595Y-11199309D01*
X14612024Y-11256452D02*
X14631071Y-11265976D01*
X14669167Y-11265976D01*
X14688214Y-11256452D01*
X14697738Y-11237405D01*
X14697738Y-11227881D01*
X14688214Y-11208833D01*
X14669167Y-11199309D01*
X14640595Y-11199309D01*
X14621548Y-11189786D01*
X14612024Y-11170738D01*
X14612024Y-11161214D01*
X14621548Y-11142167D01*
X14640595Y-11132643D01*
X14669167Y-11132643D01*
X14688214Y-11142167D01*
X14764405Y-11342167D02*
X14773928Y-11332643D01*
X14792976Y-11304071D01*
X14802500Y-11285024D01*
X14812024Y-11256452D01*
X14821548Y-11208833D01*
X14821548Y-11170738D01*
X14812024Y-11123119D01*
X14802500Y-11094548D01*
X14792976Y-11075500D01*
X14773928Y-11046929D01*
X14764405Y-11037405D01*
X9963211Y-11510211D02*
X9963211Y-11368789D01*
X9821789Y-11368789D01*
X9821789Y-11510211D01*
X9963211Y-11510211D01*
X10231071Y-11329976D02*
X10354881Y-11329976D01*
X10288214Y-11406167D01*
X10316786Y-11406167D01*
X10335833Y-11415690D01*
X10345357Y-11425214D01*
X10354881Y-11444262D01*
X10354881Y-11491881D01*
X10345357Y-11510928D01*
X10335833Y-11520452D01*
X10316786Y-11529976D01*
X10259643Y-11529976D01*
X10240595Y-11520452D01*
X10231071Y-11510928D01*
X10440595Y-11510928D02*
X10450119Y-11520452D01*
X10440595Y-11529976D01*
X10431071Y-11520452D01*
X10440595Y-11510928D01*
X10440595Y-11529976D01*
X10573929Y-11329976D02*
X10592976Y-11329976D01*
X10612024Y-11339500D01*
X10621548Y-11349024D01*
X10631071Y-11368071D01*
X10640595Y-11406167D01*
X10640595Y-11453786D01*
X10631071Y-11491881D01*
X10621548Y-11510928D01*
X10612024Y-11520452D01*
X10592976Y-11529976D01*
X10573929Y-11529976D01*
X10554881Y-11520452D01*
X10545357Y-11510928D01*
X10535833Y-11491881D01*
X10526310Y-11453786D01*
X10526310Y-11406167D01*
X10535833Y-11368071D01*
X10545357Y-11349024D01*
X10554881Y-11339500D01*
X10573929Y-11329976D01*
X10764405Y-11329976D02*
X10783452Y-11329976D01*
X10802500Y-11339500D01*
X10812024Y-11349024D01*
X10821548Y-11368071D01*
X10831071Y-11406167D01*
X10831071Y-11453786D01*
X10821548Y-11491881D01*
X10812024Y-11510928D01*
X10802500Y-11520452D01*
X10783452Y-11529976D01*
X10764405Y-11529976D01*
X10745357Y-11520452D01*
X10735833Y-11510928D01*
X10726310Y-11491881D01*
X10716786Y-11453786D01*
X10716786Y-11406167D01*
X10726310Y-11368071D01*
X10735833Y-11349024D01*
X10745357Y-11339500D01*
X10764405Y-11329976D01*
X10954881Y-11329976D02*
X10973929Y-11329976D01*
X10992976Y-11339500D01*
X11002500Y-11349024D01*
X11012024Y-11368071D01*
X11021548Y-11406167D01*
X11021548Y-11453786D01*
X11012024Y-11491881D01*
X11002500Y-11510928D01*
X10992976Y-11520452D01*
X10973929Y-11529976D01*
X10954881Y-11529976D01*
X10935833Y-11520452D01*
X10926310Y-11510928D01*
X10916786Y-11491881D01*
X10907262Y-11453786D01*
X10907262Y-11406167D01*
X10916786Y-11368071D01*
X10926310Y-11349024D01*
X10935833Y-11339500D01*
X10954881Y-11329976D01*
X11107262Y-11529976D02*
X11107262Y-11396643D01*
X11107262Y-11415690D02*
X11116786Y-11406167D01*
X11135833Y-11396643D01*
X11164405Y-11396643D01*
X11183452Y-11406167D01*
X11192976Y-11425214D01*
X11192976Y-11529976D01*
X11192976Y-11425214D02*
X11202500Y-11406167D01*
X11221548Y-11396643D01*
X11250119Y-11396643D01*
X11269167Y-11406167D01*
X11278690Y-11425214D01*
X11278690Y-11529976D01*
X11373928Y-11529976D02*
X11373928Y-11396643D01*
X11373928Y-11415690D02*
X11383452Y-11406167D01*
X11402500Y-11396643D01*
X11431071Y-11396643D01*
X11450119Y-11406167D01*
X11459643Y-11425214D01*
X11459643Y-11529976D01*
X11459643Y-11425214D02*
X11469167Y-11406167D01*
X11488214Y-11396643D01*
X11516786Y-11396643D01*
X11535833Y-11406167D01*
X11545357Y-11425214D01*
X11545357Y-11529976D01*
X11935833Y-11320452D02*
X11764405Y-11577595D01*
X12192976Y-11329976D02*
X12212024Y-11329976D01*
X12231071Y-11339500D01*
X12240595Y-11349024D01*
X12250119Y-11368071D01*
X12259643Y-11406167D01*
X12259643Y-11453786D01*
X12250119Y-11491881D01*
X12240595Y-11510928D01*
X12231071Y-11520452D01*
X12212024Y-11529976D01*
X12192976Y-11529976D01*
X12173928Y-11520452D01*
X12164405Y-11510928D01*
X12154881Y-11491881D01*
X12145357Y-11453786D01*
X12145357Y-11406167D01*
X12154881Y-11368071D01*
X12164405Y-11349024D01*
X12173928Y-11339500D01*
X12192976Y-11329976D01*
X12345357Y-11510928D02*
X12354881Y-11520452D01*
X12345357Y-11529976D01*
X12335833Y-11520452D01*
X12345357Y-11510928D01*
X12345357Y-11529976D01*
X12545357Y-11529976D02*
X12431071Y-11529976D01*
X12488214Y-11529976D02*
X12488214Y-11329976D01*
X12469167Y-11358548D01*
X12450119Y-11377595D01*
X12431071Y-11387119D01*
X12735833Y-11529976D02*
X12621548Y-11529976D01*
X12678690Y-11529976D02*
X12678690Y-11329976D01*
X12659643Y-11358548D01*
X12640595Y-11377595D01*
X12621548Y-11387119D01*
X12850119Y-11415690D02*
X12831071Y-11406167D01*
X12821548Y-11396643D01*
X12812024Y-11377595D01*
X12812024Y-11368071D01*
X12821548Y-11349024D01*
X12831071Y-11339500D01*
X12850119Y-11329976D01*
X12888214Y-11329976D01*
X12907262Y-11339500D01*
X12916786Y-11349024D01*
X12926309Y-11368071D01*
X12926309Y-11377595D01*
X12916786Y-11396643D01*
X12907262Y-11406167D01*
X12888214Y-11415690D01*
X12850119Y-11415690D01*
X12831071Y-11425214D01*
X12821548Y-11434738D01*
X12812024Y-11453786D01*
X12812024Y-11491881D01*
X12821548Y-11510928D01*
X12831071Y-11520452D01*
X12850119Y-11529976D01*
X12888214Y-11529976D01*
X12907262Y-11520452D01*
X12916786Y-11510928D01*
X12926309Y-11491881D01*
X12926309Y-11453786D01*
X12916786Y-11434738D01*
X12907262Y-11425214D01*
X12888214Y-11415690D01*
X13116786Y-11529976D02*
X13002500Y-11529976D01*
X13059643Y-11529976D02*
X13059643Y-11329976D01*
X13040595Y-11358548D01*
X13021548Y-11377595D01*
X13002500Y-11387119D01*
X13192976Y-11329976D02*
X13192976Y-11368071D01*
X13269167Y-11329976D02*
X13269167Y-11368071D01*
X13564405Y-11606167D02*
X13554881Y-11596643D01*
X13535833Y-11568071D01*
X13526309Y-11549024D01*
X13516786Y-11520452D01*
X13507262Y-11472833D01*
X13507262Y-11434738D01*
X13516786Y-11387119D01*
X13526309Y-11358548D01*
X13535833Y-11339500D01*
X13554881Y-11310928D01*
X13564405Y-11301405D01*
X13631071Y-11349024D02*
X13640595Y-11339500D01*
X13659643Y-11329976D01*
X13707262Y-11329976D01*
X13726309Y-11339500D01*
X13735833Y-11349024D01*
X13745357Y-11368071D01*
X13745357Y-11387119D01*
X13735833Y-11415690D01*
X13621548Y-11529976D01*
X13745357Y-11529976D01*
X13983452Y-11529976D02*
X13983452Y-11329976D01*
X14069167Y-11529976D02*
X14069167Y-11425214D01*
X14059643Y-11406167D01*
X14040595Y-11396643D01*
X14012024Y-11396643D01*
X13992976Y-11406167D01*
X13983452Y-11415690D01*
X14192976Y-11529976D02*
X14173928Y-11520452D01*
X14164405Y-11510928D01*
X14154881Y-11491881D01*
X14154881Y-11434738D01*
X14164405Y-11415690D01*
X14173928Y-11406167D01*
X14192976Y-11396643D01*
X14221548Y-11396643D01*
X14240595Y-11406167D01*
X14250119Y-11415690D01*
X14259643Y-11434738D01*
X14259643Y-11491881D01*
X14250119Y-11510928D01*
X14240595Y-11520452D01*
X14221548Y-11529976D01*
X14192976Y-11529976D01*
X14373928Y-11529976D02*
X14354881Y-11520452D01*
X14345357Y-11501405D01*
X14345357Y-11329976D01*
X14526309Y-11520452D02*
X14507262Y-11529976D01*
X14469167Y-11529976D01*
X14450119Y-11520452D01*
X14440595Y-11501405D01*
X14440595Y-11425214D01*
X14450119Y-11406167D01*
X14469167Y-11396643D01*
X14507262Y-11396643D01*
X14526309Y-11406167D01*
X14535833Y-11425214D01*
X14535833Y-11444262D01*
X14440595Y-11463309D01*
X14612024Y-11520452D02*
X14631071Y-11529976D01*
X14669167Y-11529976D01*
X14688214Y-11520452D01*
X14697738Y-11501405D01*
X14697738Y-11491881D01*
X14688214Y-11472833D01*
X14669167Y-11463309D01*
X14640595Y-11463309D01*
X14621548Y-11453786D01*
X14612024Y-11434738D01*
X14612024Y-11425214D01*
X14621548Y-11406167D01*
X14640595Y-11396643D01*
X14669167Y-11396643D01*
X14688214Y-11406167D01*
X14764405Y-11606167D02*
X14773928Y-11596643D01*
X14792976Y-11568071D01*
X14802500Y-11549024D01*
X14812024Y-11520452D01*
X14821548Y-11472833D01*
X14821548Y-11434738D01*
X14812024Y-11387119D01*
X14802500Y-11358548D01*
X14792976Y-11339500D01*
X14773928Y-11310928D01*
X14764405Y-11301405D01*
M02*
